<?xml version="1.0" encoding="utf-8"?>
<!-- Generator: Adobe Illustrator 23.0.1, SVG Export Plug-In . SVG Version: 6.00 Build 0)  -->
<svg version="1.1" id="Layer_1" xmlns="http://www.w3.org/2000/svg" xmlns:xlink="http://www.w3.org/1999/xlink" x="0px" y="0px"
	 viewBox="0 0 56 20" style="enable-background:new 0 0 56 20;" xml:space="preserve">
<style type="text/css">
	.Graphic_x0020_Style_x0020_2{fill:url(#SVGID_1_);}
	.st0{fill:#FFFFFF;}
	.st1{fill:#5BC8F3;}
	.st2{fill:url(#SVGID_2_);}
	.st3{fill:url(#SVGID_3_);}
	.st4{fill:url(#SVGID_4_);}
</style>
<linearGradient id="SVGID_1_" gradientUnits="userSpaceOnUse" x1="-76" y1="0" x2="-76.7071" y2="0.7071">
	<stop  offset="0" style="stop-color:#EE4447"/>
	<stop  offset="1" style="stop-color:#C5166C"/>
</linearGradient>
<path d="M54,20H2c-1.1,0-2-0.9-2-2V2c0-1.1,0.9-2,2-2h52c1.1,0,2,0.9,2,2v16C56,19.1,55.1,20,54,20z"/>
<path class="st0" d="M16.9,6.2h0.4c0.4,0,0.6,0.2,0.6,0.5c0,0.3-0.2,0.5-0.6,0.5s-0.6-0.2-0.6-0.4h-0.4c0,0.5,0.4,0.8,1.1,0.8
	c0.6,0,1.1-0.4,1.1-0.8c0-0.4-0.3-0.6-0.6-0.7v0c0.3-0.1,0.5-0.3,0.5-0.6c0-0.4-0.4-0.8-1-0.8c-0.6,0-1,0.3-1,0.8h0.4
	c0-0.3,0.2-0.4,0.6-0.4c0.3,0,0.5,0.2,0.5,0.4c0,0.3-0.2,0.5-0.5,0.5h-0.4V6.2z M19.6,7.5c0.3,0,0.5-0.1,0.6-0.3h0v0.3h0.4V6
	c0-0.5-0.3-0.7-0.8-0.7c-0.5,0-0.8,0.2-0.9,0.6h0.4c0-0.2,0.2-0.2,0.4-0.2c0.3,0,0.4,0.1,0.4,0.4v0.2l-0.6,0c-0.5,0-0.8,0.3-0.8,0.6
	C18.8,7.2,19.1,7.5,19.6,7.5z M19.7,7.1c-0.2,0-0.4-0.1-0.4-0.3c0-0.2,0.1-0.3,0.4-0.3l0.5,0v0.2C20.2,6.9,20,7.1,19.7,7.1z
	 M22.7,5.7V5.3h-1.4v2.1h0.4V5.7H22.7z M24.4,5.3c-0.3,0-0.5,0.1-0.7,0.4h0V5.3h-0.4v2.8h0.4v-1h0c0.1,0.2,0.4,0.4,0.7,0.4
	c0.5,0,0.9-0.4,0.9-1.1C25.3,5.7,25,5.3,24.4,5.3z M24.3,7.1c-0.4,0-0.6-0.3-0.6-0.7c0-0.4,0.2-0.7,0.6-0.7c0.4,0,0.6,0.3,0.6,0.7
	C24.9,6.8,24.7,7.1,24.3,7.1z M26,8.2c0.4,0,0.6-0.2,0.8-0.7l0.8-2.2h-0.4L26.7,7h0l-0.5-1.7h-0.5l0.8,2.1l0,0.1
	c-0.1,0.2-0.2,0.3-0.4,0.3c0,0-0.1,0-0.1,0v0.4C25.9,8.2,26,8.2,26,8.2z M28.9,7.5c0.5,0,0.9-0.3,0.9-0.7c0-0.2-0.1-0.4-0.4-0.5v0
	c0.2,0,0.3-0.2,0.3-0.4c0-0.4-0.3-0.6-0.8-0.6c-0.5,0-0.8,0.2-0.8,0.6h0.4c0-0.2,0.2-0.3,0.4-0.3c0.3,0,0.4,0.1,0.4,0.3
	c0,0.2-0.1,0.3-0.4,0.3h-0.3v0.3h0.3c0.3,0,0.5,0.1,0.5,0.3c0,0.2-0.2,0.3-0.5,0.3c-0.2,0-0.4-0.1-0.5-0.3H28
	C28,7.3,28.4,7.5,28.9,7.5z M30.8,7.4l1-1.5h0v1.5h0.4V5.3h-0.4l-1,1.5h0V5.3h-0.4v2.1H30.8z M34.5,5.3h-1.8v0.4h0.7v1.8h0.4V5.7
	h0.7V5.3z M36.4,6.9c-0.1,0.2-0.3,0.3-0.5,0.3c-0.3,0-0.6-0.2-0.6-0.6v0h1.5V6.3c0-0.7-0.4-1.1-1-1.1c-0.6,0-1,0.4-1,1.1
	c0,0.7,0.4,1.1,1,1.1c0.5,0,0.8-0.2,0.9-0.6H36.4z M35.9,5.6c0.3,0,0.5,0.2,0.5,0.6h-1.1C35.3,5.8,35.5,5.6,35.9,5.6z M38.6,7.4h1
	c0.5,0,0.7-0.2,0.7-0.6c0-0.3-0.2-0.5-0.5-0.5v0c0.2,0,0.4-0.2,0.4-0.5c0-0.3-0.2-0.5-0.7-0.5h-1V7.4z M39.5,5.6
	c0.2,0,0.3,0.1,0.3,0.3c0,0.2-0.1,0.3-0.4,0.3H39V5.6H39.5z M39.4,6.5c0.3,0,0.4,0.1,0.4,0.3c0,0.2-0.1,0.3-0.4,0.3H39V6.5H39.4z
	 M27.3,11.5c-1,0-1.8,0.7-1.8,1.8c0,1,0.8,1.8,1.8,1.8c1,0,1.8-0.7,1.8-1.8C29,12.2,28.2,11.5,27.3,11.5z M27.3,14.3
	c-0.5,0-1-0.4-1-1.1c0-0.6,0.5-1.1,1-1.1c0.5,0,1,0.4,1,1.1C28.3,13.8,27.8,14.3,27.3,14.3z M23.4,11.5c-1,0-1.8,0.7-1.8,1.8
	c0,1,0.8,1.8,1.8,1.8c1,0,1.8-0.7,1.8-1.8C25.2,12.2,24.4,11.5,23.4,11.5z M23.4,14.3c-0.5,0-1-0.4-1-1.1c0-0.6,0.5-1.1,1-1.1
	c0.5,0,1,0.4,1,1.1C24.4,13.8,23.9,14.3,23.4,14.3z M18.8,12v0.7h1.8c-0.1,0.4-0.2,0.7-0.4,0.9c-0.3,0.3-0.7,0.5-1.4,0.5
	c-1.1,0-2-0.9-2-2s0.9-2,2-2c0.6,0,1,0.2,1.3,0.5l0.5-0.5c-0.4-0.4-1-0.8-1.9-0.8c-1.5,0-2.8,1.2-2.8,2.7c0,1.5,1.3,2.7,2.8,2.7
	c0.8,0,1.4-0.3,1.9-0.8c0.5-0.5,0.6-1.2,0.6-1.8c0-0.2,0-0.3,0-0.5H18.8z M37.6,12.6c-0.1-0.4-0.6-1.1-1.5-1.1
	c-0.9,0-1.7,0.7-1.7,1.8c0,1,0.7,1.8,1.8,1.8c0.8,0,1.3-0.5,1.5-0.8L37,13.8c-0.2,0.3-0.5,0.5-0.9,0.5c-0.4,0-0.7-0.2-0.9-0.5l2.4-1
	L37.6,12.6z M35.2,13.2c0-0.7,0.5-1,0.9-1c0.3,0,0.6,0.2,0.7,0.4L35.2,13.2z M33.3,14.9h0.8V9.7h-0.8V14.9z M32,11.8L32,11.8
	c-0.2-0.2-0.5-0.4-1-0.4c-0.9,0-1.7,0.8-1.7,1.8c0,1,0.8,1.8,1.7,1.8c0.4,0,0.8-0.2,0.9-0.4h0v0.3c0,0.7-0.4,1-0.9,1
	c-0.5,0-0.8-0.3-0.9-0.6l-0.7,0.3c0.2,0.5,0.7,1,1.6,1c0.9,0,1.7-0.5,1.7-1.8v-3.2H32V11.8z M31.1,14.3c-0.5,0-1-0.4-1-1.1
	c0-0.6,0.4-1.1,1-1.1c0.5,0,0.9,0.5,0.9,1.1C32.1,13.8,31.6,14.3,31.1,14.3z M41.2,9.7h-1.9v5.2h0.8v-2h1.1c0.9,0,1.7-0.6,1.7-1.6
	S42.1,9.7,41.2,9.7z M41.3,12.2h-1.1v-1.8h1.1c0.6,0,0.9,0.5,0.9,0.9C42.2,11.7,41.8,12.2,41.3,12.2z M46,11.4
	c-0.6,0-1.1,0.2-1.4,0.8l0.7,0.3c0.1-0.3,0.4-0.4,0.7-0.4c0.4,0,0.8,0.2,0.8,0.7v0.1c-0.1-0.1-0.4-0.2-0.8-0.2
	c-0.7,0-1.5,0.4-1.5,1.2c0,0.7,0.6,1.1,1.3,1.1c0.5,0,0.8-0.2,1-0.5h0v0.4h0.7v-2C47.6,12,46.9,11.4,46,11.4z M45.9,14.3
	c-0.3,0-0.6-0.1-0.6-0.4c0-0.4,0.4-0.6,0.8-0.6c0.3,0,0.5,0.1,0.7,0.2C46.8,13.9,46.4,14.3,45.9,14.3z M50.3,11.6l-0.9,2.2h0
	l-0.9-2.2h-0.8l1.4,3.1l-0.8,1.7h0.8l2.1-4.9H50.3z M43.4,14.9h0.8V9.7h-0.8V14.9z"/>
<g>
	<g>
		<g>
			<path class="st1" d="M4.3,4.8C4.2,5,4.1,5.2,4.1,5.4v9.2c0,0.3,0.1,0.5,0.2,0.6l0,0l5.1-5.1V10V9.9L4.3,4.8L4.3,4.8z"/>
			<linearGradient id="SVGID_2_" gradientUnits="userSpaceOnUse" x1="12.8961" y1="10.0002" x2="2.8671" y2="10.0002">
				<stop  offset="0" style="stop-color:#FFDF00"/>
				<stop  offset="0.4087" style="stop-color:#FBBC0E"/>
				<stop  offset="0.7754" style="stop-color:#F9A418"/>
				<stop  offset="1" style="stop-color:#F89B1C"/>
			</linearGradient>
			<path class="st2" d="M11.2,11.8l-1.7-1.7V10V9.9l1.7-1.7l0,0l2,1.2c0.6,0.3,0.6,0.9,0,1.2L11.2,11.8L11.2,11.8z"/>
			<linearGradient id="SVGID_3_" gradientUnits="userSpaceOnUse" x1="10.2934" y1="10.9513" x2="0.8607" y2="20.3839">
				<stop  offset="0" style="stop-color:#EE4447"/>
				<stop  offset="1" style="stop-color:#C5166C"/>
			</linearGradient>
			<path class="st3" d="M11.2,11.8L9.5,10l-5.2,5.2c0.2,0.2,0.5,0.2,0.9,0L11.2,11.8"/>
			<linearGradient id="SVGID_4_" gradientUnits="userSpaceOnUse" x1="0.8187" y1="-0.426" x2="8.5202" y2="7.2756">
				<stop  offset="0" style="stop-color:#269E6F"/>
				<stop  offset="5.089003e-02" style="stop-color:#2BA06F"/>
				<stop  offset="0.4663" style="stop-color:#53B26B"/>
				<stop  offset="0.7971" style="stop-color:#6BBD69"/>
				<stop  offset="1" style="stop-color:#74C168"/>
			</linearGradient>
			<path class="st4" d="M11.2,8.2L5.2,4.8c-0.4-0.2-0.7-0.2-0.9,0L9.5,10L11.2,8.2z"/>
		</g>
	</g>
</g>
</svg>
