<svg class="sbis_ru-Footer__soc-svg inst" version="1.1" xmlns="http://www.w3.org/2000/svg" xmlns:xlink="http://www.w3.org/1999/xlink" x="0px" y="0px" viewBox="0 0 20 20" style="" xml:space="preserve" tabindex="0"><path class="sbis_ru-Footer__soc-svg__path" d="M18,20H2c-1.1045694,0-2-0.8954296-2-2V2c0-1.1045694,0.8954305-2,2-2h16c1.1045704,0,2,0.8954305,2,2v16        C20,19.1045704,19.1045704,20,18,20z" xmlns="http://www.w3.org/2000/svg"/><g xmlns="http://www.w3.org/2000/svg" class=""><path class="sbis_ru-Footer__soc-svg__white" d="M10,4.2612615c1.8690834,0,2.0904694,0.0071282,2.8285952,0.0408044                c0.6824884,0.0311427,1.0531425,0.1451707,1.2998056,0.2410316c0.3267365,0.1269789,0.5599241,0.2786837,0.8048658,0.5236249                c0.2449532,0.2449522,0.396657,0.4781394,0.5236359,0.8048773c0.0958605,0.2466617,0.2098894,0.6173167,0.2410316,1.2997947                C15.7316103,7.9095302,15.738739,8.1309166,15.738739,10s-0.0071287,2.0904694-0.0408049,2.8285952                c-0.0311422,0.6824884-0.1451712,1.0531425-0.2410316,1.2998056c-0.1269789,0.3267365-0.2786827,0.5599241-0.5236254,0.8048658                c-0.2449522,0.2449532-0.4781399,0.396657-0.8048763,0.5236359c-0.2466631,0.0958605-0.6173172,0.2098894-1.2998056,0.2410316                C12.0905762,15.7316103,11.8692102,15.738739,10,15.738739s-2.0905762-0.0071287-2.8285956-0.0408049                c-0.682488-0.0311422-1.053143-0.1451712-1.2998047-0.2410316c-0.3267379-0.1269789-0.5599251-0.2786827-0.8048663-0.5236254                c-0.2449474-0.2449465-0.396657-0.4781399-0.5236359-0.8048763c-0.095861-0.2466631-0.2098889-0.6173172-0.2410316-1.2997961                C4.2683897,12.0904694,4.2612615,11.8690834,4.2612615,10s0.0071282-2.0904698,0.0408044-2.8285956                c0.0311427-0.682488,0.1451707-1.053143,0.2410316-1.2998047c0.1269789-0.3267379,0.2786837-0.5599251,0.5236249-0.8048663                c0.2449522-0.2449522,0.4781394-0.396657,0.8048773-0.5236359c0.2466617-0.095861,0.6173167-0.2098889,1.2997947-0.2410316                C7.9095302,4.2683897,8.1309166,4.2612615,10,4.2612615 M10,3C8.0989113,3,7.8605323,3.0080519,7.1139112,3.0421162                C6.3688283,3.0761144,5.8599954,3.1944463,5.4147248,3.3674912C4.9544201,3.5463784,4.5640392,3.7857256,4.17488,4.17488                C3.7857256,4.5640392,3.5463784,4.9544201,3.3674912,5.4147248C3.1944463,5.8599954,3.0761144,6.3688283,3.0421162,7.1139112                C3.0080519,7.8605323,3,8.0989056,3,10c0,1.9010897,0.0080519,2.1394663,0.0421162,2.8860884                c0.0339983,0.7450829,0.1523302,1.2539158,0.3253751,1.6991863c0.1788871,0.4603004,0.4182343,0.8506861,0.8073888,1.2398443                c0.3891592,0.3891563,0.7795401,0.6285038,1.2398448,0.8073902c0.4452705,0.1730461,0.9541035,0.2913761,1.6991863,0.3253746                C7.8605323,16.9919548,8.0989113,17,10,17s2.1394663-0.0080452,2.8860884-0.0421162                c0.7450829-0.0339985,1.2539158-0.1523285,1.6991863-0.3253746c0.4603043-0.1788864,0.8506861-0.4182339,1.2398443-0.8073902                c0.3891563-0.3891582,0.6285038-0.7795401,0.8073902-1.2398443c0.1730461-0.4452705,0.2913761-0.9541035,0.3253746-1.6991863                C16.9919472,12.1394663,17,11.9010897,17,10s-0.0080528-2.1394677-0.0421162-2.8860888                c-0.0339985-0.7450829-0.1523285-1.2539158-0.3253746-1.6991863C16.4536228,4.9544201,16.2142754,4.5640392,15.825119,4.17488                c-0.3891582-0.3891544-0.7795401-0.6285017-1.2398443-0.8073888c-0.4452705-0.1730449-0.9541035-0.2913768-1.6991863-0.3253751                C12.1394663,3.0080519,11.9010897,3,10,3L10,3z" xmlns="http://www.w3.org/2000/svg"/><path class="sbis_ru-Footer__soc-svg__white" d="M10,6.4054055c-1.985239,0-3.5945945,1.6093535-3.5945945,3.5945945S8.014761,13.594593,10,13.594593                S13.594595,11.985239,13.594595,10S11.985239,6.4054055,10,6.4054055z M10,12.3333321                c-1.2886639,0-2.3333335-1.0446682-2.3333335-2.3333321S8.7113361,7.6666665,10,7.6666665S12.333333,8.7113352,12.333333,10                S11.2886648,12.3333321,10,12.3333321z" xmlns="http://www.w3.org/2000/svg"/><circle class="sbis_ru-Footer__soc-svg__white" cx="13.736618" cy="6.263382" r="0.8400002" xmlns="http://www.w3.org/2000/svg"/></g></svg>