<svg xmlns="http://www.w3.org/2000/svg" id="Layer_1" x="0" y="0" version="1.1" xml:space="preserve" viewBox="0 0 20 20">
  <path fill="#ee8208" d="M18 20H2a2 2 0 01-2-2V2a2 2 0 012-2h16a2 2 0 012 2v16a2 2 0 01-2 2z"/>
  <g id="XMLID_6_">
    <path id="XMLID_8_" d="M10 10.226a3.616 3.616 0 003.613-3.612C13.613 4.62 11.993 3 10 3S6.387 4.62 6.387 6.614A3.617 3.617 0 0010 10.226zm0-5.108c.825 0 1.496.67 1.496 1.496 0 .824-.671 1.495-1.496 1.495a1.498 1.498 0 01-1.496-1.495c0-.825.672-1.496 1.496-1.496z" class="st1"/>
    <path id="XMLID_7_" d="M11.462 13.173a6.76 6.76 0 002.098-.87 1.058 1.058 0 00-1.128-1.792c-1.48.931-3.385.93-4.864 0a1.058 1.058 0 10-1.128 1.793 6.77 6.77 0 002.098.869l-2.02 2.02a1.058 1.058 0 001.497 1.497L10 14.705l1.986 1.985a1.057 1.057 0 101.496-1.497l-2.02-2.02z" class="st1"/>
  </g>
</svg>
