<?xml version="1.0" encoding="utf-8"?>
<!-- Generator: Adobe Illustrator 23.1.0, SVG Export Plug-In . SVG Version: 6.00 Build 0)  -->
<svg version="1.1" id="Слой_1" xmlns="http://www.w3.org/2000/svg" xmlns:xlink="http://www.w3.org/1999/xlink" x="0px" y="0px"
	 viewBox="0 0 1170 472.3" style="enable-background:new 0 0 1170 472.3;" xml:space="preserve">
<style type="text/css">
	.st0{fill:none;stroke:#0055BB;stroke-width:2;stroke-linejoin:round;stroke-miterlimit:10;}
	.st1{fill:none;stroke:#0055BB;stroke-linejoin:round;stroke-miterlimit:10;}
	.st2{fill:#FFFFFF;stroke:#0055BB;stroke-width:2;}
	.st3{fill:none;stroke:#0055BB;stroke-width:2;}
	.st4{fill:none;stroke:#0055BB;}
	.st5{fill:none;stroke:#0055BB;stroke-width:2;stroke-linecap:round;stroke-miterlimit:10;}
	.st6{fill:#0055BB;}
	.st7{enable-background:new    ;}
	.st8{fill:#EAE60E;}
	.st9{fill:#63666A;}
	.st10{fill:none;stroke:#0055BB;stroke-linecap:round;}
	.st11{fill:none;stroke:#0055BB;stroke-width:2;stroke-linecap:round;}
	.st12{fill:none;stroke:#000000;stroke-linecap:round;}
	.st13{fill:none;}
	.st14{fill:none;stroke:#0055BB;stroke-width:1;stroke-miterlimit:4;}
	.st15{fill:none;stroke:#0055BB;stroke-miterlimit:10;}
	.st16{fill:none;stroke:#0055BB;stroke-width:2;stroke-miterlimit:10;}
	.st17{fill:#F2E7EB;}
</style>
<g>
	<line class="st0" x1="467.7" y1="427.8" x2="671.5" y2="427.8"/>
	<polygon class="st0" points="617.2,313.2 549,280.5 480.8,313.2 480.8,427.8 617.2,427.8 	"/>
	<polyline class="st0" points="603.6,401.6 603.6,335.1 494.5,335.1 494.5,427.8 603.6,427.8 	"/>
	<rect x="491.8" y="318.7" class="st0" width="114.5" height="16.4"/>
	<line class="st1" x1="497.2" y1="328.2" x2="502.7" y2="328.2"/>
	<line class="st1" x1="595.4" y1="328.2" x2="600.8" y2="328.2"/>
	<line class="st1" x1="505.4" y1="328.2" x2="508.1" y2="328.2"/>
	<line class="st1" x1="497.2" y1="344.6" x2="600.8" y2="344.6"/>
	<line class="st1" x1="497.2" y1="352.8" x2="600.8" y2="352.8"/>
	<circle class="st0" cx="549" cy="299.6" r="8.2"/>
	<line class="st1" x1="606.3" y1="399.1" x2="617.2" y2="399.1"/>
	<polygon class="st0" points="628.1,307.6 549,269.6 469.9,307.6 469.9,318.5 549,280.5 628.1,318.5 	"/>
	<line class="st1" x1="496.7" y1="442.8" x2="509.5" y2="429.9"/>
	<line class="st1" x1="495.8" y1="442.8" x2="509.5" y2="429.1"/>
	<line class="st1" x1="525.8" y1="442.8" x2="539.5" y2="429.1"/>
	<line class="st1" x1="555.8" y1="442.8" x2="569.5" y2="429.1"/>
	<line class="st1" x1="585.8" y1="442.8" x2="599.5" y2="429.1"/>
	<line class="st1" x1="615.8" y1="442.8" x2="629.5" y2="429.1"/>
	<line class="st1" x1="645.9" y1="442.8" x2="659.5" y2="429.1"/>
	<line class="st1" x1="490.4" y1="296.9" x2="490.4" y2="310.5"/>
	<line class="st1" x1="512.2" y1="286" x2="512.2" y2="299.6"/>
	<line class="st1" x1="534" y1="275.1" x2="534" y2="288.7"/>
	<line class="st1" x1="607.7" y1="296.9" x2="607.7" y2="310.5"/>
	<line class="st1" x1="585.8" y1="286" x2="585.8" y2="299.6"/>
	<line class="st1" x1="564" y1="275.1" x2="564" y2="288.7"/>
	<line class="st0" x1="497.5" y1="364.2" x2="601.1" y2="364.2"/>
	<line class="st1" x1="497.5" y1="361.1" x2="601.1" y2="361.1"/>
</g>
<g>
	<path class="st2" d="M509.2,402.6v-38.1c0-1.8,1.5-3.3,3.3-3.3h112.6c1.8,0,3.3,1.5,3.3,3.3v38.1H509.2L509.2,402.6z"/>
	<path class="st3" d="M633.4,417.5h53.8c1.4,0,2.5-1.1,2.5-2.5l0,0c0-1.4-1.1-2.5-2.5-2.5h-53.8"/>
	<path class="st4" d="M680.6,404.5c-1.7,0-3.3-1.5-3.3-3.3s1.7-3.3,3.3-3.3V404.5z"/>
	<path class="st3" d="M633.4,419.2v-3.3v-39.7c0-1.8,1.5-3.3,3.3-3.3h21c2,0,7.9,11.1,8.8,16.6h18.2c1.8,0,3.3,1.5,3.3,3.3v19.9"/>
	<path class="st4" d="M640.9,412.6v-33.9c0-0.9,0.7-1.7,1.7-1.7h11.6l5,13.2v22.4"/>
	<line class="st4" x1="683.9" y1="392.7" x2="683.9" y2="410.9"/>
	<circle class="st2" cx="671.5" cy="417.5" r="9.9"/>
	<circle class="st4" cx="671.5" cy="417.5" r="4.1"/>
	<polyline class="st4" points="661.6,377 657.4,377 662.4,390.2 668.2,390.2 	"/>
	<path class="st3" d="M628.5,417.5H511.2c-1.1,0-2-0.9-2-2v-7.9h119.2L628.5,417.5L628.5,417.5z"/>
	<circle class="st2" cx="613.5" cy="417.5" r="9.9"/>
	<circle class="st4" cx="613.5" cy="417.5" r="4.1"/>
	<circle class="st2" cx="588.7" cy="417.5" r="9.9"/>
	<circle class="st4" cx="588.7" cy="417.5" r="4.1"/>
	<circle class="st2" cx="549" cy="417.5" r="9.9"/>
	<circle class="st4" cx="549" cy="417.5" r="4.1"/>
	<circle class="st2" cx="524.1" cy="417.5" r="9.9"/>
	<circle class="st4" cx="524.1" cy="417.5" r="4.1"/>
	<line class="st4" x1="515" y1="402.6" x2="515" y2="407.6"/>
	<line class="st4" x1="523.3" y1="402.6" x2="523.3" y2="407.6"/>
	<line class="st4" x1="531.6" y1="402.6" x2="531.6" y2="407.6"/>
	<line class="st4" x1="539.9" y1="402.6" x2="539.9" y2="407.6"/>
	<line class="st4" x1="548.1" y1="402.6" x2="548.1" y2="407.6"/>
	<line class="st4" x1="556.4" y1="402.6" x2="556.4" y2="407.6"/>
	<line class="st4" x1="564.7" y1="402.6" x2="564.7" y2="407.6"/>
	<line class="st4" x1="573" y1="402.6" x2="573" y2="407.6"/>
	<line class="st4" x1="581.3" y1="402.6" x2="581.3" y2="407.6"/>
	<line class="st4" x1="589.5" y1="402.6" x2="589.5" y2="407.6"/>
	<line class="st4" x1="597.8" y1="402.6" x2="597.8" y2="407.6"/>
	<line class="st4" x1="606.1" y1="402.6" x2="606.1" y2="407.6"/>
	<line class="st4" x1="614.4" y1="402.6" x2="614.4" y2="407.6"/>
	<line class="st4" x1="622.7" y1="402.6" x2="622.7" y2="407.6"/>
	<rect x="644.2" y="393.5" class="st4" width="5" height="3.3"/>
	<line class="st4" x1="665.7" y1="393.5" x2="662.4" y2="396.8"/>
	<line class="st4" x1="669" y1="393.5" x2="665.7" y2="396.8"/>
	<line class="st4" x1="672.3" y1="393.5" x2="669" y2="396.8"/>
	<line class="st4" x1="675.7" y1="393.5" x2="672.3" y2="396.8"/>
	<line class="st4" x1="656.6" y1="390.2" x2="643.4" y2="390.2"/>
	<line class="st4" x1="637.6" y1="376.1" x2="637.6" y2="381.1"/>
	<line class="st4" x1="637.6" y1="382.8" x2="637.6" y2="387.7"/>
	<line class="st4" x1="637.6" y1="389.4" x2="637.6" y2="394.4"/>
</g>
<g>
	<g>
		<line class="st5" x1="582.1" y1="173.9" x2="582" y2="200.9"/>
	</g>
	<polygon class="st6" points="592.5,179.7 582.1,176 571.4,179 582.1,168.9 	"/>
</g>
<g>
	<g>
		<line class="st5" x1="582" y1="237.5" x2="582.1" y2="264.6"/>
	</g>
	<polygon class="st6" points="582.3,269.6 571.4,259.4 582.1,262.4 592.5,258.8 	"/>
</g>
<g>
	<g>
		<line class="st5" x1="1070.8" y1="137.4" x2="1070.7" y2="204.3"/>
	</g>
	<polygon class="st6" points="1081.3,143.2 1070.9,139.5 1060.2,142.5 1071.1,132.4 	"/>
</g>
<g>
	<g>
		<line class="st5" x1="722.2" y1="114.4" x2="958.4" y2="114.6"/>
	</g>
	<polygon class="st6" points="715.5,115 725,103.5 722.6,114.3 726.9,124.5 	"/>
</g>
<g>
	<g>
		<line class="st5" x1="237.1" y1="299.2" x2="445.2" y2="187.2"/>
	</g>
	<polygon class="st6" points="436.4,180.1 444.8,187.4 447.2,198.1 451,183.8 	"/>
</g>
<g>
	<g>
		<line class="st5" x1="426.9" y1="148" x2="218.9" y2="259.9"/>
	</g>
	<polygon class="st6" points="227.6,267.2 219.2,259.7 216.8,249 213,263.4 	"/>
</g>
<g class="st7">
	<path d="M538,457.6h-5.8v11.3h-1.5v-12.6h8.8v12.6H538V457.6z"/>
	<path d="M542.1,462.6c0-2.1,0.4-3.7,1.3-4.8s2.2-1.7,3.8-1.7c0.9,0,1.7,0.2,2.3,0.5s1.2,0.8,1.6,1.3c0.4,0.6,0.7,1.3,0.9,2.1
		s0.3,1.7,0.3,2.7c0,2.1-0.4,3.7-1.3,4.8s-2.2,1.7-3.8,1.7c-0.9,0-1.6-0.2-2.3-0.5c-0.6-0.3-1.2-0.8-1.6-1.3s-0.7-1.3-0.9-2.1
		C542.2,464.5,542.1,463.6,542.1,462.6z M543.6,462.6c0,0.7,0.1,1.4,0.2,2c0.1,0.6,0.4,1.2,0.6,1.6s0.7,0.9,1.1,1.1s1,0.4,1.6,0.4
		c1.1,0,2-0.4,2.6-1.3c0.6-0.8,1-2.2,1-3.9c0-0.7-0.1-1.3-0.2-2c-0.1-0.6-0.4-1.2-0.7-1.7c-0.3-0.5-0.7-0.8-1.1-1.1s-1-0.4-1.6-0.4
		c-1.1,0-2,0.4-2.6,1.3S543.6,460.8,543.6,462.6z"/>
	<path d="M563,468.4c-0.4,0.3-0.8,0.5-1.4,0.6c-0.6,0.1-1.1,0.2-1.8,0.2c-0.8,0-1.5-0.1-2.1-0.4s-1.2-0.7-1.7-1.2
		c-0.5-0.5-0.9-1.2-1.2-2s-0.4-1.8-0.4-2.9c0-1.2,0.2-2.2,0.5-3s0.7-1.5,1.3-2s1.1-0.9,1.8-1.1s1.3-0.4,2-0.4c0.7,0,1.3,0,1.8,0.1
		s0.8,0.2,1.2,0.3l-0.4,1.3c-0.6-0.3-1.4-0.4-2.5-0.4c-0.5,0-1,0.1-1.5,0.3s-0.9,0.5-1.3,0.9c-0.4,0.4-0.7,0.9-0.9,1.6
		c-0.2,0.7-0.3,1.5-0.3,2.4c0,0.9,0.1,1.6,0.3,2.3s0.5,1.2,0.9,1.6c0.4,0.4,0.8,0.8,1.3,1s1.1,0.3,1.7,0.3c0.5,0,1-0.1,1.4-0.2
		c0.4-0.1,0.7-0.2,1-0.4L563,468.4z"/>
	<path d="M573.3,457.6h-3.9v11.3h-1.5v-11.3H564v-1.3h9.3V457.6z"/>
	<path d="M581.2,465.4h-4.6l-1.3,3.5h-1.5l4.8-12.8h0.7l4.8,12.8h-1.6L581.2,465.4z M577,464.1h3.7l-1.4-3.8l-0.4-1.9h0l-0.4,1.9
		L577,464.1z"/>
	<path d="M593.3,459.2c0,0.3,0,0.6-0.1,0.9c-0.1,0.3-0.2,0.6-0.4,0.9s-0.4,0.5-0.7,0.6s-0.7,0.3-1.1,0.4v0.1c0.4,0.1,0.7,0.2,1,0.4
		s0.6,0.4,0.9,0.7s0.5,0.6,0.6,0.9s0.2,0.8,0.2,1.3c0,0.7-0.1,1.2-0.4,1.7s-0.6,0.9-1.1,1.2s-0.9,0.5-1.5,0.7
		c-0.6,0.1-1.1,0.2-1.7,0.2c-0.2,0-0.4,0-0.7,0s-0.6,0-0.9,0s-0.6,0-0.9-0.1s-0.6-0.1-0.8-0.1v-12.3c0.4-0.1,1-0.1,1.6-0.2
		s1.2-0.1,1.9-0.1c0.5,0,0.9,0,1.4,0.1c0.5,0.1,0.9,0.2,1.3,0.4c0.4,0.2,0.7,0.5,1,0.9S593.3,458.6,593.3,459.2z M588.1,461.7
		c0.2,0,0.4,0,0.7,0s0.5,0,0.7-0.1c0.3-0.1,0.6-0.2,0.8-0.3c0.3-0.1,0.5-0.2,0.7-0.4s0.4-0.4,0.5-0.7s0.2-0.5,0.2-0.8
		c0-0.4-0.1-0.7-0.2-0.9s-0.3-0.4-0.6-0.6c-0.3-0.2-0.5-0.3-0.9-0.3c-0.3-0.1-0.7-0.1-1-0.1c-0.4,0-0.8,0-1.1,0
		c-0.3,0-0.6,0-0.7,0.1v4H588.1z M589.1,467.8c0.4,0,0.8,0,1.1-0.1s0.7-0.2,1-0.4c0.3-0.2,0.5-0.4,0.7-0.7c0.2-0.3,0.2-0.6,0.2-1
		c0-0.5-0.1-0.9-0.3-1.3c-0.2-0.4-0.5-0.6-0.8-0.8c-0.3-0.2-0.7-0.3-1.1-0.3s-0.8-0.1-1.2-0.1h-1.6v4.7c0.1,0,0.2,0,0.4,0.1
		s0.3,0,0.5,0s0.4,0,0.6,0S589,467.8,589.1,467.8z"/>
	<path d="M596.2,468.9v-12.6h1.5v11.3h4.1v-11.3h1.5v11.3h4.1v-11.3h1.5v11.3h1.7v3.7h-1l-0.3-2.3H596.2z"/>
	<path d="M620.4,460.4l0.1-1.4h-0.1l-0.8,1.5l-6.1,8.5h-0.9v-12.6h1.5v8.6l-0.1,1.4h0.1l0.8-1.5l6.1-8.6h0.9v12.6h-1.5V460.4z"/>
	<path d="M627.2,463.1h-0.8v5.8h-1.5v-12.6h1.5v5.9l0.8-0.3l4.2-5.6h1.7l-4.2,5.4l-0.8,0.6l0.9,0.7l4.6,5.9h-1.9L627.2,463.1z"/>
</g>
<g class="st7">
	<path d="M1032.8,455.6c0.5-0.1,0.9-0.2,1.5-0.2s1-0.1,1.6-0.1c0.6,0,1.1,0.1,1.7,0.2c0.6,0.1,1.1,0.3,1.6,0.6s0.8,0.7,1.1,1.2
		s0.4,1.1,0.4,1.9c0,0.8-0.1,1.4-0.4,1.9s-0.6,1-1.1,1.3s-1,0.6-1.6,0.7c-0.6,0.1-1.2,0.2-1.8,0.2c-0.1,0-0.2,0-0.3,0
		c-0.1,0-0.3,0-0.4,0s-0.3,0-0.4,0c-0.1,0-0.2,0-0.3,0v4.8h-1.5V455.6z M1035.8,456.6c-0.3,0-0.6,0-0.9,0s-0.5,0-0.7,0.1v5.2
		c0.1,0,0.2,0,0.3,0c0.1,0,0.3,0,0.4,0s0.3,0,0.4,0c0.1,0,0.2,0,0.3,0c0.4,0,0.8,0,1.2-0.1c0.4-0.1,0.8-0.2,1.1-0.4
		c0.3-0.2,0.6-0.5,0.8-0.9c0.2-0.4,0.3-0.8,0.3-1.4c0-0.5-0.1-0.9-0.3-1.2s-0.4-0.6-0.7-0.8s-0.6-0.3-1-0.4
		C1036.6,456.7,1036.2,456.6,1035.8,456.6z"/>
	<path d="M1042.3,461.8c0-2.1,0.4-3.7,1.3-4.8c0.9-1.1,2.2-1.7,3.8-1.7c0.9,0,1.7,0.2,2.3,0.5c0.6,0.3,1.2,0.8,1.6,1.3
		c0.4,0.6,0.7,1.3,0.9,2.1c0.2,0.8,0.3,1.7,0.3,2.7c0,2.1-0.4,3.7-1.3,4.8c-0.9,1.1-2.2,1.7-3.8,1.7c-0.9,0-1.6-0.2-2.3-0.5
		c-0.6-0.3-1.2-0.8-1.6-1.3s-0.7-1.3-0.9-2.1C1042.4,463.6,1042.3,462.7,1042.3,461.8z M1043.9,461.8c0,0.7,0.1,1.4,0.2,2
		c0.1,0.6,0.3,1.2,0.6,1.6s0.7,0.9,1.1,1.1s1,0.4,1.6,0.4c1.1,0,2-0.4,2.6-1.3c0.6-0.8,1-2.2,1-3.9c0-0.7-0.1-1.3-0.2-2
		c-0.1-0.6-0.4-1.2-0.7-1.7c-0.3-0.5-0.7-0.8-1.1-1.1c-0.4-0.3-1-0.4-1.6-0.4c-1.1,0-2,0.4-2.6,1.3
		C1044.2,458.7,1043.9,460,1043.9,461.8z"/>
	<path d="M1056.1,462.1v-1.3h0.3c0.1,0,0.2,0,0.4,0c0.2,0,0.3,0,0.5,0c0.2,0,0.3,0,0.5,0s0.3,0,0.4,0c0.3-0.1,0.6-0.1,0.9-0.3
		c0.3-0.1,0.5-0.3,0.7-0.4c0.2-0.2,0.4-0.4,0.5-0.6c0.1-0.2,0.2-0.5,0.2-0.8c0-0.4-0.1-0.7-0.2-1c-0.1-0.3-0.3-0.5-0.5-0.6
		s-0.5-0.3-0.8-0.3c-0.3-0.1-0.6-0.1-1-0.1c-0.6,0-1.2,0-1.7,0.1c-0.5,0.1-0.8,0.2-1.1,0.3l-0.4-1.2c0.2-0.1,0.7-0.3,1.3-0.4
		c0.6-0.1,1.3-0.2,2.1-0.2c0.5,0,1,0.1,1.4,0.2s0.9,0.3,1.2,0.5s0.7,0.6,0.9,1s0.3,0.9,0.3,1.5c0,0.6-0.2,1.2-0.6,1.7
		c-0.4,0.5-1,0.9-1.8,1.2v0.1c0.8,0.1,1.5,0.4,2,1c0.5,0.5,0.7,1.2,0.7,2.1c0,0.7-0.1,1.3-0.4,1.8s-0.6,0.9-1.1,1.2
		c-0.4,0.3-0.9,0.6-1.5,0.7c-0.6,0.2-1.1,0.2-1.7,0.2c-0.8,0-1.4,0-2-0.1c-0.5-0.1-0.9-0.2-1.3-0.3l0.4-1.3c0.3,0.1,0.7,0.2,1.2,0.3
		c0.5,0.1,1.1,0.1,1.8,0.1c0.4,0,0.7-0.1,1.1-0.2s0.7-0.3,1-0.5c0.3-0.2,0.5-0.5,0.7-0.8c0.2-0.3,0.3-0.7,0.3-1.1
		c0-0.8-0.3-1.3-0.8-1.7c-0.5-0.4-1.2-0.6-2.1-0.6c-0.1,0-0.3,0-0.4,0c-0.1,0-0.3,0-0.4,0H1056.1z"/>
	<path d="M1072.4,462.3h-6v5.8h-1.5v-12.6h1.5v5.5h6v-5.5h1.5v12.6h-1.5V462.3z"/>
	<path d="M1084.7,459.5l0.1-1.4h-0.1l-0.8,1.5l-6.1,8.5h-0.9v-12.6h1.5v8.6l-0.1,1.4h0.1l0.8-1.5l6.1-8.6h0.9v12.6h-1.5V459.5z"/>
	<path d="M1099.6,470.4h-1l-0.3-2.3h-9v-12.6h1.5v11.3h5.7v-11.3h1.5v11.3h1.7V470.4z"/>
	<path d="M1107.6,464.6h-4.6l-1.3,3.5h-1.5l4.8-12.8h0.7l4.8,12.8h-1.6L1107.6,464.6z M1103.4,463.3h3.7l-1.4-3.8l-0.4-1.9h0
		l-0.4,1.9L1103.4,463.3z"/>
</g>
<g class="st7">
	<path d="M536.8,93l0.2-1.9h-0.1l-0.7,1.7l-3.3,5.7h-0.5l-3.5-5.7l-0.7-1.7h-0.1l0.3,1.9v8.5h-1.4V88.8h1.1l3.9,6.5l0.6,1.4h0
		l0.6-1.4l3.8-6.4h1.2v12.6h-1.5V93z"/>
	<path d="M547.3,97.9h-4.6l-1.3,3.5h-1.5l4.8-12.8h0.7l4.8,12.8h-1.6L547.3,97.9z M543.1,96.6h3.7l-1.4-3.8l-0.4-1.9h0l-0.4,1.9
		L543.1,96.6z"/>
	<path d="M551.8,89c0.5-0.1,0.9-0.2,1.5-0.2s1-0.1,1.6-0.1c0.6,0,1.1,0.1,1.7,0.2c0.6,0.1,1.1,0.3,1.6,0.6s0.8,0.7,1.1,1.2
		s0.4,1.1,0.4,1.9c0,0.8-0.1,1.4-0.4,1.9s-0.6,1-1.1,1.3s-1,0.6-1.6,0.7c-0.6,0.1-1.2,0.2-1.8,0.2c-0.1,0-0.2,0-0.3,0s-0.3,0-0.4,0
		s-0.3,0-0.4,0s-0.2,0-0.3,0v4.8h-1.5V89z M554.9,90c-0.3,0-0.6,0-0.9,0s-0.5,0-0.7,0.1v5.2c0.1,0,0.2,0,0.3,0s0.3,0,0.4,0
		s0.3,0,0.4,0s0.2,0,0.3,0c0.4,0,0.8,0,1.2-0.1c0.4-0.1,0.8-0.2,1.1-0.4c0.3-0.2,0.6-0.5,0.8-0.9c0.2-0.4,0.3-0.8,0.3-1.4
		c0-0.5-0.1-0.9-0.3-1.2s-0.4-0.6-0.7-0.8s-0.6-0.3-1-0.4S555.3,90,554.9,90z"/>
	<path d="M564.2,95.6h-0.8v5.8h-1.5V88.8h1.5v5.9l0.8-0.3l4.2-5.6h1.7l-4.2,5.4l-0.8,0.6l0.9,0.7l4.6,5.9h-1.9L564.2,95.6z"/>
	<path d="M580.6,92.9l0.1-1.4h-0.1l-0.8,1.5l-6.1,8.5h-0.9V88.8h1.5v8.6l-0.1,1.4h0.1l0.8-1.5l6.1-8.6h0.9v12.6h-1.5V92.9z"/>
	<path d="M585.1,89c0.5-0.1,0.9-0.2,1.5-0.2s1-0.1,1.6-0.1c0.6,0,1.1,0.1,1.7,0.2c0.6,0.1,1.1,0.3,1.6,0.6s0.8,0.7,1.1,1.2
		s0.4,1.1,0.4,1.9c0,0.8-0.1,1.4-0.4,1.9s-0.6,1-1.1,1.3s-1,0.6-1.6,0.7c-0.6,0.1-1.2,0.2-1.8,0.2c-0.1,0-0.2,0-0.3,0s-0.3,0-0.4,0
		s-0.3,0-0.4,0s-0.2,0-0.3,0v4.8h-1.5V89z M588.2,90c-0.3,0-0.6,0-0.9,0s-0.5,0-0.7,0.1v5.2c0.1,0,0.2,0,0.3,0s0.3,0,0.4,0
		s0.3,0,0.4,0s0.2,0,0.3,0c0.4,0,0.8,0,1.2-0.1c0.4-0.1,0.8-0.2,1.1-0.4c0.3-0.2,0.6-0.5,0.8-0.9c0.2-0.4,0.3-0.8,0.3-1.4
		c0-0.5-0.1-0.9-0.3-1.2s-0.4-0.6-0.7-0.8s-0.6-0.3-1-0.4S588.6,90,588.2,90z"/>
	<path d="M594.7,95.1c0-2.1,0.4-3.7,1.3-4.8s2.2-1.7,3.8-1.7c0.9,0,1.7,0.2,2.3,0.5s1.2,0.8,1.6,1.3c0.4,0.6,0.7,1.3,0.9,2.1
		s0.3,1.7,0.3,2.7c0,2.1-0.4,3.7-1.3,4.8s-2.2,1.7-3.8,1.7c-0.9,0-1.6-0.2-2.3-0.5c-0.6-0.3-1.2-0.8-1.6-1.3s-0.7-1.3-0.9-2.1
		C594.8,97,594.7,96.1,594.7,95.1z M596.3,95.1c0,0.7,0.1,1.4,0.2,2c0.1,0.6,0.3,1.2,0.6,1.6s0.7,0.9,1.1,1.1s1,0.4,1.6,0.4
		c1.1,0,2-0.4,2.6-1.3c0.6-0.8,1-2.2,1-3.9c0-0.7-0.1-1.3-0.2-2c-0.1-0.6-0.4-1.2-0.7-1.7c-0.3-0.5-0.7-0.8-1.1-1.1s-1-0.4-1.6-0.4
		c-1.1,0-2,0.4-2.6,1.3S596.3,93.4,596.3,95.1z"/>
	<path d="M615.1,91.7c0,0.3,0,0.6-0.1,0.9c-0.1,0.3-0.2,0.6-0.4,0.9s-0.4,0.5-0.7,0.6s-0.7,0.3-1.1,0.4v0.1c0.4,0.1,0.7,0.2,1,0.4
		s0.6,0.4,0.9,0.7s0.5,0.6,0.6,0.9s0.2,0.8,0.2,1.3c0,0.7-0.1,1.2-0.4,1.7s-0.6,0.9-1.1,1.2s-0.9,0.5-1.5,0.7
		c-0.6,0.1-1.1,0.2-1.7,0.2c-0.2,0-0.4,0-0.7,0s-0.6,0-0.9,0s-0.6,0-0.9-0.1s-0.6-0.1-0.8-0.1V89c0.4-0.1,1-0.1,1.6-0.2
		s1.2-0.1,1.9-0.1c0.5,0,0.9,0,1.4,0.1c0.5,0.1,0.9,0.2,1.3,0.4c0.4,0.2,0.7,0.5,1,0.9S615.1,91.1,615.1,91.7z M609.9,94.2
		c0.2,0,0.4,0,0.7,0s0.5,0,0.7-0.1c0.3-0.1,0.6-0.2,0.8-0.3c0.3-0.1,0.5-0.2,0.7-0.4s0.4-0.4,0.5-0.7s0.2-0.5,0.2-0.8
		c0-0.4-0.1-0.7-0.2-0.9s-0.4-0.4-0.6-0.6c-0.3-0.2-0.5-0.3-0.9-0.3c-0.3-0.1-0.7-0.1-1-0.1c-0.4,0-0.8,0-1.1,0
		c-0.3,0-0.6,0-0.7,0.1v4H609.9z M610.9,100.3c0.4,0,0.8,0,1.1-0.1s0.7-0.2,1-0.4c0.3-0.2,0.5-0.4,0.7-0.7c0.2-0.3,0.2-0.6,0.2-1
		c0-0.5-0.1-0.9-0.3-1.3c-0.2-0.4-0.5-0.6-0.8-0.8c-0.3-0.2-0.7-0.3-1.1-0.3s-0.8-0.1-1.2-0.1H609v4.7c0.1,0,0.2,0,0.4,0.1
		s0.3,0,0.5,0s0.4,0,0.6,0S610.8,100.3,610.9,100.3z"/>
	<path d="M620.4,95.6h-0.8v5.8H618V88.8h1.5v5.9l0.8-0.3l4.2-5.6h1.7l-4.2,5.4l-0.8,0.6l0.9,0.7l4.6,5.9H625L620.4,95.6z"/>
	<path d="M635,97.9h-4.6l-1.3,3.5h-1.5l4.8-12.8h0.7l4.8,12.8h-1.6L635,97.9z M630.8,96.6h3.7l-1.4-3.8l-0.4-1.9h0l-0.4,1.9
		L630.8,96.6z"/>
</g>
<g class="st7">
	<path d="M1037.5,100.9c-0.4,0.3-0.8,0.5-1.4,0.6c-0.6,0.1-1.1,0.2-1.8,0.2c-0.8,0-1.5-0.1-2.1-0.4c-0.7-0.3-1.2-0.7-1.7-1.2
		c-0.5-0.5-0.9-1.2-1.2-2s-0.4-1.8-0.4-2.9c0-1.2,0.2-2.2,0.5-3s0.7-1.5,1.3-2s1.1-0.9,1.8-1.1s1.3-0.4,2-0.4c0.7,0,1.3,0,1.8,0.1
		s0.8,0.2,1.2,0.3l-0.4,1.3c-0.6-0.3-1.4-0.4-2.5-0.4c-0.5,0-1,0.1-1.5,0.3s-0.9,0.5-1.3,0.9c-0.4,0.4-0.7,0.9-0.9,1.6
		c-0.2,0.7-0.3,1.5-0.3,2.4c0,0.9,0.1,1.6,0.3,2.3s0.5,1.2,0.9,1.6c0.4,0.4,0.8,0.8,1.3,1s1.1,0.3,1.7,0.3c0.5,0,1-0.1,1.4-0.2
		c0.4-0.1,0.7-0.2,1-0.4L1037.5,100.9z"/>
	<path d="M1039.8,88.8h6.8v1.3h-5.3v3.8c0.2,0,0.5-0.1,0.8-0.1s0.6-0.1,0.9-0.1c0.6,0,1.2,0.1,1.7,0.2c0.6,0.1,1,0.3,1.5,0.6
		s0.8,0.7,1,1.1s0.4,1.1,0.4,1.8c0,0.7-0.1,1.3-0.4,1.9s-0.6,0.9-1,1.3c-0.4,0.3-0.9,0.6-1.5,0.7c-0.6,0.2-1.1,0.2-1.8,0.2
		c-0.2,0-0.4,0-0.7,0s-0.5,0-0.8,0s-0.6,0-0.8-0.1s-0.5-0.1-0.7-0.1V88.8z M1043,100.3c0.4,0,0.7-0.1,1.1-0.2
		c0.3-0.1,0.7-0.3,0.9-0.5s0.5-0.5,0.6-0.8c0.1-0.3,0.2-0.7,0.2-1.1c0-0.6-0.1-1-0.3-1.3c-0.2-0.3-0.4-0.6-0.7-0.8
		c-0.3-0.2-0.6-0.3-1-0.4c-0.4-0.1-0.8-0.1-1.2-0.1c-0.1,0-0.2,0-0.4,0s-0.3,0-0.4,0c-0.1,0-0.3,0-0.4,0c-0.1,0-0.2,0-0.3,0v5
		c0.1,0,0.2,0,0.3,0.1s0.3,0,0.5,0c0.2,0,0.3,0,0.5,0C1042.7,100.3,1042.9,100.3,1043,100.3z"/>
	<path d="M1057.4,92.9l0.1-1.4h-0.1l-0.8,1.5l-6.1,8.5h-0.9V88.8h1.5v8.6l-0.1,1.4h0.1l0.8-1.5l6.1-8.6h0.9v12.6h-1.5V92.9z"/>
	<path d="M1070,100.9c-0.4,0.3-0.8,0.5-1.4,0.6c-0.6,0.1-1.1,0.2-1.8,0.2c-0.8,0-1.5-0.1-2.1-0.4c-0.7-0.3-1.2-0.7-1.7-1.2
		c-0.5-0.5-0.9-1.2-1.2-2s-0.4-1.8-0.4-2.9c0-1.2,0.2-2.2,0.5-3s0.7-1.5,1.3-2s1.1-0.9,1.8-1.1s1.3-0.4,2-0.4c0.7,0,1.3,0,1.8,0.1
		s0.8,0.2,1.2,0.3l-0.4,1.3c-0.6-0.3-1.4-0.4-2.5-0.4c-0.5,0-1,0.1-1.5,0.3s-0.9,0.5-1.3,0.9c-0.4,0.4-0.7,0.9-0.9,1.6
		c-0.2,0.7-0.3,1.5-0.3,2.4c0,0.9,0.1,1.6,0.3,2.3s0.5,1.2,0.9,1.6c0.4,0.4,0.8,0.8,1.3,1s1.1,0.3,1.7,0.3c0.5,0,1-0.1,1.4-0.2
		c0.4-0.1,0.7-0.2,1-0.4L1070,100.9z"/>
	<path d="M1076.5,95.1c0-2.1,0.4-3.7,1.3-4.8c0.9-1.1,2.2-1.7,3.8-1.7c0.9,0,1.7,0.2,2.3,0.5c0.6,0.3,1.2,0.8,1.6,1.3
		c0.4,0.6,0.7,1.3,0.9,2.1c0.2,0.8,0.3,1.7,0.3,2.7c0,2.1-0.4,3.7-1.3,4.8c-0.9,1.1-2.2,1.7-3.8,1.7c-0.9,0-1.6-0.2-2.3-0.5
		c-0.6-0.3-1.2-0.8-1.6-1.3s-0.7-1.3-0.9-2.1C1076.6,97,1076.5,96.1,1076.5,95.1z M1078.1,95.1c0,0.7,0.1,1.4,0.2,2
		c0.1,0.6,0.4,1.2,0.6,1.6s0.7,0.9,1.1,1.1s1,0.4,1.6,0.4c1.1,0,2-0.4,2.6-1.3c0.6-0.8,1-2.2,1-3.9c0-0.7-0.1-1.3-0.2-2
		c-0.1-0.6-0.4-1.2-0.7-1.7c-0.3-0.5-0.7-0.8-1.1-1.1c-0.4-0.3-1-0.4-1.6-0.4c-1.1,0-2,0.4-2.6,1.3
		C1078.4,92.1,1078.1,93.4,1078.1,95.1z"/>
	<path d="M1094.1,100c-0.2,0-0.4,0.1-0.7,0.1s-0.5,0-0.8,0c-0.6,0-1.1-0.1-1.6-0.3s-0.9-0.5-1.3-0.9c-0.4-0.4-0.7-0.9-0.9-1.6
		s-0.3-1.4-0.3-2.2c0-0.8,0.1-1.5,0.3-2.2c0.2-0.6,0.5-1.2,0.9-1.6c0.4-0.4,0.9-0.8,1.4-1s1.1-0.4,1.8-0.4c0.2,0,0.3,0,0.6,0
		s0.4,0,0.6,0.1v-1.6h1.5v1.6c0.2-0.1,0.5-0.1,0.8-0.1s0.5,0,0.7,0c0.6,0,1.1,0.1,1.6,0.3s0.9,0.5,1.3,0.9c0.4,0.4,0.7,0.9,0.9,1.6
		c0.2,0.6,0.3,1.4,0.3,2.2c0,0.8-0.1,1.6-0.3,2.2c-0.2,0.6-0.5,1.2-0.9,1.6c-0.4,0.4-0.9,0.8-1.4,1s-1.1,0.3-1.7,0.3
		c-0.1,0-0.3,0-0.6,0s-0.5,0-0.6-0.1v1.8h-1.5V100z M1092.9,98.9c0.1,0,0.1,0,0.2,0c0.1,0,0.2,0,0.3,0c0.1,0,0.2,0,0.3,0
		s0.2,0,0.3-0.1v-7.5c-0.1,0-0.3,0-0.5-0.1c-0.2,0-0.4,0-0.6,0c-0.4,0-0.8,0.1-1.1,0.2c-0.4,0.2-0.7,0.4-0.9,0.7
		c-0.3,0.3-0.5,0.7-0.6,1.2c-0.1,0.5-0.2,1.1-0.2,1.7c0,0.6,0.1,1.1,0.2,1.6c0.1,0.5,0.3,0.9,0.6,1.2c0.2,0.3,0.5,0.6,0.9,0.7
		C1092.1,98.8,1092.4,98.9,1092.9,98.9z M1096.8,91.2c-0.2,0-0.4,0-0.7,0s-0.5,0-0.6,0.1v7.5c0.1,0,0.3,0,0.5,0s0.4,0,0.6,0
		c0.4,0,0.8-0.1,1.1-0.2c0.4-0.2,0.7-0.4,0.9-0.7c0.3-0.3,0.5-0.7,0.6-1.2c0.2-0.5,0.2-1.1,0.2-1.7c0-0.6-0.1-1.1-0.2-1.5
		c-0.1-0.5-0.3-0.9-0.5-1.2s-0.5-0.6-0.9-0.8C1097.6,91.3,1097.2,91.2,1096.8,91.2z"/>
	<path d="M1113.4,103.7h-1l-0.3-2.3h-8.8l-0.3,2.3h-1v-3.7h1.3c0.1-0.1,0.2-0.4,0.4-0.9s0.4-1.2,0.6-2.1c0.2-0.9,0.4-2,0.5-3.4
		c0.2-1.4,0.2-3,0.2-4.9h6.7v11.3h1.6V103.7z M1110.2,100.1v-9.9h-3.8c0,1.3-0.1,2.5-0.2,3.6c-0.1,1.1-0.2,2-0.4,2.8
		c-0.1,0.8-0.3,1.5-0.5,2.1c-0.2,0.6-0.4,1.1-0.6,1.5H1110.2z"/>
</g>
<g class="st7">
	<path d="M570,72.1c-0.4,0.3-0.8,0.5-1.4,0.6c-0.6,0.1-1.1,0.2-1.8,0.2c-0.8,0-1.5-0.1-2.1-0.4s-1.2-0.7-1.7-1.2
		c-0.5-0.5-0.9-1.2-1.2-2s-0.4-1.8-0.4-2.9c0-1.2,0.2-2.2,0.5-3s0.7-1.5,1.3-2s1.1-0.9,1.8-1.1s1.3-0.4,2-0.4c0.7,0,1.3,0,1.8,0.1
		s0.8,0.2,1.2,0.3l-0.4,1.3c-0.6-0.3-1.4-0.4-2.5-0.4c-0.5,0-1,0.1-1.5,0.3s-0.9,0.5-1.3,0.9c-0.4,0.4-0.7,0.9-0.9,1.6
		c-0.2,0.7-0.3,1.5-0.3,2.4c0,0.9,0.1,1.6,0.3,2.3s0.5,1.2,0.9,1.6c0.4,0.4,0.8,0.8,1.3,1s1.1,0.3,1.7,0.3c0.5,0,1-0.1,1.4-0.2
		c0.4-0.1,0.7-0.2,1-0.4L570,72.1z"/>
	<path d="M572.2,60h6.8v1.3h-5.3v3.8c0.2,0,0.5-0.1,0.8-0.1s0.6-0.1,0.9-0.1c0.6,0,1.2,0.1,1.7,0.2c0.6,0.1,1,0.3,1.5,0.6
		s0.8,0.7,1,1.1s0.4,1.1,0.4,1.8c0,0.7-0.1,1.3-0.4,1.9s-0.6,0.9-1,1.3c-0.4,0.3-0.9,0.6-1.5,0.7c-0.6,0.2-1.1,0.2-1.8,0.2
		c-0.2,0-0.4,0-0.7,0s-0.5,0-0.8,0s-0.6,0-0.8-0.1s-0.5-0.1-0.7-0.1V60z M575.5,71.5c0.4,0,0.7-0.1,1.1-0.2c0.3-0.1,0.7-0.3,0.9-0.5
		s0.5-0.5,0.6-0.8s0.2-0.7,0.2-1.1c0-0.6-0.1-1-0.3-1.3c-0.2-0.3-0.4-0.6-0.7-0.8c-0.3-0.2-0.6-0.3-1-0.4c-0.4-0.1-0.8-0.1-1.2-0.1
		c-0.1,0-0.2,0-0.4,0s-0.3,0-0.4,0s-0.3,0-0.4,0s-0.2,0-0.3,0v5c0.1,0,0.2,0,0.3,0.1s0.3,0,0.5,0s0.3,0,0.5,0S575.3,71.5,575.5,71.5
		z"/>
	<path d="M589.8,64.1l0.1-1.4h-0.1l-0.8,1.5l-6.1,8.5h-0.9V60h1.5v8.6l-0.1,1.4h0.1l0.8-1.5l6.1-8.6h0.9v12.6h-1.5V64.1z"/>
	<path d="M602.4,72.1c-0.4,0.3-0.8,0.5-1.4,0.6c-0.6,0.1-1.1,0.2-1.8,0.2c-0.8,0-1.5-0.1-2.1-0.4s-1.2-0.7-1.7-1.2
		c-0.5-0.5-0.9-1.2-1.2-2s-0.4-1.8-0.4-2.9c0-1.2,0.2-2.2,0.5-3s0.7-1.5,1.3-2s1.1-0.9,1.8-1.1s1.3-0.4,2-0.4c0.7,0,1.3,0,1.8,0.1
		s0.8,0.2,1.2,0.3l-0.4,1.3c-0.6-0.3-1.4-0.4-2.5-0.4c-0.5,0-1,0.1-1.5,0.3s-0.9,0.5-1.3,0.9c-0.4,0.4-0.7,0.9-0.9,1.6
		c-0.2,0.7-0.3,1.5-0.3,2.4c0,0.9,0.1,1.6,0.3,2.3s0.5,1.2,0.9,1.6c0.4,0.4,0.8,0.8,1.3,1s1.1,0.3,1.7,0.3c0.5,0,1-0.1,1.4-0.2
		c0.4-0.1,0.7-0.2,1-0.4L602.4,72.1z"/>
</g>
<g class="st7">
	<path d="M531.8,218.5h-0.8v5.8h-1.5v-12.6h1.5v5.9l0.8-0.3l4.2-5.6h1.7l-4.2,5.4l-0.8,0.6l0.9,0.7l4.6,5.9h-1.9L531.8,218.5z"/>
	<path d="M539.8,219.9c0-1.5,0.3-2.7,1-3.5s1.7-1.2,2.9-1.2c0.7,0,1.3,0.1,1.8,0.3s0.9,0.5,1.2,1s0.6,0.9,0.7,1.5s0.2,1.2,0.2,1.9
		c0,1.5-0.3,2.7-1,3.5c-0.7,0.8-1.7,1.2-2.9,1.2c-0.7,0-1.3-0.1-1.8-0.3s-0.9-0.5-1.2-1s-0.6-0.9-0.7-1.5S539.8,220.6,539.8,219.9z
		 M541.2,219.9c0,0.5,0,0.9,0.1,1.3s0.2,0.8,0.4,1.1s0.4,0.6,0.8,0.8c0.3,0.2,0.7,0.3,1.1,0.3c1.6,0,2.4-1.1,2.4-3.5
		c0-0.5,0-0.9-0.1-1.3s-0.2-0.8-0.4-1.1s-0.4-0.6-0.8-0.7c-0.3-0.2-0.7-0.3-1.1-0.3C542.1,216.4,541.2,217.6,541.2,219.9z"/>
	<path d="M557.9,226.7h-1l-0.3-2.3h-6.8l-0.3,2.3h-1v-3.5h1.1c0.1-0.1,0.2-0.4,0.4-0.7c0.2-0.3,0.3-0.8,0.5-1.4s0.3-1.4,0.4-2.3
		s0.2-2,0.2-3.3h5.4v7.7h1.3V226.7z M555.1,223.1v-6.5h-2.7c0,0.5-0.1,1.1-0.1,1.6c-0.1,0.6-0.1,1.2-0.2,1.8s-0.2,1.2-0.4,1.7
		s-0.3,1-0.5,1.4H555.1z"/>
	<path d="M561.1,218.8c0.3,0,0.6-0.1,0.8-0.1s0.5,0,0.8,0c0.6,0,1.1,0.1,1.5,0.2c0.4,0.1,0.8,0.3,1,0.6s0.4,0.5,0.5,0.9
		s0.1,0.7,0.1,1.1c0,1.1-0.3,1.9-0.9,2.4s-1.6,0.7-2.9,0.7c-0.8,0-1.6,0-2.4-0.1v-9h1.4V218.8z M561.1,223.1
		c0.4,0.1,0.9,0.1,1.3,0.1c0.8,0,1.3-0.1,1.6-0.4s0.4-0.7,0.4-1.3c0-0.5-0.1-0.9-0.4-1.2s-0.8-0.5-1.5-0.5c-0.2,0-0.4,0-0.7,0
		s-0.5,0-0.7,0.1V223.1z M567.3,215.4h1.4v9h-1.4V215.4z"/>
	<path d="M582,219.1l0.1-1.1H582l-0.7,1.2l-4.1,5.3h-0.8v-9h1.4v5.5l-0.1,1.1h0.1l0.7-1.1l4.1-5.4h0.9v9H582V219.1z"/>
	<path d="M587,220.4v-1.2h1.3c0.2,0,0.4,0,0.6-0.1s0.4-0.2,0.6-0.3c0.2-0.1,0.3-0.3,0.4-0.5s0.2-0.4,0.2-0.6c0-0.5-0.2-0.8-0.5-1
		s-0.8-0.3-1.5-0.3c-0.5,0-0.9,0.1-1.3,0.2s-0.7,0.3-0.9,0.4l-0.4-1.1c0.4-0.2,0.8-0.4,1.3-0.5c0.5-0.2,1.1-0.2,1.7-0.2
		c2,0,3,0.7,3,2.2c0,0.4-0.1,0.8-0.4,1.2s-0.7,0.7-1.2,0.9v0.1c0.7,0.1,1.2,0.4,1.5,0.8s0.4,0.9,0.4,1.5c0,0.4-0.1,0.7-0.2,1.1
		s-0.4,0.6-0.7,0.8s-0.7,0.4-1.2,0.6c-0.5,0.1-1,0.2-1.6,0.2c-0.6,0-1.1-0.1-1.5-0.2s-0.8-0.2-1.1-0.4l0.4-1.2
		c0.3,0.2,0.6,0.3,1,0.4c0.4,0.1,0.8,0.1,1.3,0.1c0.7,0,1.3-0.1,1.7-0.4s0.6-0.6,0.6-1.2c0-0.4-0.2-0.8-0.5-1s-1-0.4-1.8-0.4H587z"
		/>
	<path d="M602.6,218.4l0.5,1.6h0.1l0.4-1.7l2.4-6.6h1.5l-3.2,8.2c-0.3,0.9-0.6,1.6-0.9,2.1s-0.5,1-0.7,1.4c-0.3,0.4-0.5,0.6-0.8,0.8
		c-0.3,0.2-0.6,0.2-1.1,0.2c-0.4,0-0.7,0-0.9-0.1s-0.5-0.2-0.7-0.3l0.5-1.2c0.2,0.1,0.5,0.2,0.7,0.3c0.2,0,0.4,0.1,0.6,0.1
		c0.3,0,0.6-0.2,0.8-0.5c0.2-0.3,0.4-0.9,0.6-1.5l-4.7-9.3h1.7L602.6,218.4z"/>
	<path d="M616.3,213.1h-5.8v11.3H609v-12.6h8.8v12.6h-1.5V213.1z"/>
	<path d="M630.9,226.7h-1l-0.3-2.3h-8.8l-0.3,2.3h-1V223h1.3c0.1-0.1,0.2-0.4,0.4-0.9s0.4-1.2,0.6-2.1c0.2-0.9,0.4-2,0.5-3.4
		c0.2-1.4,0.2-3,0.2-4.9h6.7V223h1.6V226.7z M627.7,223v-9.9h-3.8c0,1.3-0.1,2.5-0.2,3.6s-0.2,2-0.4,2.8s-0.3,1.5-0.5,2.1
		c-0.2,0.6-0.4,1.1-0.6,1.5H627.7z"/>
</g>
<g>
	<g>
		<line class="st5" x1="1071.5" y1="248.9" x2="1071.6" y2="276"/>
	</g>
</g>
<g class="st7">
	<path d="M1059.4,219.3v4.2c0,1.6,0.7,2.5,2.2,2.5c0.6,0,1.1-0.1,1.6-0.2c0.5-0.1,0.9-0.3,1.2-0.6v-5.8h1.5v12.6h-1.5v-5.4
		c-0.3,0.2-0.7,0.4-1.3,0.5s-1.1,0.3-1.8,0.3c-0.5,0-1-0.1-1.4-0.2c-0.4-0.1-0.8-0.3-1.1-0.6s-0.5-0.6-0.7-1.1s-0.3-1-0.3-1.7v-4.4
		H1059.4z"/>
	<path d="M1075.4,231.2c-0.4,0.3-0.8,0.5-1.4,0.7s-1.1,0.3-1.7,0.3c-0.7,0-1.3-0.1-1.8-0.3s-0.9-0.5-1.2-1s-0.6-0.9-0.7-1.5
		s-0.2-1.2-0.2-1.9c0-1.5,0.3-2.7,1-3.5c0.7-0.8,1.7-1.2,2.9-1.2c0.4,0,0.8,0,1.2,0.1c0.4,0.1,0.8,0.3,1.1,0.5s0.6,0.6,0.8,1.1
		s0.3,1.1,0.3,1.8c0,0.4,0,0.8-0.1,1.3h-5.8c0,0.5,0.1,1,0.2,1.4s0.3,0.8,0.5,1c0.2,0.3,0.5,0.5,0.9,0.6s0.8,0.2,1.3,0.2
		c0.4,0,0.8-0.1,1.2-0.2s0.7-0.3,0.9-0.5L1075.4,231.2z M1072.3,224c-0.7,0-1.3,0.2-1.7,0.6c-0.4,0.4-0.7,1-0.8,1.9h4.5
		c0-0.9-0.2-1.6-0.5-1.9C1073.5,224.2,1073,224,1072.3,224z"/>
	<path d="M1080.3,227.9h-0.8v4.1h-1.4v-9h1.4v4.1l0.8-0.3l2.9-3.8h1.6l-2.8,3.6l-0.8,0.6l0.9,0.7l3,4.1h-1.8L1080.3,227.9z"/>
</g>
<g class="st7">
	<path d="M758.2,95.6h-0.8v5.8h-1.5V88.8h1.5v5.9l0.8-0.3l4.2-5.6h1.7l-4.2,5.4l-0.8,0.6l0.9,0.7l4.6,5.9h-1.9L758.2,95.6z"/>
	<path d="M766.2,96.9c0-1.5,0.3-2.7,1-3.5s1.7-1.2,2.9-1.2c0.7,0,1.3,0.1,1.8,0.3s0.9,0.5,1.2,1s0.6,0.9,0.7,1.5s0.2,1.2,0.2,1.9
		c0,1.5-0.3,2.7-1,3.5c-0.7,0.8-1.7,1.2-2.9,1.2c-0.7,0-1.3-0.1-1.8-0.3s-0.9-0.5-1.2-1s-0.6-0.9-0.7-1.5S766.2,97.6,766.2,96.9z
		 M767.7,96.9c0,0.5,0,0.9,0.1,1.3s0.2,0.8,0.4,1.1s0.4,0.6,0.8,0.8c0.3,0.2,0.7,0.3,1.1,0.3c1.6,0,2.4-1.1,2.4-3.5
		c0-0.5,0-0.9-0.1-1.3s-0.2-0.8-0.4-1.1s-0.4-0.6-0.8-0.7c-0.3-0.2-0.7-0.3-1.1-0.3C768.5,93.5,767.7,94.6,767.7,96.9z"/>
	<path d="M784.3,103.7h-1l-0.3-2.3h-6.8l-0.3,2.3h-1v-3.5h1.1c0.1-0.1,0.2-0.4,0.4-0.7c0.2-0.3,0.3-0.8,0.5-1.4s0.3-1.4,0.4-2.3
		s0.2-2,0.2-3.3h5.4v7.7h1.3V103.7z M781.6,100.2v-6.5h-2.7c0,0.5-0.1,1.1-0.1,1.6c-0.1,0.6-0.1,1.2-0.2,1.8s-0.2,1.2-0.4,1.7
		s-0.3,1-0.5,1.4H781.6z"/>
	<path d="M787.6,95.9c0.3,0,0.6-0.1,0.8-0.1s0.5,0,0.8,0c0.6,0,1.1,0.1,1.5,0.2c0.4,0.1,0.8,0.3,1,0.6s0.4,0.5,0.5,0.9
		s0.1,0.7,0.1,1.1c0,1.1-0.3,1.9-0.9,2.4s-1.6,0.7-2.9,0.7c-0.8,0-1.6,0-2.4-0.1v-9h1.4V95.9z M787.6,100.2c0.4,0.1,0.9,0.1,1.3,0.1
		c0.8,0,1.3-0.1,1.6-0.4s0.4-0.7,0.4-1.3c0-0.5-0.1-0.9-0.4-1.2s-0.8-0.5-1.5-0.5c-0.2,0-0.4,0-0.7,0s-0.5,0-0.7,0.1V100.2z
		 M793.8,92.4h1.4v9h-1.4V92.4z"/>
	<path d="M810.8,103.7h-1l-0.3-2.3h-6.8l-0.3,2.3h-1v-3.5h1.1c0.1-0.1,0.2-0.4,0.4-0.7c0.2-0.3,0.3-0.8,0.5-1.4s0.3-1.4,0.4-2.3
		s0.2-2,0.2-3.3h5.4v7.7h1.3V103.7z M808,100.2v-6.5h-2.7c0,0.5-0.1,1.1-0.1,1.6c-0.1,0.6-0.1,1.2-0.2,1.8s-0.2,1.2-0.4,1.7
		s-0.3,1-0.5,1.4H808z"/>
	<path d="M817.4,93.7h-2.6c0,0.5-0.1,1-0.1,1.6c0,0.6-0.1,1.2-0.2,1.8s-0.2,1.1-0.3,1.7s-0.3,1-0.5,1.4c-0.2,0.4-0.4,0.7-0.7,1
		s-0.6,0.4-1,0.4c-0.2,0-0.4,0-0.6,0s-0.3-0.1-0.4-0.1l0.2-1.2c0.1,0,0.3,0.1,0.5,0.1c0.2,0,0.5-0.1,0.6-0.3s0.4-0.6,0.5-1.2
		s0.3-1.4,0.4-2.4c0.1-1,0.2-2.3,0.2-3.9h5.4v9h-1.4V93.7z"/>
	<path d="M826.1,97.7l-1.4,0.2l-2.4,3.5h-1.7l2.2-3.1l0.7-0.7c-0.6-0.1-1.2-0.3-1.6-0.8s-0.7-1-0.7-1.7c0-0.5,0.1-1,0.3-1.4
		s0.5-0.7,0.8-1s0.8-0.4,1.2-0.5c0.5-0.1,1-0.2,1.6-0.2c0.4,0,0.9,0,1.2,0.1c0.4,0.1,0.8,0.1,1.1,0.2v8.9h-1.4V97.7z M826.1,93.6
		c-0.2-0.1-0.3-0.1-0.5-0.1s-0.4,0-0.5,0c-0.8,0-1.4,0.1-1.8,0.4s-0.6,0.7-0.6,1.3c0,0.5,0.2,1,0.6,1.3s1,0.4,1.7,0.4c0,0,0,0,0.1,0
		s0.1,0,0.1,0s0.2,0,0.3,0s0.3,0,0.6,0V93.6z"/>
	<path d="M841.1,100.8c-0.4,0.3-0.8,0.5-1.3,0.6s-1,0.2-1.5,0.2c-0.7,0-1.3-0.1-1.8-0.3s-0.9-0.5-1.2-1s-0.5-0.9-0.7-1.5
		s-0.2-1.2-0.2-1.9c0-1.5,0.3-2.7,1-3.5s1.6-1.2,2.9-1.2c0.6,0,1.1,0,1.5,0.1c0.4,0.1,0.8,0.2,1.1,0.4l-0.4,1.2
		c-0.3-0.2-0.6-0.3-0.9-0.4s-0.7-0.1-1.1-0.1c-1.7,0-2.6,1.2-2.6,3.5c0,0.5,0,0.9,0.1,1.3s0.2,0.8,0.5,1.1s0.5,0.6,0.8,0.8
		c0.3,0.2,0.8,0.3,1.3,0.3c0.4,0,0.8-0.1,1.2-0.2s0.6-0.3,0.8-0.5L841.1,100.8z"/>
	<path d="M848.5,93.7h-4v7.7h-1.4v-9h6.9v9h-1.4V93.7z"/>
	<path d="M858.3,96.1l0.1-1.1h-0.1l-0.7,1.2l-4.1,5.3h-0.8v-9h1.4v5.5l-0.1,1.1h0.1l0.7-1.1l4.1-5.4h0.9v9h-1.4V96.1z"/>
	<path d="M868.7,100.8c-0.4,0.3-0.8,0.5-1.3,0.6s-1,0.2-1.5,0.2c-0.7,0-1.3-0.1-1.8-0.3s-0.9-0.5-1.2-1s-0.5-0.9-0.7-1.5
		s-0.2-1.2-0.2-1.9c0-1.5,0.3-2.7,1-3.5s1.6-1.2,2.9-1.2c0.6,0,1.1,0,1.5,0.1c0.4,0.1,0.8,0.2,1.1,0.4l-0.4,1.2
		c-0.3-0.2-0.6-0.3-0.9-0.4s-0.7-0.1-1.1-0.1c-1.7,0-2.6,1.2-2.6,3.5c0,0.5,0,0.9,0.1,1.3s0.2,0.8,0.5,1.1s0.5,0.6,0.8,0.8
		c0.3,0.2,0.8,0.3,1.3,0.3c0.4,0,0.8-0.1,1.2-0.2s0.6-0.3,0.8-0.5L868.7,100.8z"/>
	<path d="M870.5,93.1c0.5-0.3,1-0.5,1.6-0.6c0.6-0.1,1.2-0.2,1.9-0.2c0.6,0,1.1,0.1,1.5,0.3c0.4,0.2,0.7,0.4,0.9,0.7
		s0.3,0.6,0.4,0.9c0.1,0.3,0.1,0.6,0.1,1c0,0.7,0,1.4-0.1,2.1c0,0.7-0.1,1.3-0.1,1.9c0,0.4,0,0.9,0.1,1.3c0,0.4,0.1,0.8,0.2,1.1H876
		l-0.4-1.3h-0.1c-0.1,0.2-0.2,0.3-0.4,0.5s-0.4,0.3-0.6,0.4c-0.2,0.1-0.5,0.2-0.8,0.3s-0.6,0.1-1,0.1c-0.4,0-0.7-0.1-1.1-0.2
		c-0.3-0.1-0.6-0.3-0.9-0.5c-0.2-0.2-0.4-0.5-0.6-0.8c-0.1-0.3-0.2-0.7-0.2-1.1c0-0.5,0.1-1,0.3-1.3s0.5-0.6,0.9-0.8
		s0.9-0.4,1.4-0.5s1.1-0.1,1.8-0.1c0.2,0,0.3,0,0.5,0s0.3,0,0.5,0c0-0.4,0.1-0.7,0.1-1c0-0.7-0.1-1.1-0.4-1.4s-0.7-0.4-1.4-0.4
		c-0.2,0-0.4,0-0.7,0s-0.5,0.1-0.7,0.1c-0.2,0.1-0.5,0.1-0.7,0.2s-0.4,0.2-0.6,0.3L870.5,93.1z M873.1,100.3c0.3,0,0.6,0,0.9-0.1
		s0.5-0.2,0.7-0.3c0.2-0.1,0.3-0.3,0.5-0.5c0.1-0.2,0.2-0.3,0.3-0.5v-1.5c-0.2,0-0.3,0-0.5,0s-0.3,0-0.5,0c-0.4,0-0.7,0-1.1,0.1
		s-0.7,0.1-0.9,0.2c-0.3,0.1-0.5,0.3-0.6,0.5s-0.2,0.4-0.2,0.7c0,0.4,0.1,0.8,0.4,1S872.6,100.3,873.1,100.3z"/>
	<path d="M885.1,97.4H881v4h-1.4v-9h1.4v3.8h4.1v-3.8h1.4v9h-1.4V97.4z"/>
	<path d="M894.9,96.1L895,95h-0.1l-0.7,1.2l-4.1,5.3h-0.8v-9h1.4v5.5l-0.1,1.1h0.1l0.7-1.1l4.1-5.4h0.9v9h-1.4V96.1z"/>
	<path d="M903.6,97.7l-1.4,0.2l-2.4,3.5h-1.7l2.2-3.1l0.7-0.7c-0.6-0.1-1.2-0.3-1.6-0.8s-0.7-1-0.7-1.7c0-0.5,0.1-1,0.3-1.4
		s0.5-0.7,0.8-1s0.8-0.4,1.2-0.5c0.5-0.1,1-0.2,1.6-0.2c0.4,0,0.9,0,1.2,0.1c0.4,0.1,0.8,0.1,1.1,0.2v8.9h-1.4V97.7z M903.6,93.6
		c-0.2-0.1-0.3-0.1-0.5-0.1s-0.4,0-0.5,0c-0.8,0-1.4,0.1-1.8,0.4s-0.6,0.7-0.6,1.3c0,0.5,0.2,1,0.6,1.3s1,0.4,1.7,0.4c0,0,0,0,0.1,0
		s0.1,0,0.1,0s0.2,0,0.3,0s0.3,0,0.6,0V93.6z"/>
</g>
<g class="st7">
	<path d="M804.7,197.6l-0.7-0.4l-2.8,5.1l-1.3-0.7l6-11.1l1.3,0.7l-2.8,5.2l0.8,0.2l6.4-2.9l1.5,0.8l-6.3,2.8l-0.9,0.2l0.5,1.1
		l1.3,7.4l-1.7-0.9L804.7,197.6z"/>
	<path d="M811.1,202.6c0.7-1.3,1.6-2.2,2.6-2.6c1-0.4,2-0.3,3.2,0.3c0.6,0.3,1.1,0.7,1.4,1.1c0.3,0.4,0.5,0.9,0.6,1.4
		c0.1,0.5,0.1,1.1-0.1,1.7s-0.4,1.2-0.7,1.8c-0.7,1.3-1.6,2.2-2.6,2.6c-1,0.4-2,0.3-3.1-0.3c-0.6-0.3-1.1-0.7-1.4-1.1
		c-0.3-0.4-0.5-0.9-0.6-1.4c-0.1-0.5-0.1-1.1,0.1-1.7C810.5,203.8,810.8,203.2,811.1,202.6z M812.4,203.3c-0.2,0.4-0.4,0.8-0.5,1.2
		c-0.1,0.4-0.2,0.8-0.1,1.2c0,0.4,0.1,0.7,0.3,1c0.2,0.3,0.5,0.6,0.9,0.8c1.4,0.8,2.7,0.2,3.8-1.9c0.2-0.4,0.4-0.8,0.5-1.2
		c0.1-0.4,0.2-0.8,0.2-1.2s-0.1-0.7-0.3-1c-0.2-0.3-0.5-0.6-0.9-0.8C814.8,200.7,813.5,201.3,812.4,203.3z"/>
	<path d="M823.8,217.2l-0.9-0.5l0.9-2.1l-6-3.2l-1.3,1.9l-0.9-0.5l1.7-3.1l0.9,0.5c0.1-0.1,0.4-0.2,0.7-0.4c0.3-0.2,0.7-0.6,1.1-1
		c0.4-0.5,0.9-1.1,1.4-1.8c0.5-0.8,1.1-1.7,1.7-2.8l4.8,2.6l-3.7,6.8l1.2,0.6L823.8,217.2z M823.1,212.8l3.1-5.7l-2.4-1.3
		c-0.3,0.4-0.6,0.9-0.9,1.4c-0.3,0.5-0.7,1-1.1,1.5c-0.4,0.5-0.8,0.9-1.1,1.3c-0.4,0.4-0.8,0.7-1.1,0.9L823.1,212.8z"/>
	<path d="M830.4,211.8c0.3,0.1,0.5,0.2,0.8,0.3s0.5,0.2,0.7,0.3c0.5,0.3,1,0.6,1.3,0.9c0.3,0.3,0.5,0.6,0.6,1c0.1,0.3,0.1,0.7,0.1,1
		c-0.1,0.3-0.2,0.7-0.4,1c-0.5,1-1.2,1.5-1.9,1.7c-0.8,0.1-1.7-0.1-2.9-0.8c-0.7-0.4-1.4-0.8-2.1-1.2l4.3-7.9l1.3,0.7L830.4,211.8z
		 M828.3,215.6c0.4,0.3,0.7,0.5,1.1,0.7c0.7,0.4,1.2,0.5,1.6,0.4s0.7-0.4,1-0.9c0.2-0.4,0.3-0.8,0.2-1.3c-0.1-0.4-0.5-0.8-1.1-1.1
		c-0.2-0.1-0.4-0.2-0.6-0.3s-0.4-0.2-0.6-0.2L828.3,215.6z M837.5,211.8l1.3,0.7l-4.3,7.9l-1.3-0.7L837.5,211.8z"/>
	<path d="M848.6,222l0.6-1l0,0l-1.2,0.7l-6.1,2.7l-0.7-0.4l4.3-7.9l1.3,0.7l-2.6,4.8l-0.6,0.9l0.1,0l1.1-0.7l6.1-2.8l0.8,0.4
		l-4.3,7.9l-1.3-0.7L848.6,222z"/>
	<path d="M852.4,225.5l0.6-1l1.1,0.6c0.2,0.1,0.4,0.2,0.6,0.2c0.2,0,0.4,0,0.6,0c0.2,0,0.4-0.1,0.6-0.2c0.2-0.1,0.3-0.2,0.4-0.4
		c0.2-0.4,0.2-0.8,0-1.1c-0.2-0.3-0.6-0.6-1.1-0.9c-0.4-0.2-0.8-0.4-1.2-0.4s-0.7-0.1-1-0.1l0.2-1.2c0.4,0,0.9,0,1.4,0.1
		c0.5,0.1,1,0.3,1.6,0.6c1.8,0.9,2.3,2.1,1.6,3.4c-0.2,0.4-0.5,0.7-0.9,0.9s-0.9,0.3-1.4,0.2l0,0.1c0.6,0.5,0.9,0.9,0.9,1.4
		c0.1,0.5,0,1-0.3,1.5c-0.2,0.3-0.4,0.6-0.7,0.8c-0.3,0.2-0.6,0.3-1,0.4c-0.4,0.1-0.8,0-1.3-0.1c-0.5-0.1-1-0.3-1.5-0.6
		c-0.5-0.3-1-0.6-1.3-0.9c-0.3-0.3-0.6-0.6-0.8-0.9l0.9-0.8c0.2,0.3,0.4,0.5,0.7,0.8c0.3,0.3,0.7,0.5,1.1,0.7
		c0.6,0.3,1.2,0.5,1.7,0.5c0.5,0,0.8-0.3,1.1-0.7c0.2-0.4,0.2-0.8,0-1.2c-0.2-0.4-0.7-0.8-1.4-1.2L852.4,225.5z"/>
	<path d="M867.1,231.3l-0.4,1.6l0.1,0l1.1-1.3l5.3-4.6l1.3,0.7l-6.7,5.7c-0.7,0.6-1.3,1.1-1.8,1.5c-0.5,0.4-0.9,0.7-1.3,0.9
		c-0.4,0.2-0.7,0.3-1.1,0.3c-0.3,0-0.7-0.1-1-0.3c-0.4-0.2-0.6-0.4-0.8-0.5c-0.2-0.2-0.3-0.4-0.4-0.6l1-0.9c0.2,0.2,0.3,0.4,0.5,0.5
		c0.2,0.1,0.3,0.2,0.5,0.3c0.3,0.2,0.6,0.1,1-0.1c0.4-0.2,0.8-0.5,1.3-1.1l0.3-10.4l1.5,0.8L867.1,231.3z"/>
	<path d="M881.7,233.1l-5.1-2.8l-5.4,9.9l-1.3-0.7l6-11.1l7.7,4.2l-6,11.1l-1.3-0.7L881.7,233.1z"/>
	<path d="M888,252l-0.9-0.5l0.9-2.2l-7.8-4.2l-1.3,1.9l-0.9-0.5l1.7-3.2l1.1,0.6c0.1-0.1,0.4-0.3,0.8-0.6c0.4-0.3,0.9-0.9,1.5-1.6
		c0.6-0.7,1.3-1.6,2.1-2.7c0.8-1.1,1.6-2.5,2.5-4.2l5.9,3.2l-5.4,9.9l1.4,0.8L888,252z M887,247.3l4.7-8.7l-3.4-1.8
		c-0.7,1.1-1.3,2.2-1.9,3c-0.6,0.9-1.1,1.6-1.7,2.3s-1,1.2-1.4,1.6c-0.4,0.4-0.8,0.8-1.2,1L887,247.3z"/>
</g>
<g class="st7">
	<path d="M286,243.8c0.1,0.3,0.2,0.6,0.3,0.9c0.1,0.3,0.1,0.6,0,1c0,0.3-0.2,0.6-0.4,0.9c-0.2,0.3-0.5,0.5-0.8,0.8l0,0.1
		c0.3-0.1,0.7-0.2,1.1-0.1c0.4,0,0.8,0.1,1.1,0.2c0.3,0.1,0.7,0.3,1,0.5c0.3,0.2,0.6,0.6,0.8,1c0.3,0.6,0.4,1.1,0.4,1.7
		c0,0.5-0.2,1.1-0.4,1.5c-0.2,0.5-0.6,0.9-1,1.3c-0.4,0.4-0.9,0.7-1.4,1c-0.2,0.1-0.4,0.2-0.6,0.3s-0.5,0.3-0.8,0.4
		s-0.6,0.2-0.8,0.4c-0.3,0.1-0.5,0.2-0.8,0.3L278,245c0.4-0.3,0.8-0.6,1.3-0.9c0.5-0.3,1.1-0.6,1.7-1c0.4-0.2,0.9-0.4,1.3-0.6
		c0.5-0.2,0.9-0.2,1.4-0.2c0.5,0,0.9,0.1,1.3,0.3S285.7,243.3,286,243.8z M282.6,248.4c0.2-0.1,0.4-0.2,0.6-0.4
		c0.3-0.1,0.5-0.3,0.6-0.4c0.2-0.2,0.4-0.4,0.6-0.6c0.2-0.2,0.3-0.4,0.4-0.7c0.1-0.3,0.1-0.5,0.1-0.8c0-0.3-0.1-0.5-0.2-0.8
		c-0.2-0.4-0.4-0.6-0.6-0.7s-0.5-0.2-0.8-0.2c-0.3,0-0.6,0-0.9,0.1c-0.3,0.1-0.6,0.2-0.9,0.4c-0.4,0.2-0.7,0.4-1,0.5
		c-0.3,0.2-0.5,0.3-0.6,0.4l1.9,3.6L282.6,248.4z M286.3,253.3c0.3-0.2,0.7-0.4,0.9-0.6c0.3-0.2,0.5-0.5,0.6-0.8
		c0.2-0.3,0.2-0.6,0.2-0.9c0-0.3-0.1-0.7-0.3-1c-0.2-0.4-0.5-0.8-0.9-1c-0.3-0.2-0.7-0.3-1.1-0.3c-0.4,0-0.7,0.1-1.1,0.2
		c-0.4,0.1-0.7,0.3-1.1,0.5l-1.4,0.7l2.2,4.2c0.1,0,0.2-0.1,0.3-0.1c0.1-0.1,0.3-0.1,0.5-0.2c0.2-0.1,0.3-0.2,0.5-0.2
		C286,253.5,286.1,253.4,286.3,253.3z"/>
	<path d="M291.6,245.5c0.2-0.2,0.5-0.3,0.7-0.5c0.2-0.1,0.4-0.3,0.7-0.4c0.5-0.3,1-0.5,1.5-0.5c0.4-0.1,0.8-0.1,1.2,0
		s0.6,0.3,0.9,0.5c0.2,0.2,0.4,0.5,0.6,0.9c0.5,1,0.6,1.8,0.3,2.5c-0.3,0.7-1.1,1.4-2.3,2c-0.7,0.4-1.4,0.7-2.2,1l-4.2-8l1.3-0.7
		L291.6,245.5z M293.6,249.3c0.4-0.1,0.8-0.3,1.2-0.5c0.7-0.4,1.1-0.7,1.2-1.1c0.1-0.4,0.1-0.8-0.2-1.3c-0.2-0.4-0.5-0.7-0.9-0.8
		c-0.4-0.1-0.9,0-1.6,0.3c-0.2,0.1-0.4,0.2-0.6,0.3s-0.4,0.3-0.5,0.4L293.6,249.3z M295.6,239.6l1.3-0.7l4.2,8l-1.3,0.7L295.6,239.6
		z"/>
	<path d="M311.6,243.9l-0.9,0.5l-1.3-1.9l-6,3.1l0.8,2.1l-0.9,0.5l-1.6-3.1l0.9-0.5c0-0.2,0-0.4,0-0.8c0-0.4-0.1-0.9-0.3-1.5
		c-0.2-0.6-0.4-1.4-0.7-2.2c-0.3-0.9-0.8-1.9-1.3-3l4.8-2.5l3.6,6.9l1.2-0.6L311.6,243.9z M307.5,242.1l-3-5.7l-2.4,1.3
		c0.2,0.5,0.4,1,0.7,1.5c0.2,0.6,0.4,1.1,0.6,1.7c0.2,0.6,0.3,1.1,0.4,1.7c0.1,0.5,0.2,1,0.2,1.5L307.5,242.1z"/>
	<path d="M308.1,233.8c0.3-0.5,0.7-0.9,1.1-1.3c0.5-0.4,1-0.8,1.6-1.1c0.5-0.3,1-0.4,1.4-0.5c0.4,0,0.8,0,1.1,0.2
		c0.3,0.1,0.6,0.3,0.8,0.6c0.2,0.3,0.4,0.5,0.5,0.8c0.3,0.6,0.6,1.3,0.9,1.9c0.3,0.6,0.6,1.2,0.9,1.7c0.2,0.4,0.4,0.8,0.6,1.1
		c0.2,0.3,0.4,0.6,0.7,0.9l-0.9,0.5l-0.9-0.9l-0.1,0c0,0.2-0.1,0.4-0.1,0.6c-0.1,0.2-0.2,0.4-0.3,0.7c-0.1,0.2-0.3,0.4-0.6,0.6
		s-0.5,0.4-0.9,0.6c-0.3,0.2-0.7,0.3-1,0.3c-0.3,0-0.7,0-1-0.1c-0.3-0.1-0.6-0.2-0.9-0.4c-0.3-0.2-0.5-0.5-0.7-0.8
		c-0.2-0.5-0.4-0.9-0.3-1.3c0-0.4,0.2-0.8,0.4-1.2c0.2-0.4,0.6-0.7,1-1.1s1-0.7,1.5-1c0.1-0.1,0.3-0.2,0.4-0.2
		c0.1-0.1,0.3-0.1,0.5-0.2c-0.1-0.3-0.3-0.6-0.4-0.9c-0.3-0.6-0.6-0.9-1-1c-0.4-0.1-0.8,0-1.5,0.3c-0.2,0.1-0.4,0.2-0.6,0.3
		c-0.2,0.1-0.4,0.3-0.6,0.4c-0.2,0.2-0.4,0.3-0.5,0.5c-0.2,0.2-0.3,0.3-0.4,0.5L308.1,233.8z M313.7,239c0.3-0.2,0.5-0.3,0.7-0.5
		c0.2-0.2,0.3-0.4,0.4-0.6c0.1-0.2,0.2-0.4,0.2-0.6c0-0.2,0-0.4,0-0.6l-0.7-1.3c-0.2,0.1-0.3,0.1-0.5,0.2c-0.2,0.1-0.3,0.2-0.5,0.2
		c-0.3,0.2-0.6,0.4-0.9,0.6c-0.3,0.2-0.5,0.4-0.7,0.6c-0.2,0.2-0.3,0.5-0.4,0.7c0,0.3,0,0.5,0.1,0.8c0.2,0.4,0.5,0.6,0.9,0.7
		S313.3,239.2,313.7,239z"/>
	<path d="M316.6,228.5l1.1,2.2c0.1,0.3,0.3,0.5,0.5,0.7c0.2,0.2,0.3,0.4,0.5,0.5c0.2,0.1,0.4,0.2,0.6,0.2c0.2,0,0.5-0.1,0.8-0.2
		c0.5-0.3,0.8-0.5,1.1-0.8s0.4-0.5,0.5-0.7l-1.9-3.5l1.3-0.7l4.2,8l-1.3,0.7l-1.8-3.3c-0.1,0.2-0.3,0.4-0.6,0.7
		c-0.3,0.3-0.7,0.6-1.3,0.9c-0.4,0.2-0.8,0.3-1.1,0.4c-0.3,0.1-0.7,0.1-1-0.1c-0.3-0.1-0.6-0.3-0.9-0.6c-0.3-0.3-0.6-0.7-0.8-1.2
		l-1.3-2.4L316.6,228.5z"/>
	<path d="M323.8,225.5c0.3-0.5,0.7-0.9,1.1-1.3c0.5-0.4,1-0.8,1.6-1.1c0.5-0.3,1-0.4,1.4-0.5c0.4,0,0.8,0,1.1,0.2s0.6,0.3,0.8,0.6
		c0.2,0.3,0.4,0.5,0.5,0.8c0.3,0.6,0.6,1.3,0.9,1.9c0.3,0.6,0.6,1.2,0.9,1.7c0.2,0.4,0.4,0.8,0.6,1.1c0.2,0.3,0.4,0.6,0.7,0.9
		l-0.9,0.5l-0.9-0.9l-0.1,0c0,0.2-0.1,0.4-0.1,0.6s-0.2,0.4-0.3,0.7c-0.1,0.2-0.3,0.4-0.6,0.6c-0.2,0.2-0.5,0.4-0.9,0.6
		c-0.3,0.2-0.7,0.3-1,0.3c-0.3,0-0.7,0-1-0.1c-0.3-0.1-0.6-0.2-0.9-0.4c-0.3-0.2-0.5-0.5-0.7-0.8c-0.2-0.5-0.4-0.9-0.3-1.3
		c0-0.4,0.2-0.8,0.4-1.2c0.2-0.4,0.6-0.7,1-1.1c0.4-0.3,1-0.7,1.5-1c0.1-0.1,0.3-0.2,0.4-0.2c0.1-0.1,0.3-0.1,0.5-0.2
		c-0.1-0.3-0.3-0.6-0.4-0.9c-0.3-0.6-0.6-0.9-1-1c-0.4-0.1-0.8,0-1.5,0.3c-0.2,0.1-0.4,0.2-0.6,0.3c-0.2,0.1-0.4,0.3-0.6,0.4
		c-0.2,0.2-0.4,0.3-0.5,0.5c-0.2,0.2-0.3,0.3-0.4,0.5L323.8,225.5z M329.4,230.7c0.3-0.2,0.5-0.3,0.7-0.5c0.2-0.2,0.3-0.4,0.4-0.6
		c0.1-0.2,0.2-0.4,0.2-0.6c0-0.2,0-0.4,0-0.6l-0.7-1.3c-0.2,0.1-0.3,0.1-0.5,0.2s-0.3,0.2-0.5,0.2c-0.3,0.2-0.6,0.4-0.9,0.6
		c-0.3,0.2-0.5,0.4-0.7,0.6c-0.2,0.2-0.3,0.5-0.4,0.7c0,0.3,0,0.5,0.1,0.8c0.2,0.4,0.5,0.6,0.9,0.7C328.6,231,329,230.9,329.4,230.7
		z"/>
	<path d="M340.1,221.8l-0.7,0.4l1.9,3.6l-1.3,0.7l-4.2-8l1.3-0.7l1.9,3.6l0.6-0.6l0.8-4.7l1.4-0.7l-0.8,4.5l-0.4,0.9l1.2,0.2
		l4.6,2.2l-1.6,0.8L340.1,221.8z"/>
	<path d="M345.1,218.7c-0.7-1.3-1-2.5-0.7-3.6c0.2-1,0.9-1.8,2-2.4c0.6-0.3,1.2-0.5,1.7-0.5c0.5,0,1.1,0.1,1.5,0.3s0.9,0.5,1.3,1
		c0.4,0.4,0.8,1,1.1,1.6c0.7,1.3,1,2.5,0.7,3.6c-0.2,1-0.9,1.8-2,2.4c-0.6,0.3-1.2,0.5-1.7,0.5c-0.5,0-1.1-0.1-1.5-0.3
		s-0.9-0.5-1.3-1C345.7,219.8,345.4,219.3,345.1,218.7z M346.4,218c0.2,0.4,0.5,0.8,0.7,1.1s0.6,0.6,0.9,0.8s0.7,0.3,1,0.3
		c0.4,0,0.7-0.1,1.1-0.3c1.4-0.7,1.6-2.1,0.6-4.2c-0.2-0.4-0.5-0.8-0.7-1.1s-0.6-0.6-0.9-0.8s-0.7-0.3-1-0.3c-0.4,0-0.7,0.1-1.1,0.3
		C345.5,214.5,345.3,215.9,346.4,218z"/>
	<path d="M364.2,216.3l-0.9,0.5l-1.3-1.9l-6,3.1l0.8,2.1l-0.9,0.5l-1.6-3.1l0.9-0.5c0-0.2,0-0.4,0-0.8c0-0.4-0.1-0.9-0.3-1.5
		c-0.2-0.6-0.4-1.4-0.7-2.2c-0.3-0.9-0.8-1.9-1.3-3l4.8-2.5l3.6,6.9l1.2-0.6L364.2,216.3z M360.2,214.4l-3-5.7l-2.4,1.3
		c0.2,0.5,0.4,1,0.7,1.5c0.2,0.6,0.4,1.1,0.6,1.7c0.2,0.6,0.3,1.1,0.4,1.7c0.1,0.5,0.2,1,0.2,1.5L360.2,214.4z"/>
	<path d="M362.2,209.7c-0.7-1.3-0.9-2.5-0.7-3.6c0.2-1,0.9-1.8,2-2.4c0.6-0.3,1.2-0.5,1.7-0.5c0.5,0,1.1,0.1,1.5,0.3
		c0.5,0.2,0.9,0.5,1.3,1c0.4,0.4,0.8,1,1.1,1.6c0.7,1.3,1,2.5,0.7,3.6c-0.2,1-0.9,1.8-2,2.4c-0.6,0.3-1.2,0.5-1.7,0.5
		c-0.5,0-1.1-0.1-1.5-0.3c-0.5-0.2-0.9-0.5-1.3-1C362.9,210.8,362.5,210.3,362.2,209.7z M363.5,209c0.2,0.4,0.5,0.8,0.7,1.1
		c0.3,0.3,0.6,0.6,0.9,0.8s0.7,0.3,1,0.3c0.4,0,0.7-0.1,1.1-0.3c1.4-0.7,1.6-2.1,0.6-4.2c-0.2-0.4-0.5-0.8-0.7-1.1
		c-0.3-0.3-0.6-0.6-0.9-0.8s-0.7-0.3-1-0.3c-0.4,0-0.7,0.1-1.1,0.3C362.6,205.5,362.5,206.9,363.5,209z"/>
	<path d="M369.1,201c0.4-0.2,0.7-0.4,1.1-0.7s0.9-0.5,1.5-0.8c1.1-0.6,1.9-0.8,2.5-0.7c0.6,0.1,1.1,0.5,1.5,1.1
		c0.2,0.4,0.3,0.8,0.2,1.3s-0.3,0.9-0.7,1.4l0,0.1c0.7-0.2,1.2-0.2,1.7,0c0.4,0.2,0.8,0.5,1.1,1.1c0.4,0.8,0.5,1.6,0.1,2.3
		c-0.4,0.7-1.2,1.3-2.4,2c-0.4,0.2-0.9,0.4-1.3,0.6s-0.8,0.3-1.2,0.5L369.1,201z M373.7,202.8c0.2-0.1,0.4-0.2,0.5-0.4
		c0.1-0.2,0.3-0.3,0.3-0.5c0.1-0.2,0.1-0.4,0.1-0.6c0-0.2,0-0.4-0.1-0.6c-0.2-0.4-0.5-0.6-0.8-0.7c-0.3,0-0.8,0.1-1.5,0.5
		c-0.3,0.2-0.6,0.3-0.8,0.4c-0.2,0.1-0.4,0.2-0.5,0.3l1.2,2.3L373.7,202.8z M374,207.2c0.2-0.1,0.4-0.2,0.6-0.3
		c0.2-0.1,0.4-0.2,0.7-0.3c0.7-0.4,1.2-0.8,1.4-1.1c0.2-0.4,0.2-0.8,0-1.3c-0.2-0.4-0.5-0.6-0.9-0.7c-0.4-0.1-1,0.1-1.7,0.5
		l-1.4,0.7L374,207.2z"/>
</g>
<g>
	<g>
		<line class="st5" x1="732.8" y1="187.6" x2="940.8" y2="299.6"/>
	</g>
	<polygon class="st6" points="726.9,184.2 730.7,198.6 733.1,187.9 741.5,180.5 	"/>
</g>
<g class="st7">
	<path d="M268.1,204.1l-0.6-1.1l0.2-0.1c0.1-0.1,0.2-0.1,0.4-0.2c0.1-0.1,0.3-0.2,0.4-0.2c0.1-0.1,0.3-0.2,0.4-0.2
		c0.1-0.1,0.2-0.1,0.3-0.2c0.3-0.2,0.5-0.4,0.7-0.6c0.2-0.2,0.3-0.5,0.4-0.7c0.1-0.3,0.1-0.5,0.1-0.8s-0.1-0.5-0.2-0.8
		c-0.2-0.4-0.4-0.6-0.6-0.8c-0.2-0.2-0.5-0.3-0.8-0.3c-0.3,0-0.6,0-0.9,0.1c-0.3,0.1-0.6,0.2-0.9,0.4c-0.6,0.3-1,0.6-1.4,0.9
		c-0.4,0.3-0.6,0.6-0.8,0.8l-0.9-0.9c0.2-0.2,0.5-0.5,1-1c0.5-0.4,1.1-0.8,1.8-1.2c0.4-0.2,0.9-0.4,1.3-0.5c0.5-0.1,0.9-0.2,1.3-0.1
		c0.4,0,0.8,0.2,1.2,0.4s0.7,0.6,1,1.2c0.3,0.5,0.4,1.1,0.3,1.8c-0.1,0.7-0.4,1.3-1,1.9l0,0.1c0.8-0.3,1.5-0.3,2.2-0.1
		c0.7,0.2,1.2,0.7,1.6,1.5c0.3,0.6,0.5,1.2,0.5,1.8c0,0.6-0.1,1.1-0.4,1.6c-0.2,0.5-0.6,0.9-1,1.3c-0.4,0.4-0.9,0.7-1.4,1
		c-0.7,0.4-1.3,0.6-1.8,0.8c-0.5,0.2-0.9,0.3-1.3,0.3l-0.3-1.4c0.3,0,0.7-0.1,1.2-0.2c0.5-0.1,1-0.4,1.7-0.7
		c0.3-0.2,0.6-0.4,0.9-0.6s0.5-0.5,0.6-0.9c0.2-0.3,0.2-0.7,0.2-1c0-0.4-0.1-0.7-0.3-1.1c-0.4-0.7-0.8-1-1.5-1.1
		c-0.6-0.1-1.3,0.1-2.1,0.4c-0.1,0.1-0.3,0.1-0.4,0.2c-0.1,0.1-0.2,0.1-0.4,0.2L268.1,204.1z"/>
	<path d="M274.5,198.1c0.3-0.5,0.7-0.9,1.1-1.3c0.5-0.4,1-0.8,1.6-1.1c0.5-0.3,1-0.4,1.4-0.5c0.4,0,0.8,0,1.1,0.2
		c0.3,0.1,0.6,0.3,0.8,0.6c0.2,0.3,0.4,0.5,0.5,0.8c0.3,0.6,0.6,1.3,0.9,1.9c0.3,0.6,0.6,1.2,0.9,1.7c0.2,0.4,0.4,0.8,0.6,1.1
		c0.2,0.3,0.4,0.6,0.7,0.9l-0.9,0.5l-0.9-0.9l-0.1,0c0,0.2-0.1,0.4-0.1,0.6c-0.1,0.2-0.2,0.4-0.3,0.7c-0.1,0.2-0.3,0.4-0.6,0.6
		c-0.2,0.2-0.5,0.4-0.9,0.6c-0.3,0.2-0.7,0.3-1,0.3c-0.3,0-0.7,0-1-0.1c-0.3-0.1-0.6-0.2-0.9-0.4c-0.3-0.2-0.5-0.5-0.7-0.8
		c-0.2-0.5-0.4-0.9-0.3-1.3c0-0.4,0.2-0.8,0.4-1.2c0.2-0.4,0.6-0.7,1-1.1s1-0.7,1.5-1c0.1-0.1,0.3-0.2,0.4-0.2
		c0.1-0.1,0.3-0.1,0.5-0.2c-0.1-0.3-0.3-0.6-0.4-0.9c-0.3-0.6-0.6-0.9-1-1c-0.4-0.1-0.8,0-1.5,0.3c-0.2,0.1-0.4,0.2-0.6,0.3
		c-0.2,0.1-0.4,0.3-0.6,0.4c-0.2,0.2-0.4,0.3-0.5,0.5c-0.2,0.2-0.3,0.3-0.4,0.5L274.5,198.1z M280.1,203.3c0.3-0.2,0.5-0.3,0.7-0.5
		c0.2-0.2,0.3-0.4,0.4-0.6c0.1-0.2,0.2-0.4,0.2-0.6c0-0.2,0-0.4,0-0.6l-0.7-1.3c-0.2,0.1-0.3,0.1-0.5,0.2c-0.2,0.1-0.3,0.2-0.5,0.2
		c-0.3,0.2-0.6,0.4-0.9,0.6c-0.3,0.2-0.5,0.4-0.7,0.6c-0.2,0.2-0.3,0.5-0.4,0.7s0,0.5,0.1,0.8c0.2,0.4,0.5,0.6,0.9,0.7
		C279.3,203.6,279.7,203.5,280.1,203.3z"/>
	<path d="M286.5,196.6l-0.7,0.4l1.9,3.6l-1.3,0.7l-4.2-8l1.3-0.7l1.9,3.6l0.6-0.6l0.8-4.7l1.4-0.7l-0.8,4.5l-0.4,0.9l1.2,0.2
		l4.6,2.2l-1.6,0.8L286.5,196.6z"/>
	<path d="M290,189.9c0.3-0.5,0.7-0.9,1.1-1.3c0.5-0.4,1-0.8,1.6-1.1c0.5-0.3,1-0.4,1.4-0.5c0.4,0,0.8,0,1.1,0.2
		c0.3,0.1,0.6,0.3,0.8,0.6c0.2,0.3,0.4,0.5,0.5,0.8c0.3,0.6,0.6,1.3,0.9,1.9c0.3,0.6,0.6,1.2,0.9,1.7c0.2,0.4,0.4,0.8,0.6,1.1
		c0.2,0.3,0.4,0.6,0.7,0.9l-0.9,0.5l-0.9-0.9l-0.1,0c0,0.2-0.1,0.4-0.1,0.6c-0.1,0.2-0.2,0.4-0.3,0.7c-0.1,0.2-0.3,0.4-0.6,0.6
		c-0.2,0.2-0.5,0.4-0.9,0.6c-0.3,0.2-0.7,0.3-1,0.3c-0.3,0-0.7,0-1-0.1c-0.3-0.1-0.6-0.2-0.9-0.4c-0.3-0.2-0.5-0.5-0.7-0.8
		c-0.2-0.5-0.4-0.9-0.3-1.3c0-0.4,0.2-0.8,0.4-1.2s0.6-0.7,1-1.1s1-0.7,1.5-1c0.1-0.1,0.3-0.2,0.4-0.2c0.1-0.1,0.3-0.1,0.5-0.2
		c-0.1-0.3-0.3-0.6-0.4-0.9c-0.3-0.6-0.6-0.9-1-1c-0.4-0.1-0.8,0-1.5,0.3c-0.2,0.1-0.4,0.2-0.6,0.3c-0.2,0.1-0.4,0.3-0.6,0.4
		c-0.2,0.2-0.4,0.3-0.5,0.5c-0.2,0.2-0.3,0.3-0.4,0.5L290,189.9z M295.6,195.1c0.3-0.2,0.5-0.3,0.7-0.5c0.2-0.2,0.3-0.4,0.4-0.6
		c0.1-0.2,0.2-0.4,0.2-0.6c0-0.2,0-0.4,0-0.6l-0.7-1.3c-0.2,0.1-0.3,0.1-0.5,0.2c-0.2,0.1-0.3,0.2-0.5,0.2c-0.3,0.2-0.6,0.4-0.9,0.6
		c-0.3,0.2-0.5,0.4-0.7,0.6c-0.2,0.2-0.3,0.5-0.4,0.7c0,0.3,0,0.5,0.1,0.8c0.2,0.4,0.5,0.6,0.9,0.7S295.2,195.3,295.6,195.1z"/>
	<path d="M300.8,189.1l-0.5-1l1.1-0.6c0.2-0.1,0.4-0.2,0.5-0.4c0.2-0.2,0.3-0.3,0.4-0.5c0.1-0.2,0.1-0.4,0.1-0.6
		c0-0.2,0-0.4-0.1-0.6c-0.2-0.4-0.5-0.6-0.9-0.6c-0.4,0-0.9,0.1-1.4,0.4c-0.4,0.2-0.8,0.5-1,0.8c-0.3,0.3-0.5,0.6-0.6,0.8l-0.9-0.8
		c0.2-0.3,0.5-0.7,0.9-1.1c0.4-0.4,0.8-0.7,1.4-1c1.8-0.9,3-0.7,3.7,0.6c0.2,0.4,0.3,0.8,0.2,1.3c-0.1,0.5-0.3,0.9-0.6,1.3l0,0.1
		c0.7-0.2,1.2-0.2,1.7,0c0.4,0.2,0.8,0.6,1.1,1.1c0.2,0.3,0.3,0.7,0.3,1c0,0.4-0.1,0.7-0.2,1.1c-0.2,0.4-0.4,0.7-0.8,1.1
		c-0.4,0.3-0.8,0.7-1.4,0.9c-0.5,0.3-1,0.5-1.4,0.6c-0.4,0.1-0.8,0.1-1.1,0.2l-0.2-1.2c0.3,0,0.7,0,1-0.1c0.4-0.1,0.8-0.3,1.2-0.5
		c0.6-0.3,1.1-0.7,1.3-1.1s0.2-0.8,0-1.3c-0.2-0.4-0.5-0.6-1-0.7c-0.4-0.1-1,0.1-1.7,0.5L300.8,189.1z"/>
	<path d="M313.3,182.5l-0.7,0.4l1.9,3.6l-1.3,0.7l-4.2-8l1.3-0.7l1.9,3.6l0.6-0.6l0.8-4.7l1.4-0.7l-0.8,4.5l-0.4,0.9l1.2,0.2
		l4.6,2.2l-1.6,0.8L313.3,182.5z"/>
	<path d="M318.3,179.4c-0.7-1.3-1-2.5-0.7-3.6c0.2-1,0.9-1.8,2-2.4c0.6-0.3,1.2-0.5,1.7-0.5c0.5,0,1.1,0.1,1.5,0.3
		c0.5,0.2,0.9,0.5,1.3,1s0.8,1,1.1,1.6c0.7,1.3,1,2.5,0.7,3.6c-0.2,1-0.9,1.8-2,2.4c-0.6,0.3-1.2,0.5-1.7,0.5
		c-0.5,0-1.1-0.1-1.5-0.3s-0.9-0.5-1.3-1C318.9,180.6,318.6,180,318.3,179.4z M319.6,178.7c0.2,0.4,0.5,0.8,0.7,1.1
		c0.3,0.3,0.6,0.6,0.9,0.8c0.3,0.2,0.7,0.3,1,0.3c0.4,0,0.7-0.1,1.1-0.3c1.4-0.7,1.6-2.1,0.6-4.2c-0.2-0.4-0.5-0.8-0.7-1.1
		c-0.3-0.3-0.6-0.6-0.9-0.8c-0.3-0.2-0.7-0.3-1-0.3c-0.4,0-0.7,0.1-1.1,0.3C318.7,175.3,318.5,176.7,319.6,178.7z"/>
	<path d="M337.4,177l-0.9,0.5l-1.3-1.9l-6,3.1l0.8,2.1l-0.9,0.5l-1.6-3.1l0.9-0.5c0-0.2,0-0.4,0-0.8c0-0.4-0.1-0.9-0.3-1.5
		s-0.4-1.4-0.7-2.2c-0.3-0.9-0.8-1.9-1.3-3l4.8-2.5l3.6,6.9l1.2-0.6L337.4,177z M333.4,175.1l-3-5.7l-2.4,1.3c0.2,0.5,0.4,1,0.7,1.5
		c0.2,0.6,0.4,1.1,0.6,1.7c0.2,0.6,0.3,1.1,0.4,1.7c0.1,0.5,0.2,1,0.2,1.5L333.4,175.1z"/>
	<path d="M336.6,168.5c0.2-0.2,0.5-0.3,0.7-0.5c0.2-0.1,0.4-0.3,0.7-0.4c0.5-0.3,1-0.5,1.5-0.5c0.4-0.1,0.8-0.1,1.2,0
		c0.3,0.1,0.6,0.3,0.9,0.5s0.4,0.5,0.6,0.9c0.5,1,0.6,1.8,0.3,2.5s-1.1,1.4-2.3,2c-0.7,0.4-1.4,0.7-2.2,1l-4.2-8l1.3-0.7
		L336.6,168.5z M338.6,172.4c0.4-0.1,0.8-0.3,1.2-0.5c0.7-0.4,1.1-0.7,1.2-1.1c0.1-0.4,0.1-0.8-0.2-1.3c-0.2-0.4-0.5-0.7-0.9-0.8
		c-0.4-0.1-0.9,0-1.6,0.3c-0.2,0.1-0.4,0.2-0.6,0.3c-0.2,0.1-0.4,0.3-0.5,0.4L338.6,172.4z M340.6,162.6l1.3-0.7l4.2,8l-1.3,0.7
		L340.6,162.6z"/>
</g>
<g class="st7">
	<path d="M37.1,456.8h-5.8v11.3h-1.5v-12.6h8.8v12.6h-1.5V456.8z"/>
	<path d="M41.6,455.6c0.5-0.1,0.9-0.2,1.5-0.2s1-0.1,1.6-0.1c0.6,0,1.1,0.1,1.7,0.2c0.6,0.1,1.1,0.3,1.6,0.6s0.8,0.7,1.1,1.2
		s0.4,1.1,0.4,1.9c0,0.8-0.1,1.4-0.4,1.9s-0.6,1-1.1,1.3s-1,0.6-1.6,0.7c-0.6,0.1-1.2,0.2-1.8,0.2c-0.1,0-0.2,0-0.3,0s-0.3,0-0.4,0
		s-0.3,0-0.4,0s-0.2,0-0.3,0v4.8h-1.5V455.6z M44.7,456.6c-0.3,0-0.6,0-0.9,0s-0.5,0-0.7,0.1v5.2c0.1,0,0.2,0,0.3,0s0.3,0,0.4,0
		s0.3,0,0.4,0s0.2,0,0.3,0c0.4,0,0.8,0,1.2-0.1c0.4-0.1,0.8-0.2,1.1-0.4c0.3-0.2,0.6-0.5,0.8-0.9c0.2-0.4,0.3-0.8,0.3-1.4
		c0-0.5-0.1-0.9-0.3-1.2s-0.4-0.6-0.7-0.8s-0.6-0.3-1-0.4S45.1,456.6,44.7,456.6z"/>
	<path d="M51.2,461.8c0-2.1,0.4-3.7,1.3-4.8s2.2-1.7,3.8-1.7c0.9,0,1.7,0.2,2.3,0.5s1.2,0.8,1.6,1.3c0.4,0.6,0.7,1.3,0.9,2.1
		s0.3,1.7,0.3,2.7c0,2.1-0.4,3.7-1.3,4.8s-2.2,1.7-3.8,1.7c-0.9,0-1.6-0.2-2.3-0.5c-0.6-0.3-1.2-0.8-1.6-1.3s-0.7-1.3-0.9-2.1
		C51.3,463.6,51.2,462.7,51.2,461.8z M52.8,461.8c0,0.7,0.1,1.4,0.2,2c0.1,0.6,0.4,1.2,0.6,1.6s0.7,0.9,1.1,1.1s1,0.4,1.6,0.4
		c1.1,0,2-0.4,2.6-1.3c0.6-0.8,1-2.2,1-3.9c0-0.7-0.1-1.3-0.2-2c-0.1-0.6-0.4-1.2-0.7-1.7c-0.3-0.5-0.7-0.8-1.1-1.1s-1-0.4-1.6-0.4
		c-1.1,0-2,0.4-2.6,1.3S52.8,460,52.8,461.8z"/>
	<path d="M71.7,459.5l0.1-1.4h-0.1l-0.8,1.5l-6.1,8.5H64v-12.6h1.5v8.6l-0.1,1.4h0.1l0.8-1.5l6.1-8.6h0.9v12.6h-1.5V459.5z"/>
	<path d="M77.2,462.1v-1.3h0.3c0.1,0,0.2,0,0.4,0s0.3,0,0.5,0s0.3,0,0.5,0s0.3,0,0.4,0c0.3-0.1,0.6-0.1,0.9-0.3
		c0.3-0.1,0.5-0.3,0.7-0.4c0.2-0.2,0.4-0.4,0.5-0.6s0.2-0.5,0.2-0.8c0-0.4-0.1-0.7-0.2-1s-0.3-0.5-0.5-0.6s-0.5-0.3-0.8-0.3
		c-0.3-0.1-0.6-0.1-1-0.1c-0.6,0-1.2,0-1.7,0.1c-0.5,0.1-0.8,0.2-1.1,0.3l-0.4-1.2c0.2-0.1,0.7-0.3,1.3-0.4s1.3-0.2,2.1-0.2
		c0.5,0,1,0.1,1.4,0.2s0.9,0.3,1.2,0.5s0.7,0.6,0.9,1s0.3,0.9,0.3,1.5c0,0.6-0.2,1.2-0.6,1.7s-1,0.9-1.8,1.2v0.1
		c0.8,0.1,1.5,0.4,2,1c0.5,0.5,0.7,1.2,0.7,2.1c0,0.7-0.1,1.3-0.4,1.8s-0.6,0.9-1.1,1.2s-0.9,0.6-1.5,0.7s-1.1,0.2-1.7,0.2
		c-0.8,0-1.4,0-2-0.1c-0.5-0.1-0.9-0.2-1.3-0.3l0.4-1.3c0.3,0.1,0.7,0.2,1.2,0.3c0.5,0.1,1.1,0.1,1.8,0.1c0.4,0,0.7-0.1,1.1-0.2
		s0.7-0.3,1-0.5c0.3-0.2,0.5-0.5,0.7-0.8s0.3-0.7,0.3-1.1c0-0.8-0.3-1.3-0.8-1.7c-0.5-0.4-1.2-0.6-2.1-0.6c-0.1,0-0.3,0-0.4,0
		s-0.3,0-0.4,0H77.2z"/>
	<path d="M93.6,458.3c0,0.3,0,0.6-0.1,0.9c-0.1,0.3-0.2,0.6-0.4,0.9s-0.4,0.5-0.7,0.6s-0.7,0.3-1.1,0.4v0.1c0.4,0.1,0.7,0.2,1,0.4
		s0.6,0.4,0.9,0.7s0.5,0.6,0.6,0.9s0.2,0.8,0.2,1.3c0,0.7-0.1,1.2-0.4,1.7s-0.6,0.9-1.1,1.2s-0.9,0.5-1.5,0.7
		c-0.6,0.1-1.1,0.2-1.7,0.2c-0.2,0-0.4,0-0.7,0s-0.6,0-0.9,0s-0.6,0-0.9-0.1S86.2,468,86,468v-12.3c0.4-0.1,1-0.1,1.6-0.2
		s1.2-0.1,1.9-0.1c0.5,0,0.9,0,1.4,0.1c0.5,0.1,0.9,0.2,1.3,0.4c0.4,0.2,0.7,0.5,1,0.9S93.6,457.7,93.6,458.3z M88.4,460.8
		c0.2,0,0.4,0,0.7,0s0.5,0,0.7-0.1c0.3-0.1,0.6-0.2,0.8-0.3c0.3-0.1,0.5-0.2,0.7-0.4s0.4-0.4,0.5-0.7s0.2-0.5,0.2-0.8
		c0-0.4-0.1-0.7-0.2-0.9s-0.4-0.4-0.6-0.6c-0.3-0.2-0.5-0.3-0.9-0.3c-0.3-0.1-0.7-0.1-1-0.1c-0.4,0-0.8,0-1.1,0
		c-0.3,0-0.6,0-0.7,0.1v4H88.4z M89.4,466.9c0.4,0,0.8,0,1.1-0.1s0.7-0.2,1-0.4c0.3-0.2,0.5-0.4,0.7-0.7c0.2-0.3,0.2-0.6,0.2-1
		c0-0.5-0.1-0.9-0.3-1.3c-0.2-0.4-0.5-0.6-0.8-0.8c-0.3-0.2-0.7-0.3-1.1-0.3s-0.8-0.1-1.2-0.1h-1.6v4.7c0.1,0,0.2,0,0.4,0.1
		s0.3,0,0.5,0s0.4,0,0.6,0S89.3,466.9,89.4,466.9z"/>
	<path d="M96,461.8c0-2.1,0.4-3.7,1.3-4.8s2.2-1.7,3.8-1.7c0.9,0,1.7,0.2,2.3,0.5s1.2,0.8,1.6,1.3c0.4,0.6,0.7,1.3,0.9,2.1
		s0.3,1.7,0.3,2.7c0,2.1-0.4,3.7-1.3,4.8s-2.2,1.7-3.8,1.7c-0.9,0-1.6-0.2-2.3-0.5c-0.6-0.3-1.2-0.8-1.6-1.3s-0.7-1.3-0.9-2.1
		C96.1,463.6,96,462.7,96,461.8z M97.6,461.8c0,0.7,0.1,1.4,0.2,2c0.1,0.6,0.4,1.2,0.6,1.6s0.7,0.9,1.1,1.1s1,0.4,1.6,0.4
		c1.1,0,2-0.4,2.6-1.3c0.6-0.8,1-2.2,1-3.9c0-0.7-0.1-1.3-0.2-2c-0.1-0.6-0.4-1.2-0.7-1.7c-0.3-0.5-0.7-0.8-1.1-1.1s-1-0.4-1.6-0.4
		c-1.1,0-2,0.4-2.6,1.3S97.6,460,97.6,461.8z"/>
	<path d="M118.8,470.4h-1l-0.3-2.3h-8.8l-0.3,2.3h-1v-3.7h1.3c0.1-0.1,0.2-0.4,0.4-0.9s0.4-1.2,0.6-2.1c0.2-0.9,0.4-2,0.5-3.4
		c0.2-1.4,0.2-3,0.2-4.9h6.7v11.3h1.6V470.4z M115.7,466.7v-9.9h-3.8c0,1.3-0.1,2.5-0.2,3.6s-0.2,2-0.4,2.8s-0.3,1.5-0.5,2.1
		c-0.2,0.6-0.4,1.1-0.6,1.5H115.7z"/>
	<path d="M128.6,459.5l0.1-1.4h-0.1l-0.8,1.5l-6.1,8.5h-0.9v-12.6h1.5v8.6l-0.1,1.4h0.1l0.8-1.5l6.1-8.6h0.9v12.6h-1.5V459.5z"/>
	<path d="M141.3,456.8h-3.9v11.3h-1.5v-11.3h-3.9v-1.3h9.3V456.8z"/>
	<path d="M143.1,455.5h6.9v1.3h-5.4v4.1h4.9v1.3h-4.9v4.5h5.5v1.3h-7V455.5z"/>
	<path d="M159.5,456.8h-3.8c-0.1,2.4-0.3,4.4-0.5,6s-0.5,2.8-0.9,3.7c-0.3,0.6-0.6,1-0.9,1.3s-0.7,0.4-1.2,0.4c-0.2,0-0.4,0-0.6,0
		s-0.3-0.1-0.4-0.1l0.2-1.3c0.1,0,0.2,0.1,0.4,0.1c0.2,0,0.4-0.1,0.6-0.2c0.2-0.1,0.4-0.4,0.6-0.7c0.2-0.3,0.3-0.8,0.5-1.3
		c0.1-0.5,0.3-1.2,0.4-2.1s0.2-1.8,0.3-3c0.1-1.1,0.1-2.5,0.2-4h6.7v12.6h-1.5V456.8z"/>
	<path d="M164,455.5h1.5v4.9c0.1,0,0.2,0,0.3,0s0.3,0,0.5,0s0.3,0,0.5,0s0.3,0,0.5,0c0.6,0,1.1,0.1,1.7,0.2c0.5,0.1,1,0.3,1.5,0.6
		s0.8,0.7,1,1.2s0.4,1.1,0.4,1.8c0,0.7-0.1,1.3-0.4,1.9s-0.6,1-1,1.3s-1,0.6-1.6,0.8c-0.6,0.2-1.2,0.3-1.9,0.3c-0.2,0-0.4,0-0.6,0
		s-0.5,0-0.8,0s-0.5,0-0.8-0.1s-0.5-0.1-0.7-0.1V455.5z M167.1,466.9c0.4,0,0.8-0.1,1.2-0.2c0.4-0.1,0.7-0.3,1-0.5s0.5-0.5,0.7-0.9
		s0.2-0.8,0.2-1.2c0-0.5-0.1-0.9-0.3-1.3s-0.4-0.6-0.7-0.8s-0.6-0.3-1-0.4s-0.8-0.1-1.2-0.1c-0.1,0-0.2,0-0.4,0s-0.3,0-0.5,0
		s-0.3,0-0.4,0.1s-0.2,0-0.3,0.1v5.1c0.2,0,0.4,0.1,0.7,0.1S166.8,466.9,167.1,466.9z"/>
</g>
<g>
	<g>
		<g>
			<path class="st5" d="M647.5,146.9H512c-23.2,0-42-20.1-42-44.9c0-20.1,12.5-37.9,30.7-43.3c3.2-14.6,15.6-25,29.7-25
				c2.8,0,5.6,0.4,8.2,1.2c12.2-20.5,32.8-32.6,55.3-32.6c17.4,0,33.8,7.3,46.2,20.4c11.5,12.1,18.3,28.2,19.2,45.4
				c6.9,2.5,13,7.1,17.4,13.1c5.4,7.1,8.3,16.1,8.3,25.3c0.1,11.4-4.1,21.9-11.8,29.6C666.4,143.1,657.2,146.9,647.5,146.9z"/>
		</g>
	</g>
</g>
<g>
	<g>
		<line class="st5" x1="932.4" y1="429.3" x2="701.7" y2="429.3"/>
	</g>
	<polygon class="st6" points="939.2,429.3 928.9,418.5 932.1,429.1 928.3,439.6 	"/>
</g>
<g>
	<g>
		<line class="st5" x1="450.1" y1="429.3" x2="213.9" y2="429.3"/>
	</g>
	<polygon class="st6" points="456.9,429.3 446.8,418.5 449.8,429.1 446,439.6 	"/>
</g>
<g class="st7">
	<path d="M772.6,398.4l0.5,1.6h0.1l0.4-1.7l2.4-6.6h1.5l-3.2,8.2c-0.3,0.9-0.6,1.6-0.9,2.1s-0.5,1-0.7,1.4c-0.3,0.4-0.5,0.6-0.8,0.8
		c-0.3,0.2-0.6,0.2-1.1,0.2c-0.4,0-0.7,0-0.9-0.1s-0.5-0.2-0.7-0.3l0.5-1.2c0.2,0.1,0.5,0.2,0.7,0.3c0.2,0,0.4,0.1,0.6,0.1
		c0.3,0,0.6-0.2,0.8-0.5c0.2-0.3,0.4-0.9,0.6-1.5l-4.7-9.3h1.7L772.6,398.4z"/>
	<path d="M786.3,393.1h-5.8v11.3H779v-12.6h8.8v12.6h-1.5V393.1z"/>
	<path d="M800.9,406.7h-1l-0.3-2.3h-8.8l-0.3,2.3h-1v-3.7h1.3c0.1-0.1,0.2-0.4,0.4-0.9s0.4-1.2,0.6-2.1c0.2-0.9,0.4-2,0.5-3.4
		c0.2-1.4,0.2-3,0.2-4.9h6.7v11.3h1.6V406.7z M797.7,403.1v-9.9h-3.8c0,1.3-0.1,2.5-0.2,3.6s-0.2,2-0.4,2.8s-0.3,1.5-0.5,2.1
		c-0.2,0.6-0.4,1.1-0.6,1.5H797.7z"/>
	<path d="M807.6,395.4c0.4,0,0.9-0.1,1.3-0.1s1-0.1,1.7-0.1c1.2,0,2,0.2,2.6,0.5c0.5,0.4,0.8,0.9,0.8,1.7c0,0.4-0.1,0.8-0.4,1.2
		s-0.7,0.7-1.2,0.9v0.1c0.7,0.1,1.2,0.4,1.5,0.7c0.3,0.4,0.4,0.8,0.4,1.4c0,0.9-0.3,1.6-1,2c-0.7,0.4-1.7,0.6-3,0.6
		c-0.5,0-1,0-1.4,0s-0.9-0.1-1.3-0.1V395.4z M810.8,399.2c0.2,0,0.4,0,0.6-0.1s0.4-0.2,0.5-0.3c0.2-0.1,0.3-0.3,0.4-0.4
		s0.2-0.4,0.2-0.5c0-0.5-0.1-0.8-0.4-1s-0.8-0.3-1.5-0.3c-0.4,0-0.7,0-0.9,0s-0.4,0-0.6,0v2.6H810.8z M809,403.2
		c0.2,0,0.4,0,0.7,0.1s0.5,0,0.8,0c0.8,0,1.4-0.1,1.8-0.3s0.6-0.6,0.6-1.2c0-0.4-0.2-0.8-0.5-1.1s-0.9-0.4-1.8-0.4H809V403.2z"/>
	<path d="M829.6,403.9c-0.4,0.3-0.8,0.5-1.4,0.6c-0.6,0.1-1.1,0.2-1.8,0.2c-0.8,0-1.5-0.1-2.1-0.4s-1.2-0.7-1.7-1.2
		c-0.5-0.5-0.9-1.2-1.2-2s-0.4-1.8-0.4-2.9c0-1.2,0.2-2.2,0.5-3s0.7-1.5,1.3-2s1.1-0.9,1.8-1.1s1.3-0.4,2-0.4c0.7,0,1.3,0,1.8,0.1
		s0.8,0.2,1.2,0.3l-0.4,1.3c-0.6-0.3-1.4-0.4-2.5-0.4c-0.5,0-1,0.1-1.5,0.3s-0.9,0.5-1.3,0.9c-0.4,0.4-0.7,0.9-0.9,1.6
		c-0.2,0.7-0.3,1.5-0.3,2.4c0,0.9,0.1,1.6,0.3,2.3s0.5,1.2,0.9,1.6c0.4,0.4,0.8,0.8,1.3,1s1.1,0.3,1.7,0.3c0.5,0,1-0.1,1.4-0.2
		c0.4-0.1,0.7-0.2,1-0.4L829.6,403.9z"/>
	<path d="M831.8,391.8h6.8v1.3h-5.3v3.8c0.2,0,0.5-0.1,0.8-0.1s0.6-0.1,0.9-0.1c0.6,0,1.2,0.1,1.7,0.2c0.6,0.1,1,0.3,1.5,0.6
		s0.8,0.7,1,1.1s0.4,1.1,0.4,1.8c0,0.7-0.1,1.3-0.4,1.9s-0.6,0.9-1,1.3c-0.4,0.3-0.9,0.6-1.5,0.7c-0.6,0.2-1.1,0.2-1.8,0.2
		c-0.2,0-0.4,0-0.7,0s-0.5,0-0.8,0s-0.6,0-0.8-0.1s-0.5-0.1-0.7-0.1V391.8z M835,403.3c0.4,0,0.7-0.1,1.1-0.2
		c0.3-0.1,0.7-0.3,0.9-0.5s0.5-0.5,0.6-0.8s0.2-0.7,0.2-1.1c0-0.6-0.1-1-0.3-1.3c-0.2-0.3-0.4-0.6-0.7-0.8c-0.3-0.2-0.6-0.3-1-0.4
		c-0.4-0.1-0.8-0.1-1.2-0.1c-0.1,0-0.2,0-0.4,0s-0.3,0-0.4,0s-0.3,0-0.4,0s-0.2,0-0.3,0v5c0.1,0,0.2,0,0.3,0.1s0.3,0,0.5,0
		s0.3,0,0.5,0S834.9,403.3,835,403.3z"/>
	<path d="M849.4,395.9l0.1-1.4h-0.1l-0.8,1.5l-6.1,8.5h-0.9v-12.6h1.5v8.6l-0.1,1.4h0.1l0.8-1.5l6.1-8.6h0.9v12.6h-1.5V395.9z"/>
	<path d="M862,403.9c-0.4,0.3-0.8,0.5-1.4,0.6c-0.6,0.1-1.1,0.2-1.8,0.2c-0.8,0-1.5-0.1-2.1-0.4s-1.2-0.7-1.7-1.2
		c-0.5-0.5-0.9-1.2-1.2-2s-0.4-1.8-0.4-2.9c0-1.2,0.2-2.2,0.5-3s0.7-1.5,1.3-2s1.1-0.9,1.8-1.1s1.3-0.4,2-0.4c0.7,0,1.3,0,1.8,0.1
		s0.8,0.2,1.2,0.3l-0.4,1.3c-0.6-0.3-1.4-0.4-2.5-0.4c-0.5,0-1,0.1-1.5,0.3s-0.9,0.5-1.3,0.9c-0.4,0.4-0.7,0.9-0.9,1.6
		c-0.2,0.7-0.3,1.5-0.3,2.4c0,0.9,0.1,1.6,0.3,2.3s0.5,1.2,0.9,1.6c0.4,0.4,0.8,0.8,1.3,1s1.1,0.3,1.7,0.3c0.5,0,1-0.1,1.4-0.2
		c0.4-0.1,0.7-0.2,1-0.4L862,403.9z"/>
</g>
<g class="st7">
	<path d="M287.5,398.4l0.5,1.6h0.1l0.4-1.7l2.4-6.6h1.5l-3.2,8.2c-0.3,0.9-0.6,1.6-0.9,2.1s-0.5,1-0.7,1.4c-0.3,0.4-0.5,0.6-0.8,0.8
		c-0.3,0.2-0.6,0.2-1.1,0.2c-0.4,0-0.7,0-0.9-0.1s-0.5-0.2-0.7-0.3l0.5-1.2c0.2,0.1,0.5,0.2,0.7,0.3c0.2,0,0.4,0.1,0.6,0.1
		c0.3,0,0.6-0.2,0.8-0.5c0.2-0.3,0.4-0.9,0.6-1.5l-4.7-9.3h1.7L287.5,398.4z"/>
	<path d="M301.2,393.1h-5.8v11.3h-1.5v-12.6h8.8v12.6h-1.5V393.1z"/>
	<path d="M315.8,406.7h-1l-0.3-2.3h-8.8l-0.3,2.3h-1v-3.7h1.3c0.1-0.1,0.2-0.4,0.4-0.9s0.4-1.2,0.6-2.1c0.2-0.9,0.4-2,0.5-3.4
		c0.2-1.4,0.2-3,0.2-4.9h6.7v11.3h1.6V406.7z M312.6,403.1v-9.9h-3.8c0,1.3-0.1,2.5-0.2,3.6s-0.2,2-0.4,2.8s-0.3,1.5-0.5,2.1
		c-0.2,0.6-0.4,1.1-0.6,1.5H312.6z"/>
	<path d="M322.5,395.4c0.4,0,0.9-0.1,1.3-0.1s1-0.1,1.7-0.1c1.2,0,2,0.2,2.6,0.5c0.5,0.4,0.8,0.9,0.8,1.7c0,0.4-0.1,0.8-0.4,1.2
		s-0.7,0.7-1.2,0.9v0.1c0.7,0.1,1.2,0.4,1.5,0.7c0.3,0.4,0.4,0.8,0.4,1.4c0,0.9-0.3,1.6-1,2c-0.7,0.4-1.7,0.6-3,0.6
		c-0.5,0-1,0-1.4,0s-0.9-0.1-1.3-0.1V395.4z M325.7,399.2c0.2,0,0.4,0,0.6-0.1s0.4-0.2,0.5-0.3c0.2-0.1,0.3-0.3,0.4-0.4
		s0.2-0.4,0.2-0.5c0-0.5-0.1-0.8-0.4-1s-0.8-0.3-1.5-0.3c-0.4,0-0.7,0-0.9,0s-0.4,0-0.6,0v2.6H325.7z M323.9,403.2
		c0.2,0,0.4,0,0.7,0.1s0.5,0,0.8,0c0.8,0,1.4-0.1,1.8-0.3s0.6-0.6,0.6-1.2c0-0.4-0.2-0.8-0.5-1.1s-0.9-0.4-1.8-0.4h-1.6V403.2z"/>
	<path d="M344.5,403.9c-0.4,0.3-0.8,0.5-1.4,0.6c-0.6,0.1-1.1,0.2-1.8,0.2c-0.8,0-1.5-0.1-2.1-0.4s-1.2-0.7-1.7-1.2
		c-0.5-0.5-0.9-1.2-1.2-2s-0.4-1.8-0.4-2.9c0-1.2,0.2-2.2,0.5-3s0.7-1.5,1.3-2s1.1-0.9,1.8-1.1s1.3-0.4,2-0.4c0.7,0,1.3,0,1.8,0.1
		s0.8,0.2,1.2,0.3l-0.4,1.3c-0.6-0.3-1.4-0.4-2.5-0.4c-0.5,0-1,0.1-1.5,0.3s-0.9,0.5-1.3,0.9c-0.4,0.4-0.7,0.9-0.9,1.6
		c-0.2,0.7-0.3,1.5-0.3,2.4c0,0.9,0.1,1.6,0.3,2.3s0.5,1.2,0.9,1.6c0.4,0.4,0.8,0.8,1.3,1s1.1,0.3,1.7,0.3c0.5,0,1-0.1,1.4-0.2
		c0.4-0.1,0.7-0.2,1-0.4L344.5,403.9z"/>
	<path d="M346.7,391.8h6.8v1.3h-5.3v3.8c0.2,0,0.5-0.1,0.8-0.1s0.6-0.1,0.9-0.1c0.6,0,1.2,0.1,1.7,0.2c0.6,0.1,1,0.3,1.5,0.6
		s0.8,0.7,1,1.1s0.4,1.1,0.4,1.8c0,0.7-0.1,1.3-0.4,1.9s-0.6,0.9-1,1.3c-0.4,0.3-0.9,0.6-1.5,0.7c-0.6,0.2-1.1,0.2-1.8,0.2
		c-0.2,0-0.4,0-0.7,0s-0.5,0-0.8,0s-0.6,0-0.8-0.1s-0.5-0.1-0.7-0.1V391.8z M349.9,403.3c0.4,0,0.7-0.1,1.1-0.2
		c0.3-0.1,0.7-0.3,0.9-0.5s0.5-0.5,0.6-0.8s0.2-0.7,0.2-1.1c0-0.6-0.1-1-0.3-1.3c-0.2-0.3-0.4-0.6-0.7-0.8c-0.3-0.2-0.6-0.3-1-0.4
		c-0.4-0.1-0.8-0.1-1.2-0.1c-0.1,0-0.2,0-0.4,0s-0.3,0-0.4,0s-0.3,0-0.4,0s-0.2,0-0.3,0v5c0.1,0,0.2,0,0.3,0.1s0.3,0,0.5,0
		s0.3,0,0.5,0S349.8,403.3,349.9,403.3z"/>
	<path d="M364.3,395.9l0.1-1.4h-0.1l-0.8,1.5l-6.1,8.5h-0.9v-12.6h1.5v8.6l-0.1,1.4h0.1l0.8-1.5l6.1-8.6h0.9v12.6h-1.5V395.9z"/>
	<path d="M376.9,403.9c-0.4,0.3-0.8,0.5-1.4,0.6c-0.6,0.1-1.1,0.2-1.8,0.2c-0.8,0-1.5-0.1-2.1-0.4s-1.2-0.7-1.7-1.2
		c-0.5-0.5-0.9-1.2-1.2-2s-0.4-1.8-0.4-2.9c0-1.2,0.2-2.2,0.5-3s0.7-1.5,1.3-2s1.1-0.9,1.8-1.1s1.3-0.4,2-0.4c0.7,0,1.3,0,1.8,0.1
		s0.8,0.2,1.2,0.3l-0.4,1.3c-0.6-0.3-1.4-0.4-2.5-0.4c-0.5,0-1,0.1-1.5,0.3s-0.9,0.5-1.3,0.9c-0.4,0.4-0.7,0.9-0.9,1.6
		c-0.2,0.7-0.3,1.5-0.3,2.4c0,0.9,0.1,1.6,0.3,2.3s0.5,1.2,0.9,1.6c0.4,0.4,0.8,0.8,1.3,1s1.1,0.3,1.7,0.3c0.5,0,1-0.1,1.4-0.2
		c0.4-0.1,0.7-0.2,1-0.4L376.9,403.9z"/>
</g>
<path class="st5" d="M1126.7,124.5h-112.2c-10.5-0.1-19-9.8-18.9-21.8c0-10.4,6.7-19.4,15.8-21.2c0.2-12.9,9.5-23.3,20.9-23.3
	c2.8,0,5.7,0.7,8.3,2c4.3-17.9,20.6-28.4,36.3-23.4c10.3,3.2,18.3,12.4,20.9,24.1c10.3-5.9,22.8-1.4,28.1,10.2
	c1.4,3.2,2.2,6.6,2.4,10.3c10.5,0.9,18.3,11.4,17.5,23.2C1144.8,115.9,1136.6,124.5,1126.7,124.5L1126.7,124.5z"/>
<g>
	<g transform="translate(-90 -20)">
		<g id="a">
			<path class="st8" d="M556.7,42.3h25.9c5.3,0,7.1,0.6,9.1,1.6c1.9,1.1,3.5,2.6,4.4,4.4c1.1,1.9,1.6,3.9,1.6,9.1v25.9
				c0,5.3-0.6,7.1-1.6,9.1c-1.1,1.9-2.6,3.5-4.4,4.4c-1.9,1.1-3.9,1.5-9.1,1.5h-25.9c-5.3,0-7.1-0.6-9.1-1.5
				c-1.9-1.1-3.5-2.6-4.4-4.4c-1.1-1.9-1.6-3.9-1.6-9.1V57.5c0-5.3,0.6-7.1,1.6-9.1c1.1-1.9,2.6-3.5,4.4-4.4
				C549.6,42.9,551.4,42.3,556.7,42.3z"/>
		</g>
	</g>
	<g transform="translate(-90 -20)">
		<g id="M">
			<path class="st9" d="M583.7,53.8c1.5,0,2.7,1.2,2.7,2.7v6.7h5.6v-6.7c0-4.6-3.7-8.3-8.2-8.3h-6.7v5.6H583.7z"/>
		</g>
	</g>
	<g transform="translate(-90 -20)">
		<g id="N">
			<path class="st9" d="M586.4,84.4c0,1.5-1.2,2.7-2.7,2.7H577v5.6h6.7c4.6,0,8.2-3.6,8.2-8.2v-6.7h-5.6L586.4,84.4L586.4,84.4z"/>
		</g>
	</g>
	<g transform="translate(-90 -20)">
		<g id="O">
			<path class="st9" d="M552.9,56.3c0-1.5,1.2-2.7,2.7-2.7l0,0h6.7V48h-6.7c-4.6,0-8.2,3.7-8.2,8.3V63h5.6L552.9,56.3L552.9,56.3z"
				/>
		</g>
	</g>
	<g transform="translate(-90 -20)">
		<g id="P">
			<path class="st9" d="M555.6,87.1c-1.5,0-2.7-1.2-2.7-2.7v-6.7h-5.6v6.7c0,4.6,3.7,8.2,8.2,8.2h6.7V87L555.6,87.1L555.6,87.1
				L555.6,87.1z"/>
		</g>
	</g>
	<g transform="translate(-90 -20)">
		<g id="Q">
			<path class="st9" d="M566.5,83.7l-11.9-11.9l4-4l8,8L581,61.5l4,4L566.5,83.7z"/>
		</g>
	</g>
</g>
<g>
	<path class="st0" d="M153.6,403h-108c-7.9,0-14.3,6.4-14.3,14.3l0,0c0,7.9,6.4,14.3,14.3,14.3h108c7.9,0,14.3-6.4,14.3-14.3l0,0
		C167.9,409.4,161.5,403,153.6,403z"/>
	<path class="st1" d="M153.6,408.5h-108c-4.9,0-8.8,3.9-8.8,8.8l0,0c0,4.9,3.9,8.8,8.8,8.8h108c4.9,0,8.8-3.9,8.8-8.8l0,0
		C162.4,412.4,158.4,408.5,153.6,408.5z"/>
	<g>
		<path class="st6" d="M151.4,415.1c1.2,0,2.2,1,2.2,2.2s-1,2.2-2.2,2.2s-2.2-1-2.2-2.2S150.1,415.1,151.4,415.1 M151.4,413.1
			c-2.3,0-4.2,1.9-4.2,4.2c0,2.3,1.9,4.2,4.2,4.2s4.2-1.9,4.2-4.2C155.6,415,153.7,413.1,151.4,413.1L151.4,413.1z"/>
	</g>
	<g>
		<path class="st6" d="M50,415.1c1.2,0,2.2,1,2.2,2.2s-1,2.2-2.2,2.2s-2.2-1-2.2-2.2S48.8,415.1,50,415.1 M50,413.1
			c-2.3,0-4.2,1.9-4.2,4.2c0,2.3,1.9,4.2,4.2,4.2s4.2-1.9,4.2-4.2S52.3,413.1,50,413.1L50,413.1z"/>
	</g>
	<g>
		<path class="st6" d="M83.1,415.1c1.2,0,2.2,1,2.2,2.2s-1,2.2-2.2,2.2s-2.2-1-2.2-2.2S81.8,415.1,83.1,415.1 M83.1,413.1
			c-2.3,0-4.2,1.9-4.2,4.2c0,2.3,1.9,4.2,4.2,4.2s4.2-1.9,4.2-4.2C87.3,415,85.4,413.1,83.1,413.1L83.1,413.1z"/>
	</g>
	<g>
		<path class="st6" d="M120.5,415.1c1.2,0,2.2,1,2.2,2.2s-1,2.2-2.2,2.2s-2.2-1-2.2-2.2S119.3,415.1,120.5,415.1 M120.5,413.1
			c-2.3,0-4.2,1.9-4.2,4.2c0,2.3,1.9,4.2,4.2,4.2s4.2-1.9,4.2-4.2S122.8,413.1,120.5,413.1L120.5,413.1z"/>
	</g>
	<line class="st1" x1="56.6" y1="403" x2="56.6" y2="409.6"/>
	<line class="st1" x1="142.5" y1="403" x2="142.5" y2="409.6"/>
	<line class="st1" x1="56.6" y1="425" x2="56.6" y2="431.6"/>
	<line class="st1" x1="87.5" y1="403" x2="87.5" y2="409.6"/>
	<line class="st1" x1="87.5" y1="425" x2="87.5" y2="431.6"/>
	<line class="st1" x1="116.1" y1="403" x2="116.1" y2="409.6"/>
	<line class="st1" x1="116.1" y1="425" x2="116.1" y2="431.6"/>
	<line class="st1" x1="142.5" y1="425" x2="142.5" y2="431.6"/>
	<line class="st1" x1="31.3" y1="417.3" x2="37.9" y2="417.3"/>
	<line class="st1" x1="161.3" y1="417.3" x2="167.9" y2="417.3"/>
</g>
<g>
	<line class="st4" x1="109.1" y1="357" x2="109.1" y2="358.7"/>
	<line class="st4" x1="107.4" y1="358.7" x2="107.4" y2="360.5"/>
	<line class="st4" x1="107.4" y1="357" x2="107.4" y2="358.7"/>
	<line class="st4" x1="107.4" y1="362.2" x2="107.4" y2="364"/>
	<line class="st4" x1="112.6" y1="357" x2="112.6" y2="358.7"/>
	<line class="st4" x1="109.1" y1="360.5" x2="109.1" y2="362.2"/>
	<line class="st4" x1="110.9" y1="358.7" x2="110.9" y2="360.5"/>
	<line class="st4" x1="114.4" y1="362.2" x2="114.4" y2="364"/>
	<line class="st4" x1="110.9" y1="362.2" x2="110.9" y2="364"/>
	<line class="st4" x1="107.4" y1="364" x2="107.4" y2="365.7"/>
	<line class="st4" x1="109.1" y1="364" x2="109.1" y2="365.7"/>
	<line class="st4" x1="114.4" y1="364" x2="114.4" y2="365.7"/>
	<line class="st4" x1="112.6" y1="364" x2="112.6" y2="365.7"/>
	<line class="st4" x1="112.6" y1="360.5" x2="112.6" y2="362.2"/>
	<line class="st4" x1="112.6" y1="358.7" x2="112.6" y2="360.5"/>
	<line class="st4" x1="114.4" y1="357" x2="114.4" y2="358.7"/>
</g>
<line class="st10" x1="119.6" y1="357.9" x2="133.7" y2="357.9"/>
<line class="st10" x1="119.6" y1="361.4" x2="130.1" y2="361.4"/>
<line class="st10" x1="119.6" y1="364.9" x2="131.9" y2="364.9"/>
<g>
	<path class="st3" d="M192.3,330.5v5.3l0,0c-2.2,3.3-5.9,5.3-9.8,5.2l-62.2-0.1c-4.6,0-9.1-1.2-13-3.5l0,0
		c-3.8-2.1-6.1-6.2-6.1-10.5l0,0l0,0c0-3.9,3.1-7,7-7l0,0l0,0c13.7-2.3,26.5-8.5,36.8-17.8l3.2-2.9c3-3,7.8-2.7,10.4,0.6l6.3,7.8
		c4.7,5.9,13.8,5.1,17.4-1.5l1.2-2.3c0.7-1.3,2.5-1.2,3.1,0.1l0,0c3.7,8.3,5.6,17.2,5.6,26.2v0.4L192.3,330.5L192.3,330.5z"/>
	<path class="st3" d="M103,334l2.3,0.2c12.4,1,25,0.7,37.4-0.9L153,332c7.5-1,15.1-1.5,22.8-1.5h14.9"/>
	<path class="st4" d="M103,324.4h10.1c7.2,0,13.8,4.1,17,10.5l0,0"/>
	<path class="st4" d="M126,314.6L126,314.6c3.4,3.6,8.9,4.3,13.2,1.7l12-7.3c2.1-1.3,4.7-0.9,6.5,0.8l0,0c1.5,1.5,3.5,2.1,5.6,1.7
		l5.5-1.1"/>
	<path class="st4" d="M189.7,313.9l-12.5,2.9c-6,1.4-10.2,6.7-10.2,12.9l0,0"/>
	<path class="st4" d="M136,317.9l0.2,0.3c4,4,6.2,9.4,6.2,15l0,0"/>
	<path class="st4" d="M142.4,313.9L142.4,313.9c5.5,5.5,13.3,8,21,6.7l8.8-1.5"/>
	<line class="st11" x1="134.5" y1="313" x2="131" y2="309.5"/>
	<line class="st11" x1="139.8" y1="309.5" x2="136.3" y2="306"/>
	<line class="st11" x1="145" y1="306" x2="141.5" y2="302.5"/>
	<line class="st11" x1="150.3" y1="302.5" x2="146.8" y2="299"/>
	<line class="st4" x1="166.1" y1="341" x2="157.3" y2="332.3"/>
	<line class="st4" x1="174.8" y1="341" x2="164.3" y2="330.5"/>
	<line class="st4" x1="183.6" y1="341" x2="173.1" y2="330.5"/>
</g>
<path class="st3" d="M169.4,351.7h-68.9c-0.6,0-1-0.4-1-1v-8.5c0-0.6,0.4-1,1-1h68.8c0.6,0,1,0.4,1,1v8.5
	C170.4,351.3,169.9,351.7,169.4,351.7z"/>
<path class="st3" d="M166.8,351.6H103c-1,0-1.8,0.8-1.8,1.8v33.3c0,1,0.8,1.8,1.8,1.8h56.1h7.8c1,0,1.8-0.8,1.8-1.8v-33.3
	C168.6,352.4,167.8,351.6,166.8,351.6z"/>
<g>
	<path class="st6" d="M159.8,352.4v4c0,0.6-0.4,1-1,1h-10c-0.6,0-1-0.4-1-1v-4H159.8 M160.8,351.4h-14v5c0,1.1,0.9,2,2,2h10
		c1.1,0,2-0.9,2-2V351.4L160.8,351.4z"/>
</g>
<line class="st10" x1="102.1" y1="370.1" x2="119.6" y2="387.6"/>
<g>
	<line class="st4" x1="109.1" y1="357" x2="109.1" y2="358.7"/>
	<line class="st4" x1="107.4" y1="358.7" x2="107.4" y2="360.5"/>
	<line class="st4" x1="107.4" y1="357" x2="107.4" y2="358.7"/>
	<line class="st4" x1="107.4" y1="362.2" x2="107.4" y2="364"/>
	<line class="st4" x1="112.6" y1="357" x2="112.6" y2="358.7"/>
	<line class="st4" x1="109.1" y1="360.5" x2="109.1" y2="362.2"/>
	<line class="st4" x1="110.9" y1="358.7" x2="110.9" y2="360.5"/>
	<line class="st4" x1="114.4" y1="362.2" x2="114.4" y2="364"/>
	<line class="st4" x1="110.9" y1="362.2" x2="110.9" y2="364"/>
	<line class="st4" x1="107.4" y1="364" x2="107.4" y2="365.7"/>
	<line class="st4" x1="109.1" y1="364" x2="109.1" y2="365.7"/>
	<line class="st4" x1="114.4" y1="364" x2="114.4" y2="365.7"/>
	<line class="st4" x1="112.6" y1="364" x2="112.6" y2="365.7"/>
	<line class="st4" x1="112.6" y1="360.5" x2="112.6" y2="362.2"/>
	<line class="st4" x1="112.6" y1="358.7" x2="112.6" y2="360.5"/>
	<line class="st4" x1="114.4" y1="357" x2="114.4" y2="358.7"/>
</g>
<line class="st10" x1="119.6" y1="357.9" x2="133.7" y2="357.9"/>
<line class="st10" x1="119.6" y1="361.4" x2="130.1" y2="361.4"/>
<line class="st10" x1="119.6" y1="364.9" x2="131.9" y2="364.9"/>
<g>
	<path class="st3" d="M192.3,330.5v5.3l0,0c-2.2,3.3-5.9,5.3-9.8,5.2l-62.2-0.1c-4.6,0-9.1-1.2-13-3.5l0,0
		c-3.8-2.1-6.1-6.2-6.1-10.5l0,0l0,0c0-3.9,3.1-7,7-7l0,0l0,0c13.7-2.3,26.5-8.5,36.8-17.8l3.2-2.9c3-3,7.8-2.7,10.4,0.6l6.3,7.8
		c4.7,5.9,13.8,5.1,17.4-1.5l1.2-2.3c0.7-1.3,2.5-1.2,3.1,0.1l0,0c3.7,8.3,5.6,17.2,5.6,26.2v0.4L192.3,330.5L192.3,330.5z"/>
	<path class="st3" d="M103,334l2.3,0.2c12.4,1,25,0.7,37.4-0.9L153,332c7.5-1,15.1-1.5,22.8-1.5h14.9"/>
	<path class="st4" d="M103,324.4h10.1c7.2,0,13.8,4.1,17,10.5l0,0"/>
	<path class="st4" d="M126,314.6L126,314.6c3.4,3.6,8.9,4.3,13.2,1.7l12-7.3c2.1-1.3,4.7-0.9,6.5,0.8l0,0c1.5,1.5,3.5,2.1,5.6,1.7
		l5.5-1.1"/>
	<path class="st4" d="M189.7,313.9l-12.5,2.9c-6,1.4-10.2,6.7-10.2,12.9l0,0"/>
	<path class="st4" d="M136,317.9l0.2,0.3c4,4,6.2,9.4,6.2,15l0,0"/>
	<path class="st4" d="M142.4,313.9L142.4,313.9c5.5,5.5,13.3,8,21,6.7l8.8-1.5"/>
	<line class="st11" x1="134.5" y1="313" x2="131" y2="309.5"/>
	<line class="st11" x1="139.8" y1="309.5" x2="136.3" y2="306"/>
	<line class="st11" x1="145" y1="306" x2="141.5" y2="302.5"/>
	<line class="st11" x1="150.3" y1="302.5" x2="146.8" y2="299"/>
	<line class="st4" x1="166.1" y1="341" x2="157.3" y2="332.3"/>
	<line class="st4" x1="174.8" y1="341" x2="164.3" y2="330.5"/>
	<line class="st4" x1="183.6" y1="341" x2="173.1" y2="330.5"/>
</g>
<line class="st10" x1="102.1" y1="370.1" x2="119.6" y2="387.6"/>
<g>
	<line class="st4" x1="39.9" y1="357.4" x2="39.9" y2="359.1"/>
	<line class="st4" x1="38.2" y1="359.1" x2="38.2" y2="360.9"/>
	<line class="st4" x1="38.2" y1="357.4" x2="38.2" y2="359.1"/>
	<line class="st4" x1="38.2" y1="362.6" x2="38.2" y2="364.4"/>
	<line class="st4" x1="43.4" y1="357.4" x2="43.4" y2="359.1"/>
	<line class="st4" x1="39.9" y1="360.9" x2="39.9" y2="362.6"/>
	<line class="st4" x1="41.7" y1="359.1" x2="41.7" y2="360.9"/>
	<line class="st4" x1="45.2" y1="362.6" x2="45.2" y2="364.4"/>
	<line class="st4" x1="41.7" y1="362.6" x2="41.7" y2="364.4"/>
	<line class="st4" x1="38.2" y1="364.4" x2="38.2" y2="366.1"/>
	<line class="st4" x1="39.9" y1="364.4" x2="39.9" y2="366.1"/>
	<line class="st4" x1="45.2" y1="364.4" x2="45.2" y2="366.1"/>
	<line class="st4" x1="43.4" y1="364.4" x2="43.4" y2="366.1"/>
	<line class="st4" x1="43.4" y1="360.9" x2="43.4" y2="362.6"/>
	<line class="st4" x1="43.4" y1="359.1" x2="43.4" y2="360.9"/>
	<line class="st4" x1="45.2" y1="357.4" x2="45.2" y2="359.1"/>
</g>
<line class="st10" x1="50.4" y1="358.2" x2="64.5" y2="358.2"/>
<line class="st10" x1="50.4" y1="361.7" x2="61" y2="361.7"/>
<line class="st10" x1="50.4" y1="365.2" x2="62.7" y2="365.2"/>
<path class="st3" d="M92.1,352.1H31.3c-0.6,0-1-0.4-1-1v-8.5c0-0.6,0.4-1,1-1h60.8c0.6,0,1,0.4,1,1v8.5
	C93.1,351.7,92.6,352.1,92.1,352.1z"/>
<line class="st10" x1="32.9" y1="370.5" x2="50.4" y2="388"/>
<path class="st12" d="M101.2,388"/>
<g>
	<line class="st4" x1="39.9" y1="357.4" x2="39.9" y2="359.1"/>
	<line class="st4" x1="38.2" y1="359.1" x2="38.2" y2="360.9"/>
	<line class="st4" x1="38.2" y1="357.4" x2="38.2" y2="359.1"/>
	<line class="st4" x1="38.2" y1="362.6" x2="38.2" y2="364.4"/>
	<line class="st4" x1="43.4" y1="357.4" x2="43.4" y2="359.1"/>
	<line class="st4" x1="39.9" y1="360.9" x2="39.9" y2="362.6"/>
	<line class="st4" x1="41.7" y1="359.1" x2="41.7" y2="360.9"/>
	<line class="st4" x1="45.2" y1="362.6" x2="45.2" y2="364.4"/>
	<line class="st4" x1="41.7" y1="362.6" x2="41.7" y2="364.4"/>
	<line class="st4" x1="38.2" y1="364.4" x2="38.2" y2="366.1"/>
	<line class="st4" x1="39.9" y1="364.4" x2="39.9" y2="366.1"/>
	<line class="st4" x1="45.2" y1="364.4" x2="45.2" y2="366.1"/>
	<line class="st4" x1="43.4" y1="364.4" x2="43.4" y2="366.1"/>
	<line class="st4" x1="43.4" y1="360.9" x2="43.4" y2="362.6"/>
	<line class="st4" x1="43.4" y1="359.1" x2="43.4" y2="360.9"/>
	<line class="st4" x1="45.2" y1="357.4" x2="45.2" y2="359.1"/>
</g>
<line class="st10" x1="50.4" y1="358.2" x2="64.5" y2="358.2"/>
<line class="st10" x1="50.4" y1="361.7" x2="61" y2="361.7"/>
<line class="st10" x1="50.4" y1="365.2" x2="62.7" y2="365.2"/>
<path class="st3" d="M91.2,352H33.8c-1,0-1.8,0.8-1.8,1.8v33.3c0,1,0.8,1.8,1.8,1.8h56.1h1.7l0.1-36.9H91.2z"/>
<line class="st10" x1="32.9" y1="370.5" x2="50.4" y2="388"/>
<path class="st12" d="M101.2,388"/>
<g>
	<path class="st13" d="M29.6,326.7c0.3,0,0.6,0,0.9-0.1"/>
	<g>
		<g>
			<path d="M30,329.4L30,329.4C30,329.4,30.1,329.4,30,329.4C30.1,329.4,30,329.4,30,329.4z"/>
			<g>
				<path class="st6" d="M68.4,290c1,0.8,3.2,2.7,5,5.5c3.1,4.7,3.4,9.5,0.9,14.2l0,0l0,0c-0.3,0.7-3.3,7.1-3.5,12
					c-0.2,4.2-0.1,13.7,0,16.5h-3.1V318v-4.9l-3.4,3.4c-3,3-6.9,7.5-8.2,11.7c-0.3,0.8-0.5,1.6-0.7,2.4c-1.4,5-2.4,8.6-10.4,8.9
					c-1.6,0.1-3.2,0.1-4.7,0.1c-12,0-17.5-1.7-18.1-1.9h-0.1H22c-0.1,0-2.8-0.7-2.8-2.8c0-0.8,0.4-2.3,2-2.9
					c0.9-0.4,2.9-1.1,5.8-2.2l8.4-3l1.8-0.6c0.7,0.3,2.6,1,4.6,1c2.6,0,5.9-1.1,7.1-6.2c1-4.3,3.8-10.4,7.5-16.4
					C60.4,298.4,64.6,293.2,68.4,290 M68.4,287.8c-0.3,0-0.5,0.1-0.8,0.3c-4.1,3.3-8.6,8.8-12.7,15.5c-3.8,6.2-6.7,12.5-7.7,17
					c-0.7,3.1-2.4,4.6-5.2,4.6l0,0c-2.1,0-4-0.9-4.1-0.9c-0.2-0.1-0.4-0.1-0.5-0.1c-0.1,0-0.3,0-0.4,0.1c-0.1,0-0.9,0.3-2.1,0.7
					l-8.4,3c-2.5,0.9-4.8,1.8-5.9,2.2c-2.3,0.9-3.3,3.1-3.3,4.8c0,2.9,2.7,4.3,4.3,4.7c0.7,0.2,6.4,2,18.7,2l0,0
					c1.5,0,3.2,0,4.8-0.1c9.4-0.3,10.8-5.2,12.2-10.3c0.2-0.8,0.4-1.5,0.7-2.3c1.2-4,5.2-8.4,7.7-10.9v21c0,0.7,0.5,1.2,1.2,1.2h4.7
					c0.3,0,0.6-0.1,0.9-0.4c0.2-0.2,0.4-0.6,0.3-0.9c0-0.1-0.2-12.3,0-17.2c0.2-4.5,3.1-10.8,3.3-11.2c2.8-5.3,2.5-11-1-16.3
					c-2.6-3.9-5.9-6.3-6-6.4C68.9,287.9,68.6,287.8,68.4,287.8L68.4,287.8z"/>
			</g>
		</g>
		<g>
			<path d="M70.8,292.9L70.8,292.9L70.8,292.9L70.8,292.9L70.8,292.9z"/>
		</g>
	</g>
	<path class="st4" d="M28.6,328.6l5.5,1.5c2,0.5,4.5,1,7,1c1.9,0,3.9-0.3,5.7-1.1c2.8-1.2,4.7-3.4,5.7-6.5
		c1.9-5.8,5.1-12.4,8.8-18.2c2.9-4.5,7.7-9.7,10.3-11.9"/>
	
		<ellipse transform="matrix(0.9454 -0.3259 0.3259 0.9454 -103.9577 27.8352)" class="st14" cx="31.1" cy="324.2" rx="4.5" ry="2.4"/>
</g>
<g>
	<g>
		<g>
			<path class="st6" d="M1157.5,310v2.7H976.8V310H1157.5 M1158.5,309H975.8v4.7h182.7V309L1158.5,309z"/>
		</g>
		<line class="st15" x1="986.9" y1="319.6" x2="976.1" y2="313.3"/>
		<line class="st15" x1="1147.9" y1="319.2" x2="1158.1" y2="313.3"/>
		<g>
			<path class="st6" d="M1146.6,320.8v1.9H988v-1.9H1146.6 M1148.6,318.8H986v5.9h162.6V318.8L1148.6,318.8z"/>
		</g>
		<g>
			<path class="st6" d="M1146.6,324.9v90H988v-90H1146.6 M1148.6,322.9H986v94h162.6V322.9L1148.6,322.9z"/>
		</g>
		<g>
			<path class="st6" d="M1059.3,417.4v15.8h-77.4v-15.8H1059.3 M1061.3,415.3h-81.4v20h81.4V415.3L1061.3,415.3z"/>
		</g>
		<g>
			<path class="st6" d="M1150.1,417.4v15.8h-37.6v-15.8H1150.1 M1152.1,415.3h-41.6v20h41.6V415.3L1152.1,415.3z"/>
		</g>
		<g>
			<g>
				<path class="st6" d="M1138.5,283.8v25.4h-139v-25.4H1138.5 M1139.5,282.8h-141v27.4h141V282.8L1139.5,282.8z"/>
			</g>
			<g class="st7">
				<path class="st6" d="M1016,304v-15.7h3.1l3.7,11.2c0.3,1,0.6,1.8,0.8,2.3c0.2-0.6,0.5-1.4,0.8-2.5l3.8-11h2.8V304h-2v-13.2
					l-4.6,13.2h-1.9l-4.6-13.4V304H1016z"/>
				<path class="st6" d="M1033.6,304l6-15.7h2.2l6.4,15.7h-2.4l-1.8-4.8h-6.6l-1.7,4.8H1033.6z M1038.2,297.5h5.3l-1.6-4.4
					c-0.5-1.3-0.9-2.4-1.1-3.3c-0.2,1-0.5,2-0.8,3L1038.2,297.5z"/>
				<path class="st6" d="M1051.1,288.2h10.2v1.9h-8.1V304h-2.1V288.2z"/>
				<path class="st6" d="M1060.7,304l6-15.7h2.2l6.4,15.7h-2.4l-1.8-4.8h-6.6l-1.7,4.8H1060.7z M1065.3,297.5h5.3l-1.6-4.4
					c-0.5-1.3-0.9-2.4-1.1-3.3c-0.2,1-0.5,2-0.8,3L1065.3,297.5z"/>
				<path class="st6" d="M1077,299.5l2-0.5c0.2,0.8,0.6,1.5,1.2,2.3s1.5,1.1,2.6,1.1c1.1,0,2-0.3,2.6-0.8c0.6-0.6,1-1.3,1-2.1
					c0-0.9-0.3-1.6-1-2.1c-0.7-0.5-1.6-0.8-2.8-0.8h-1v-1.8c1,0,1.7-0.1,2.2-0.2c0.5-0.1,1-0.4,1.3-0.8c0.4-0.5,0.6-1,0.6-1.6
					c0-0.7-0.3-1.3-0.8-1.8s-1.3-0.8-2.2-0.8c-0.8,0-1.5,0.2-2,0.6c-0.6,0.4-1,0.9-1.2,1.6c-0.2,0.7-0.3,1.1-0.3,1.5l-2-0.5
					c0.5-3.3,2.3-5,5.5-5c1.5,0,2.8,0.4,3.7,1.3c0.9,0.9,1.4,1.9,1.4,3c0,1.5-0.7,2.6-2.1,3.4c0.8,0.2,1.5,0.7,2,1.4
					c0.5,0.7,0.8,1.5,0.8,2.5c0,1.4-0.5,2.5-1.6,3.4c-1,0.9-2.4,1.4-4.2,1.4C1079.9,304.2,1077.9,302.7,1077,299.5z"/>
				<path class="st6" d="M1092.2,288.2h1.9v12.5l8.4-12.5h2.1V304h-1.9v-12.4l-8.4,12.4h-2.1V288.2z"/>
				<path class="st6" d="M1109,304v-15.7h2.1v6.5h8.2v-6.5h2.1V304h-2.1v-7.4h-8.2v7.4H1109z"/>
			</g>
		</g>
		<g>
			<line class="st16" x1="979.9" y1="434.3" x2="1152.1" y2="434.3"/>
		</g>
		<g>
			<g>
				<path class="st6" d="M1110.3,427.4v6.7h-48.8v-6.7H1110.3 M1111.3,426.4h-50.8v8.7h50.8V426.4L1111.3,426.4z"/>
			</g>
			<path class="st15" d="M1111.3,429.5"/>
			<path class="st15" d="M1061.3,429.5"/>
		</g>
		<g>
			<g>
				<path class="st6" d="M1110.3,419.9v7.4h-48.8v-7.4H1110.3 M1111.3,418.9h-50.8v9.4h50.8V418.9L1111.3,418.9z"/>
			</g>
			<line class="st15" x1="1061.3" y1="423.4" x2="1111.3" y2="423.4"/>
		</g>
		<g>
			<path class="st6" d="M1043.4,335.7v73.2h-42.9v-73.2H1043.4 M1045.4,333.7h-46.9v77.2h46.9V333.7L1045.4,333.7z"/>
		</g>
		<g>
			<line class="st15" x1="998.5" y1="361" x2="1044.8" y2="361"/>
		</g>
		<g>
			<path class="st6" d="M1134.5,335.7v73.2h-9.6v-73.2H1134.5 M1136.5,333.7h-13.6v77.2h13.6V333.7L1136.5,333.7z"/>
		</g>
		<g>
			<path class="st6" d="M1109.3,335.7v83h-46.8v-83H1109.3 M1111.3,333.7h-50.8v87h50.8V333.7L1111.3,333.7z"/>
		</g>
		<g>
			<line class="st15" x1="1123.5" y1="360.5" x2="1135.5" y2="360.5"/>
		</g>
		<g>
			<path class="st6" d="M1044.4,334.7v3h-44.9v-3H1044.4 M1045.4,333.7h-46.9v5h46.9V333.7L1045.4,333.7z"/>
		</g>
		<g>
			<path class="st6" d="M1135.5,334.7v2.9h-11.6v-2.9H1135.5 M1136.5,333.7h-13.6v4.9h13.6V333.7L1136.5,333.7z"/>
		</g>
	</g>
</g>
<g>
	<path class="st6" d="M1083.1,361.7v19.5c-0.3-0.1-0.7-0.2-1.1-0.2c-1.9,0-3.5,1.6-3.5,3.6s1.6,3.6,3.5,3.6c0.4,0,0.8-0.1,1.1-0.2
		v23.9h-15.7v-50.2L1083.1,361.7 M1084.4,359.7h-18.3c-0.4,0-0.7,0.3-0.7,0.8V414h19.7v-53.5C1085.1,360,1084.8,359.7,1084.4,359.7
		L1084.4,359.7z M1082,386.2c-0.8,0-1.5-0.7-1.5-1.6s0.7-1.6,1.5-1.6s1.5,0.7,1.5,1.6S1082.8,386.2,1082,386.2L1082,386.2z"/>
</g>
<path class="st17" d="M1082.5,383c-0.8,0-1.5,0.7-1.5,1.6s0.7,1.6,1.5,1.6s1.5-0.7,1.5-1.6S1083.4,383,1082.5,383z"/>
<g>
	<path class="st6" d="M1104.2,361.7v50.2h-15.7V388c0.3,0.1,0.7,0.2,1.1,0.2c1.9,0,3.5-1.6,3.5-3.6s-1.6-3.6-3.5-3.6
		c-0.4,0-0.8,0.1-1.1,0.2v-19.5H1104.2 M1105.5,359.7h-18.3c-0.4,0-0.7,0.3-0.7,0.8V414h19.7v-53.5
		C1106.2,360,1105.9,359.7,1105.5,359.7L1105.5,359.7z M1089.6,386.2c-0.8,0-1.5-0.7-1.5-1.6s0.7-1.6,1.5-1.6s1.5,0.7,1.5,1.6
		S1090.4,386.2,1089.6,386.2L1089.6,386.2z"/>
</g>
<path class="st17" d="M1090.1,383c0.8,0,1.5,0.7,1.5,1.6s-0.7,1.6-1.5,1.6s-1.5-0.7-1.5-1.6S1089.3,383,1090.1,383z"/>
</svg>
