<svg class="sbis_ru-Footer__soc-svg vk" version="1.1" xmlns="http://www.w3.org/2000/svg" xmlns:xlink="http://www.w3.org/1999/xlink" x="0px" y="0px" viewBox="0 0 20 20" style="" xml:space="preserve" tabindex="0"><style type="text/css" xmlns="http://www.w3.org/2000/svg" class="">.st1{fill-rule:evenodd;clip-rule:evenodd;}</style><path class="sbis_ru-Footer__soc-svg__path" d="M18,20H2c-1.1045694,0-2-0.8954296-2-2V2c0-1.1045694,0.8954305-2,2-2h16c1.1045704,0,2,0.8954305,2,2v16            C20,19.1045704,19.1045704,20,18,20z" xmlns="http://www.w3.org/2000/svg"/><path class="st1 sbis_ru-Footer__soc-svg__white" d="M16.6705513,6.4118543c0.1037884-0.3261952,0-0.5634289-0.4596386-0.5634289h-1.5271893            c-0.3855038,0-0.5634289,0.2075791-0.6672173,0.429985c0,0-0.7858353,1.8978629-1.8830366,3.12851            c-0.3558483,0.3558483-0.5189476,0.4744654-0.7116995,0.4744654c-0.1037893,0-0.2372341-0.1186171-0.2372341-0.4448118V6.3970261            c0-0.3855033-0.1186171-0.5634289-0.4448118-0.5634289H8.3377399c-0.2372332,0-0.3855042,0.1779242-0.3855042,0.3558497            c0,0.3706765,0.5486007,0.4596386,0.6079106,1.4975333v2.2537127c0,0.4892941-0.0889635,0.5782547-0.2817135,0.5782547            c-0.5189471,0-1.7792473-1.9126902-2.5354271-4.0922689c-0.1482711-0.429985-0.2965417-0.5930824-0.682045-0.5930824H3.5189471            C3.0741353,5.8335962,3,6.0411754,3,6.2635813c0,0.4003301,0.5189471,2.4168119,2.4168119,5.0856829            c1.2603002,1.8237295,3.0543756,2.8023138,4.6705246,2.8023138c0.9785872,0,1.0972013-0.2224054,1.0972013-0.5930824v-1.3789167            c0-0.4448118,0.0889635-0.5189476,0.4003305-0.5189476c0.2224064,0,0.622736,0.1186171,1.5271883,0.993413            c1.0378942,1.0378942,1.2158184,1.5123596,1.794075,1.5123596h1.5271873c0.4448128,0,0.6523914-0.2224054,0.5337753-0.6523895            c-0.1334419-0.4299841-0.6375637-1.0527229-1.2899532-1.794076c-0.3558483-0.4151583-0.8896236-0.8747959-1.052722-1.0972013            c-0.2224064-0.2965412-0.1630993-0.4151583,0-0.6820459C14.6095905,9.9406958,16.4778023,7.3014779,16.6705513,6.4118543" xmlns="http://www.w3.org/2000/svg"/></svg>