<svg xmlns="http://www.w3.org/2000/svg" xmlns:xlink="http://www.w3.org/1999/xlink" version="1.1" id="Layer_1" x="0px" y="0px" viewBox="0 0 56 20" style="enable-background:new 0 0 56 20;" xml:space="preserve"><style type="text/css">
	.st0{fill:#FFFFFF;}
</style><path d="M54,20H2c-1.1045694,0-2-0.8954296-2-2V2c0-1.1045694,0.8954305-2,2-2h52c1.1045685,0,2,0.8954305,2,2v16  C56,19.1045704,55.1045685,20,54,20z"></path><path class="st0" d="M12.6076956,12.1895695c-0.0081482,0.0364017-0.2124138,0.747015-0.7211094,1.4686537  c-0.4247494,0.6353769-0.8700886,1.2561197-1.576931,1.2675915c-0.6868181,0.0158501-0.9176359-0.4041939-1.7053909-0.4041939  c-0.7951322,0-1.041151,0.3927221-1.6998768,0.4200439c-0.6731567,0.02493-1.1876116-0.6781435-1.6278024-1.3075609  c-0.8798146-1.2853861-1.5648892-3.6224241-0.6464429-5.2126083c0.4451361-0.77985,1.2568889-1.2820215,2.124218-1.2954803  c0.6737647-0.0138636,1.2994556,0.4550276,1.7137003,0.4550276c0.4063826,0,1.1795044-0.5609097,1.9769878-0.477201  c0.333498,0.0094857,1.2829952,0.1316233,1.8954277,1.0246935c-0.0494957,0.0297136-1.1310225,0.6654549-1.1191444,1.9718399  C11.2347898,11.6666422,12.5912371,12.1840153,12.6076956,12.1895695z M9.9240675,6.2584839  c0.3541307-0.4431906,0.5965824-1.0458946,0.5292912-1.6577187C9.9405251,4.6235061,9.2991896,4.9552608,8.9300604,5.3889251  C8.6034536,5.7707429,8.3115063,6.3968363,8.3869057,6.985271C8.9628954,7.0280375,9.5543299,6.6947021,9.9240675,6.2584839z   M20.0874138,14.9422426h0.9683685l-2.1291943-5.8973713h-0.989233l-2.1291943,5.8973713h0.9521313l0.539835-1.593997h2.247921  L20.0874138,14.9422426z M18.4117966,10.0257568h0.0245819l0.8783894,2.5869408h-1.781826L18.4117966,10.0257568z   M23.8435383,10.5975924c-0.6005898,0-1.1237297,0.2986717-1.3690662,0.760128h-0.0162315v-0.7151423h-0.8542747v5.7220631  h0.8825645v-2.1296568h0.0204067c0.253685,0.4781523,0.7401848,0.752244,1.3528328,0.752244  c1.0792065,0,1.7943478-0.858449,1.7943478-2.1945858C25.6541176,11.4602146,24.9348011,10.5975924,23.8435383,10.5975924z   M23.6107216,14.2391586c-0.6743298,0-1.1279011-0.580184-1.1279011-1.446516c0-0.858449,0.4535713-1.4428062,1.1279011-1.4428062  c0.686388,0,1.1362514,0.572299,1.1362514,1.4428062C24.746973,13.6710329,24.2971096,14.2391586,23.6107216,14.2391586z   M28.5759048,10.5975924c-0.6005898,0-1.1237297,0.2986717-1.3690662,0.760128h-0.0162315v-0.7151423h-0.8542747v5.7220631  h0.8825645v-2.1296568h0.0204067c0.253685,0.4781523,0.7401848,0.752244,1.3528328,0.752244  c1.0792065,0,1.7943478-0.858449,1.7943478-2.1945858C30.3864841,11.4602146,29.6671677,10.5975924,28.5759048,10.5975924z   M28.3430882,14.2391586c-0.6743298,0-1.1279011-0.580184-1.1279011-1.446516c0-0.858449,0.4535713-1.4428062,1.1279011-1.4428062  c0.686388,0,1.1362514,0.572299,1.1362514,1.4428062C29.4793396,13.6710329,29.0294762,14.2391586,28.3430882,14.2391586z   M32.6107521,13.2990856c0.057045,1.0666838,0.9400749,1.741477,2.247921,1.741477  c1.3978195,0,2.2766724-0.6910257,2.2766724-1.7943478c0-0.8626223-0.5027313-1.3486595-1.7127228-1.6348095l-0.6497498-0.1595383  c-0.760128-0.187829-1.070858-0.4331665-1.070858-0.8501005c0-0.523139,0.4865036-0.8825655,1.1974716-0.8825655  s1.1974678,0.3552523,1.2508011,0.9437838h0.8909111c-0.0287514-1.0175238-0.8830261-1.7164335-2.1291924-1.7164335  c-1.2591515,0-2.1458893,0.6989098-2.1458893,1.7164335c0,0.8218098,0.5027313,1.3282528,1.5856476,1.5898228l0.7643051,0.1841183  c0.7643013,0.18783,1.0870895,0.4619207,1.0870895,0.9196672c0,0.5273132-0.5351982,0.9113197-1.2790947,0.9113197  c-0.7763596,0-1.3444862-0.3840065-1.4098778-0.9688272H32.6107521z M38.1533356,9.6250544v1.0175238h-0.6251717v0.6989098  h0.6251717v2.4645042c0,0.833868,0.3394814,1.1608305,1.2099876,1.1608305c0.1961784,0,0.3923569-0.0162325,0.4902115-0.0408125  v-0.6947355c-0.057045,0.007884-0.2003517,0.0204058-0.2903214,0.0204058c-0.3594284,0-0.52314-0.1715965-0.52314-0.539835  v-2.3703575h0.8176384v-0.6989098h-0.8176384V9.6250544H38.1533356z M42.3704453,14.9955769  c1.2508049,0,2.0396843-0.8463907,2.0396843-2.2029343c0-1.3528337-0.7930527-2.2029343-2.0396843-2.2029343  c-1.2424545,0-2.0392189,0.8501005-2.0392189,2.2029343C40.3312263,14.1491861,41.1201057,14.9955769,42.3704453,14.9955769z   M42.3704453,14.2679129c-0.7151413,0-1.1399612-0.5435457-1.1399612-1.4752703  c0-0.9238415,0.4248199-1.4757347,1.1399612-1.4757347s1.1404266,0.547719,1.1404266,1.4757347  C43.5108719,13.7243671,43.0855865,14.2679129,42.3704453,14.2679129z M45.1377945,14.9422426h0.8825645v-2.5503025  c0-0.604763,0.3515434-0.989233,0.9196701-0.989233c0.1715965,0,0.3269615,0.02458,0.3965263,0.0533342v-0.8255215  c-0.0695648-0.0162315-0.1757698-0.0329275-0.3023834-0.0329275c-0.5069046,0-0.8992577,0.2903233-1.0342178,0.776824h-0.0204048  v-0.7318382h-0.8417549V14.9422426z M50.5676804,13.6793814c-0.1182632,0.3719482-0.5027313,0.604763-0.9929428,0.604763  c-0.6947365,0-1.1566582-0.4823265-1.1566582-1.2178745v-0.0533342h3.0368042v-0.3023815  c0-1.3036737-0.7480698-2.1208458-1.9376564-2.1208458c-1.2095261,0-1.9900589,0.8746805-1.9900589,2.22334  c0,1.3444853,0.7763596,2.1825285,2.0271606,2.1825285c0.972538,0,1.732666-0.5356617,1.8513947-1.3161955H50.5676804z   M49.5172272,11.3048496c0.6131134,0,1.0342216,0.4331665,1.0546265,1.0912647h-2.149601  C48.4672394,11.7463646,48.9082909,11.3048496,49.5172272,11.3048496z M16.9056854,6.1884775h0.3909626  c0.3946743,0,0.620533,0.1729879,0.620533,0.4538045c0,0.2768741-0.2397728,0.4732828-0.6070824,0.4732828  s-0.6163578-0.1748433-0.6418648-0.4459205h-0.4225006c0.025507,0.5048199,0.4480076,0.8385067,1.0643654,0.8385067  c0.5991974,0,1.0583363-0.3573394,1.0583363-0.8424487c0-0.3946729-0.2629604-0.6478944-0.6302719-0.6852283V5.947082  c0.3065567-0.0707259,0.5147915-0.3357735,0.5147915-0.6481261c0-0.4496307-0.3928185-0.7619834-0.9507408-0.7619834  c-0.5908489,0-0.9720726,0.31815-1.0012913,0.8287668h0.4160061c0.0255089-0.2768741,0.2416286-0.4438334,0.5718365-0.4438334  c0.3334541,0,0.5300961,0.1688147,0.5300961,0.4301519c0,0.2669029-0.2198296,0.4517174-0.5342693,0.4517174h-0.3789063V6.1884775z   M19.5612659,7.4747591c0.2810478,0,0.5147896-0.1217413,0.6423283-0.3357735h0.033392v0.3005266h0.4067307V5.9783869  c0-0.4517174-0.3023815-0.7186203-0.8385048-0.7186203c-0.4851093,0-0.8310871,0.2355981-0.874218,0.6029086h0.4085865  C19.3868866,5.711484,19.5496712,5.62499,19.7852688,5.62499c0.2889328,0,0.4378052,0.1275382,0.4378052,0.3533969v0.1845827  l-0.5792561,0.033392c-0.5082989,0.0315366-0.7953758,0.2534533-0.7953758,0.6383872  C18.8484421,7.2254796,19.1489697,7.4747591,19.5612659,7.4747591z M19.6693249,7.1195068  c-0.2295685,0-0.3965282-0.1120019-0.3965282-0.3044686c0-0.1885247,0.1335678-0.2887001,0.4280643-0.3084106l0.522213-0.033392  v0.1787853C20.223074,6.917069,19.9874744,7.1195068,19.6693249,7.1195068z M22.7497234,5.6562948V5.3010426h-1.4080238v2.1384697  h0.4220352V5.6562948H22.7497234z M24.4197788,5.265564c-0.2907867,0-0.5421543,0.1453934-0.6715469,0.388876h-0.0315361V5.3010426  h-0.4062691v2.8494377h0.4220371V7.1155648h0.033392c0.1117687,0.2258587,0.3533955,0.3591943,0.6580963,0.3591943  c0.539835,0,0.8834934-0.4259782,0.8834934-1.1054091C25.3074455,5.6896868,24.9637871,5.265564,24.4197788,5.265564z   M24.3001251,7.0958543c-0.3533974,0-0.5755463-0.2789612-0.5755463-0.7246494c0-0.4477754,0.2221489-0.7265043,0.5774002-0.7265043  c0.3575726,0,0.571373,0.2729321,0.571373,0.7246494C24.8733521,6.8229222,24.6595516,7.0958543,24.3001251,7.0958543z   M26.044384,8.2151766c0.4359493,0,0.6381569-0.1669588,0.8208828-0.6873155l0.7972317-2.2268186h-0.4475441L26.680685,6.9996209  h-0.033392l-0.5361252-1.6985784h-0.4596004l0.7740402,2.1463537l-0.0315361,0.1041174  c-0.072813,0.215888-0.1864376,0.29844-0.3867893,0.29844c-0.0394211,0-0.1043491-0.0018554-0.1377411-0.0078845v0.3633685  C25.9089622,8.211235,26.0091381,8.2151766,26.044384,8.2151766z M28.8766632,7.4787011  c0.5282402,0,0.8742161-0.26899,0.8742161-0.6754889c0-0.2376852-0.1414509-0.4162388-0.4183254-0.4811673v-0.033392  c0.2022057-0.0489283,0.3376293-0.2237716,0.3376293-0.4378042c0-0.3612814-0.2907887-0.5910821-0.7990856-0.5910821  c-0.4832554,0-0.7995491,0.2453375-0.84268,0.6263289h0.4067307c0.0273628-0.1688142,0.1998863-0.2689896,0.4359493-0.2689896  c0.2592506,0,0.3849335,0.1198859,0.3849335,0.2768741c0,0.1787853-0.129858,0.2768741-0.3849335,0.2768741h-0.3144398v0.327889  h0.3200054c0.2986717,0,0.4535713,0.0983205,0.4535713,0.3044691c0,0.1924667-0.1725235,0.3162947-0.4535713,0.3162947  c-0.2471924,0-0.4238911-0.0983205-0.465168-0.2868452h-0.4201813C28.0302715,7.2646685,28.4096413,7.4787011,28.8766632,7.4787011z   M30.7769833,7.4395123l0.9873791-1.4787488h0.0315361v1.4787488h0.4183235V5.3010426h-0.4183235l-0.9855232,1.4708643h-0.033392  V5.3010426h-0.4183254v2.1384697H30.7769833z M34.5187263,5.3010426h-1.7693062v0.3552523h0.6734047v1.7832174h0.4224968V5.6562948  h0.6734047V5.3010426z M36.3854218,6.8621116c-0.0783768,0.1669593-0.2532196,0.2592506-0.508297,0.2592506  c-0.3380928,0-0.5560684-0.2376852-0.569519-0.612648V6.4850616h1.5100555V6.3378129  c0-0.6715469-0.3594284-1.0780463-0.9544525-1.0780463c-0.6029053,0-0.9859848,0.4338622-0.9859848,1.1172357  c0,0.6836052,0.3751945,1.103786,0.9878426,1.103786c0.4888191,0,0.8306198-0.2355981,0.9270859-0.6186767H36.3854218z   M35.8613548,5.6189609c0.3121223,0,0.5161819,0.2182064,0.5259209,0.5539799h-1.07967  C35.3307953,5.8390226,35.5487709,5.6189609,35.8613548,5.6189609z M38.581398,7.4395123h0.9739304  c0.4693413,0,0.7499237-0.2434826,0.7499237-0.61659c0-0.2592506-0.1804085-0.4614568-0.457283-0.4929934v-0.033392  c0.2082367-0.0391889,0.3612823-0.2355981,0.3612823-0.4517174c0-0.3318315-0.2453384-0.543777-0.663662-0.543777H38.581398  V7.4395123z M39.4648933,5.62499c0.2240028,0,0.3302078,0.1080599,0.3302078,0.2747869  c0,0.1808724-0.1219749,0.2789612-0.3770523,0.2789612h-0.4183235V5.62499H39.4648933z M39.4472694,6.4890041  c0.2847557,0,0.4359474,0.1001754,0.4359474,0.314208c0,0.2022061-0.1335678,0.3123527-0.3830795,0.3123527h-0.500412V6.4890041  H39.4472694z"></path></svg>