<svg class="sbis_ru-Footer__soc-svg fb" version="1.1" xmlns="http://www.w3.org/2000/svg" xmlns:xlink="http://www.w3.org/1999/xlink" x="0px" y="0px" viewBox="0 0 20 20" style="" xml:space="preserve" tabindex="0"><path class="sbis_ru-Footer__soc-svg__path" d="M18,20H2c-1.1045694,0-2-0.8954296-2-2V2c0-1.1045694,0.8954305-2,2-2h16c1.1045704,0,2,0.8954305,2,2v16            C20,19.1045704,19.1045704,20,18,20z" xmlns="http://www.w3.org/2000/svg"/><path class="sbis_ru-Footer__soc-svg__white" d="M13.2423105,20v-7.2882223h2.4570351l0.367837-2.8527126h-2.824872V8.0421133            c0-0.8239541,0.2287931-1.3854489,1.4103899-1.3854489l1.4975376-0.0006852V4.1120567            C15.8896589,4.0774422,14.9956865,4,13.9556017,4c-2.1714258,0-3.6580276,1.32549-3.6580276,3.759728v2.0993371H7.8497624v2.8527126            h2.4478116V20H13.2423105z" xmlns="http://www.w3.org/2000/svg"/></svg>