<svg class="" xmlns="http://www.w3.org/2000/svg" viewBox="0 0 106 41" tabindex="0">
<path d="M4.756 41c-2.948 0-5.231-2.613-4.66-5.507L1.99 25.32C2.56 22.24 5.319 20 8.553 20h7.705l-3.805 3.733h-.666c-1.807 0-3.424 1.307-3.71 3.08L6.754 34c-.285 1.68 1.046 3.267 2.854 3.267h1.807L15.22 41H4.756zm61.75 0c-2.948 0-5.23-2.613-4.66-5.507L63.74 25.32c.57-3.08 3.33-5.32 6.564-5.32h7.704l-3.804 3.733h-.666c-1.808 0-3.425 1.307-3.71 3.08L68.504 34c-.285 1.68 1.047 3.267 2.854 3.267h1.807L76.97 41H66.507zM38.71 26.627l-1.611 8.306C36.432 38.48 33.293 41 29.583 41h-8.846c-2.949 0-5.232-2.707-4.661-5.507l3.33-17.173c.57-3.08 3.328-5.32 6.563-5.32h8.275l-3.805 3.733h-.856c-1.807 0-3.183 1.027-4.04 2.614l-.31.653h7.864c3.615 0 6.278 3.173 5.612 6.627zm-9.227-2.894H27.96c-1.807 0-3.424 1.307-3.71 3.08L22.926 34c-.286 1.68 1.046 3.267 2.853 3.267H27.3c1.808 0 3.425-1.307 3.71-3.08L32.336 27c.285-1.68-1.046-3.267-2.854-3.267zm10.142 11.76c-.57 2.894 1.712 5.507 4.66 5.507h9.798c1.888 0 2.759-1.867 2.759-1.867L58.173 41l3.218-16.707a4.669 4.669 0 0 0-1.331-4.2L59.964 20l-4.756 3.733-2.172 11.294a2.828 2.828 0 0 1-2.759 2.24h-1.236c-1.807 0-3.14-1.587-2.759-3.36l2.43-9.707c.286-1.493-.733-3.08-1.874-4.2h-.19l-4.757 3.733-2.267 11.76z" xmlns="http://www.w3.org/2000/svg"></path>
<path fill="#05456a" d="M101.24 15.093h-.001l-.668-5.574-2.703 3.463 1.491 2.561 1.981.392zM93.184 19.032L87.097 8.736l-5.036-2.654c-.037-.02-.077.023-.055.059l9.368 15.171-7.29 9.355c-.046.06.033.135.09.086l8.716-7.564-.026.022.32-4.179z" xmlns="http://www.w3.org/2000/svg"></path>
<path fill="#4d95d1" d="M101.239 15.094l4.372-7.383a.042.042 0 0 0-.051-.06l-4.989 1.868.668 5.575zM84.105 1.01c-.033-.028-.082.007-.066.047l7.82 19.632 1.005 2.522.026-.022 8.45-7.254L84.105 1.01z" xmlns="http://www.w3.org/2000/svg"></path></svg>
