<svg class="sbis_ru-Footer__soc-svg ok" version="1.1" xmlns="http://www.w3.org/2000/svg" xmlns:xlink="http://www.w3.org/1999/xlink" x="0px" y="0px" viewBox="0 0 20 20" style="" xml:space="preserve" tabindex="0"><path class="sbis_ru-Footer__soc-svg__path" d="M18,20H2c-1.1045694,0-2-0.8954296-2-2V2c0-1.1045694,0.8954305-2,2-2h16c1.1045704,0,2,0.8954305,2,2v16            C20,19.1045704,19.1045704,20,18,20z" xmlns="http://www.w3.org/2000/svg"/><g xmlns="http://www.w3.org/2000/svg" class=""><path class="sbis_ru-Footer__soc-svg__white" d="M10.0001831,10.2257347c1.9926281,0,3.6131964-1.6201248,3.6131964-3.6121054                C13.6133795,4.6207843,11.9928112,3,10.0001831,3S6.3867702,4.6207843,6.3867702,6.6136293                C6.3867702,8.6056099,8.0075541,10.2257347,10.0001831,10.2257347z M10.0001831,5.1175852                c0.8247633,0,1.4960327,0.6710529,1.4960327,1.4960442c0,0.8241153-0.6712694,1.4953842-1.4960327,1.4953842                c-0.8245478,0-1.4960442-0.6712689-1.4960442-1.4953842C8.5041389,5.7886381,9.1756353,5.1175852,10.0001831,5.1175852z" xmlns="http://www.w3.org/2000/svg"/><path class="sbis_ru-Footer__soc-svg__white" d="M11.4618092,13.172986c0.7354755-0.1675415,1.4452238-0.4585276,2.0981236-0.8690777                c0.4946394-0.3115273,0.6435957-0.9650755,0.3320684-1.4594984c-0.3113222-0.4955044-0.9646425-0.6444721-1.4597149-0.3329334                c-1.4800396,0.9306908-3.3855429,0.9302588-4.8647189,0c-0.4952993-0.3115387-1.1484041-0.162571-1.4594989,0.3329334                c-0.3115382,0.4948559-0.1627984,1.1479712,0.3318524,1.4594984c0.6528888,0.4101181,1.362432,0.7015362,2.097692,0.8690777                l-2.0196538,2.0200968c-0.4131322,0.4133492-0.4131322,1.0833206,0.0004325,1.4968967                c0.2068958,0.2064648,0.4773517,0.3097992,0.7480221,0.3097992c0.2713189,0,0.5421948-0.1033344,0.7488861-0.3097992                l1.9844055-1.9850645l1.9859295,1.9850645c0.4126997,0.4133606,1.0829,0.4133606,1.4960318,0                c0.4142246-0.4135761,0.4142246-1.0839806,0-1.4968967L11.4618092,13.172986z" xmlns="http://www.w3.org/2000/svg"/></g></svg>