<svg class="sbis_ru-Footer__soc-svg yt" version="1.1" xmlns="http://www.w3.org/2000/svg" xmlns:xlink="http://www.w3.org/1999/xlink" x="0px" y="0px" viewBox="0 0 20 20" style="" xml:space="preserve" tabindex="0"><path class="sbis_ru-Footer__soc-svg__path" d="M18,20H2c-1.1045694,0-2-0.8954296-2-2V2c0-1.1045694,0.8954305-2,2-2h16c1.1045704,0,2,0.8954305,2,2v16            C20,19.1045704,19.1045704,20,18,20z" xmlns="http://www.w3.org/2000/svg"/><path class="sbis_ru-Footer__soc-svg__white" d="M17.6656666,6.2176671c-0.1840057-0.6761079-0.7261696-1.2085829-1.4145622-1.3893046            C15.0033407,4.5,10.0000057,4.5,10.0000057,4.5s-5.0033402,0-6.2511044,0.3283625            c-0.6883934,0.1807218-1.230552,0.7131968-1.414562,1.3893046C2,7.4431429,2,9.9999943,2,9.9999943s0,2.5568581,0.3343394,3.7823391            c0.18401,0.6761026,0.7261686,1.2085762,1.414562,1.3892937C4.9966655,15.5,10.0000057,15.5,10.0000057,15.5            s5.003335,0,6.2510986-0.328373c0.6883926-0.1807175,1.2305565-0.713191,1.4145622-1.3892937            C18,12.5568523,18,9.9999943,18,9.9999943S18,7.4431429,17.6656666,6.2176671z M8.363636,12.3214273V7.6785722l4.181819,2.3214984            L8.363636,12.3214273z" xmlns="http://www.w3.org/2000/svg"/></svg>