<?xml version="1.0" standalone="no"?>
<!DOCTYPE svg PUBLIC "-//W3C//DTD SVG 1.1//EN" "http://www.w3.org/Graphics/SVG/1.1/DTD/svg11.dtd" >
<svg xmlns="http://www.w3.org/2000/svg">
<metadata>
<json>
<![CDATA[
{
	"fontFamily": "cbuc-icons",
	"majorVersion": 1,
	"minorVersion": 26,
	"version": "Version 1.26",
	"fontId": "cbuc-icons",
	"psName": "cbuc-icons",
	"subFamily": "Regular",
	"fullName": "cbuc-icons",
	"description": "Font generated by IcoMoon."
}
]]>
</json>
</metadata>
<defs>
<font id="cbuc-icons" horiz-adv-x="512">
<font-face units-per-em="512" ascent="480" descent="-32" />
<missing-glyph horiz-adv-x="512" />
<glyph unicode="&#x20;" horiz-adv-x="256" d="" />
<glyph unicode="&#xe76;" glyph-name="ViewBack" data-tags="ViewBack" d="M416 416v-64l-128-128 128-128v-64l-192 192zM256 416v-64l-128-128 128-128v-64l-192 192z" />
<glyph unicode="&#xe600;" glyph-name="WiFi" data-tags="WiFi" d="M256.028 211.876c-41.312 0-80.908-17.092-108.592-46.84-11.624-12.5-10.656-31.876 2.188-43.252 12.84-11.376 32.684-10.436 44.34 2.124 15.812 17 38.436 26.752 62.064 26.752 23.596 0 46.248-9.78 62.124-26.844 6.22-6.656 14.72-10.064 23.28-10.064 7.5 0 15.064 2.656 21.092 7.936 12.844 11.376 13.78 30.72 2.124 43.252-27.744 29.84-67.336 46.936-108.62 46.936zM256.028 313.972c-66.936 0-129.904-25.312-177.216-71.188-12.312-11.936-12.376-31.316-0.124-43.316 12.22-11.968 32.124-12.032 44.408-0.092 35.464 34.408 82.684 53.344 132.932 53.344 50.156 0 97.372-19 132.904-53.44 6.124-5.968 14.156-8.936 22.156-8.936 8.064 0 16.124 3.032 22.252 9.064 12.252 12 12.188 31.376-0.124 43.284-47.408 45.936-110.312 71.28-177.188 71.28zM502.308 319.532c-66.532 62.188-154 96.468-246.28 96.468-92.408 0-179.904-34.22-246.372-96.404-12.5-11.688-12.908-31.064-0.908-43.252 12-12.252 31.876-12.624 44.408-0.936 54.688 51.188 126.748 79.34 202.872 79.34 76 0 148.028-28.184 202.84-79.404 6.092-5.688 13.876-8.564 21.72-8.564 8.28 0 16.5 3.188 22.688 9.468 12 12.224 11.564 31.596-0.968 43.284zM256.028 106.004c-20.968 0-37.936-16.532-37.936-37s16.968-37 37.936-37c20.94 0 37.94 16.532 37.94 37s-17 37-37.94 37z" />
<glyph unicode="&#xe601;" glyph-name="Wallet" data-tags="Wallet" d="M448 256h-48c0 0-48 0-48-48s48-48 48-48h32c3 0 8 0 16 0 32 0 32 32 32 32s0 0 0 32-32 32-32 32zM336 208c0 64 64 64 64 64h48v80h-64v64h-256c0 0-64 0-64-64 0-32 0-112 0-112v-112c0-64 64-64 64-64h320v80h-48c0 0-64 0-64 64zM112 352c0 0-16 0-16 16s16 16 16 16h240v-32h-240z" />
<glyph unicode="&#xe602;" glyph-name="Vacation" data-tags="Vacation" d="M252.8-32s35.2 196.48 38.72 224c1.181 15.18 1.854 32.871 1.854 50.72s-0.673 35.54-1.995 53.050l0.142-2.33-22.4 21.12-21.12-21.12c-2.19-54.091-12.799-105.041-30.55-152.506l1.11 3.387c-12.16-35.84-49.92-176.32-49.92-176.32h84.16zM422.080 341.44c-20.354 16.642-44.886 28.995-71.752 35.282l-1.208 0.238c-10.503 3.517-22.598 5.547-35.166 5.547-9.206 0-18.157-1.089-26.732-3.145l0.779 0.158c15.531 18.541 38.23 30.636 63.778 31.99l0.222 0.010c7.055 1.411 15.164 2.219 23.462 2.219 33.327 0 63.611-13.030 86.034-34.273l-0.057 0.053c-1.252 26.553-16.581 49.257-38.645 60.929l-0.395 0.191c-14.526 6.211-31.428 9.821-49.172 9.821-5.225 0-10.377-0.313-15.438-0.921l0.611 0.060c-32.975-5.466-62.538-14.827-90.089-27.762l2.089 0.882c-28.006 18.573-62.399 29.633-99.374 29.633-14.002 0-27.634-1.586-40.725-4.589l1.22 0.236c-32.531-10.037-55.76-39.836-55.76-75.060 0-5.142 0.495-10.168 1.44-15.034l-0.080 0.494c10.514 28.632 37.543 48.691 69.257 48.691 0.964 0 1.925-0.018 2.881-0.055l-0.137 0.004c1.546 0.079 3.357 0.125 5.178 0.125 28.187 0 53.833-10.879 72.969-28.666l-0.066 0.061c-5.291 0.692-11.409 1.087-17.619 1.087-39.137 0-74.611-15.683-100.481-41.107l0.020 0.020q-53.12-48 10.88-173.12 13.12 96 64 130.88c23.988 18.548 52.528 32.515 83.591 40.009l1.529 0.311c37.894-5.881 70.904-23.489 95.979-48.939l0.021-0.021c32.711-30.262 53.121-73.413 53.121-121.329 0-0.207-0-0.415-0.001-0.623v0.032c25.942 26.231 41.969 62.315 41.969 102.142 0 1.328-0.018 2.653-0.053 3.972l0.004-0.195c-3.658 28.172-17.62 52.54-37.915 69.625l-0.165 0.135z" />
<glyph unicode="&#xe603;" glyph-name="UsbKey" data-tags="UsbKey" d="M384 274.056v189.944h-256v-189.92c-16-9.648-32-31.5-32-57v-170.772c0-34.416 21.72-62.308 56.156-62.308h207.688c34.436 0 56.156 27.892 56.156 62.304v170.776c0 25.492-16 47.328-32 56.976zM352 432v-160h-192v160h192zM176 384h64v-48h-64v48zM272 384h64v-48h-64v48z" />
<glyph unicode="&#xe604;" glyph-name="Upload" data-tags="Upload" d="M508.484 410.812c-2.844 4.796-7.624 8.172-13.092 9.288l-290.828 57.884c-9.548 1.812-19.032-3.46-22.344-12.584l-94.752-259.916c-3.736-10.22 1.532-21.5 11.752-25.236 10.188-3.764 21.516 1.516 25.252 11.764l88.968 244.048 252.64-50.296c-14.876-46.22-52.312-160.656-89.296-258.376-31.392-83-49.392-111.156-83.796-117.032-0.032 0-0.048 0.032-0.064 0.064-70.156-9.844-61.516 79.592-61.516 79.592l-224.064 90.552c-23.28-100.92 54.264-125.204 54.264-125.204l164.048-74.468c0 0 28.188-13.532 52.188-11.392 0.468 0.080 0.796 0.264 1.252 0.392 75.064 1.752 101.468 56.252 134.516 143.592 47.78 126.204 96.236 279.828 96.704 281.376 1.684 5.328 1.028 11.124-1.832 15.952zM376.532 288.86c1.736-0.484 3.484-0.72 5.204-0.72 8.656 0 16.592 5.752 18.984 14.5 2.876 10.5-3.296 21.344-13.78 24.22l-86 23.516c-10.516 2.892-21.328-3.296-24.204-13.764-2.876-10.5 3.296-21.344 13.796-24.22l86-23.532zM242.468 256.64c-3.408-10.328 2.236-21.452 12.564-24.876l85.688-28.092c2.048-0.656 4.108-0.984 6.14-0.984 8.28 0 15.984 5.264 18.704 13.548 3.408 10.344-2.236 21.468-12.564 24.876l-85.688 28.124c-10.392 3.328-21.468-2.252-24.844-12.596zM210.264 177.14c-3.408-10.312 2.236-21.436 12.564-24.828l85.688-28.124c2.048-0.672 4.108-0.984 6.14-0.984 8.28 0 15.984 5.28 18.704 13.564 3.408 10.344-2.236 21.468-12.564 24.844l-85.688 28.124c-10.372 3.372-21.468-2.252-24.844-12.596zM233.764 329.984l4.080 19.252 3.048 19.5-1.892 0.376c-10.688 2.28-21.108-4.468-23.408-15.092-2.28-10.624 4.468-21.124 15.092-23.408l3.080-0.628zM184.844 272.436c-2.28-10.624 4.468-21.080 15.092-23.42l3.080-0.624 4.080 19.252 3.048 19.5-1.892 0.376c-10.704 2.292-21.112-4.44-23.408-15.084zM171.72 172.764l4.064 19.252 3.064 19.5-1.908 0.408c-10.672 2.312-21.108-4.468-23.408-15.092-2.28-10.64 4.484-21.092 15.108-23.408l3.080-0.66z" />
<glyph unicode="&#xe605;" glyph-name="Unsuccess" data-tags="Unsuccess" d="M128 256h256v-64h-256v64z" />
<glyph unicode="&#xe606;" glyph-name="Unlock" data-tags="Unlock" d="M402.24 256h-256v77.76c0 60.619 49.141 109.76 109.76 109.76 31.935-0.207 60.557-14.222 80.223-36.369l45.537-0.111c-25.571 44.131-72.576 73.34-126.404 73.34-80.412 0-145.6-65.188-145.6-145.6 0-0.358 0.001-0.717 0.004-1.075l-0.001-77.705c-20.148 0-36.48-16.333-36.48-36.48v-214.72c-0.001-0.095-0.001-0.207-0.001-0.32 0-20.147 16.332-36.48 36.48-36.48 0.001 0 0.001 0 0.001 0h292.48c20.147 0 36.48 16.332 36.48 36.48v215.040c0 20.148-16.332 36.48-36.48 36.48zM280.32 91.52v-36.48c0-13.432-10.889-24.32-24.32-24.32s-24.32 10.889-24.32 24.32v36.48c-7.506 7.329-12.161 17.55-12.161 28.858 0 0.092 0 0.185 0.001 0.276-0.014 0.377-0.023 0.837-0.023 1.298 0 20.476 16.161 37.178 36.424 38.044 20.419-0.867 36.581-17.568 36.581-38.044 0-0.462-0.008-0.921-0.024-1.379 0.002-0.012 0.002-0.104 0.002-0.196 0-11.308-4.655-21.529-12.153-28.85z" />
<glyph unicode="&#xe607;" glyph-name="Unfavourite" data-tags="Unfavourite" d="M438.72-32l-182.72 142.080-183.36-142.080 79.040 210.24-151.68 101.12 180.8 25.92 75.2 174.72 74.88-174.72 181.12-25.92-152-101.12zM256 148.8l116.48-90.24-49.6 131.84 105.28 70.080-118.72 16.96-53.44 124.8-53.76-124.8-118.72-16.96 105.28-70.080-49.6-132.16z" />
<glyph unicode="&#xe608;" glyph-name="Undo" data-tags="Undo" d="M160 352v64l-128-96 128-96v64h224v-160h-352v-64h416v288z" />
<glyph unicode="&#xe609;" glyph-name="TurnR" data-tags="TurnR" d="M222.592 448c121.092 0 219.532-97.264 222.5-218.392h66.908l-100.188-112-100.156 112h77.78c-2.952 90.18-76.5 162.4-166.844 162.4-92.184 0-166.952-75.212-166.952-168.008 0-92.78 74.764-168 166.952-168 37 0 71.156 12.124 98.812 32.608l38.28-41.092c-37.808-29.752-85.372-47.516-137.092-47.516-122.936 0-222.592 100.264-222.592 224 0 123.728 99.656 224 222.592 224z" />
<glyph unicode="&#xe60a;" glyph-name="TurnL" data-tags="TurnL" d="M289.408 448c-121.096 0-219.532-97.264-222.5-218.392h-66.908l100.188-112 100.156 112h-77.78c2.952 90.18 76.5 162.4 166.844 162.4 92.188 0 166.952-75.212 166.952-168.008 0-92.78-74.764-168-166.952-168-37 0-71.156 12.124-98.812 32.608l-38.28-41.092c37.808-29.752 85.372-47.516 137.092-47.516 122.936 0 222.592 100.264 222.592 224 0 123.728-99.656 224-222.592 224z" />
<glyph unicode="&#xe60b;" glyph-name="TreeView" data-tags="TreeView" d="M128 384h352v-64h-352v64zM256 256h224v-64h-224v64zM256 128h224v-64h-224v64zM32 384h64v-64h-64v64zM160 256h64v-64h-64v64zM160 128h64v-64h-64v64zM64 272h-32v-80h80v32h-48zM64 144h-32v-80h80v32h-48z" />
<glyph unicode="&#xe60c;" glyph-name="Trade" data-tags="Trade" d="M272 16h-30.092c7.108 0 14.092 6.484 14.092 16s-8.876 16-16 16h-176c-7.124 0-16-6.484-16-16s8.188-16 15.312-16h-30.108c-9.5 0-17.204-6.484-17.204-16s7.704-15.86 17.204-15.86h240.86c9.516 0 13.936 6.344 13.936 15.86s-6.484 16-16 16zM249.592 247.58c0 0 17.548 17 16.532 26.916 2.28 1.516 8.796-1.272 10.812 0.78l11.296 11.556c13.36 13.524 19.408 54.836 7.704 66.416l17.14-16.936c6.764-6.68 17.656-6.624 24.344 0.14 6.672 6.772 6.624 17.648-0.156 24.344l-97.888 96.728c-6.752 6.688-17.64 6.616-24.344-0.124-6.688-6.772-6.608-17.672 0.156-24.344l11.688-11.516c-11.688 11.572-50.376 7.9-63.752-5.608l-13.064-13.36c-2.016-2.056 0.828-8.524-0.64-10.836-9.92 0.908-16-5.992-23.532-13.648l-24.188-24.46c-7.548-7.64-14.392-13.788-13.36-23.704-2.296-1.508-8.796 1.272-10.844-0.764l-16.156-16.452c-13.34-13.52-15.48-50.904-3.776-62.472l-11.688 11.516c-6.78 6.68-17.64 6.616-24.328-0.156-6.704-6.756-6.624-17.64 0.14-24.328l97.876-96.752c6.764-6.688 17.656-6.608 24.344 0.14 6.688 6.764 6.624 17.672-0.124 24.328l-17.144 16.936c11.704-11.564 49.108-9.14 62.484 4.376l15.252 15.548c2.032 2.048-0.828 8.516 0.656 10.844 9.908-0.92 27.828 17.96 27.828 17.96 16.984-20.756 214.312-246.648 231.516-246.508 0 0 15.736-1.892 26.908 8.064 7.092 6.328 6.436 26.344 6.436 26.344s-57.172 76.656-248.128 229.032z" />
<glyph unicode="&#xe60d;" glyph-name="EditComment" data-tags="EditComment" d="M282.532 242.796l133.092 135.884c0.764 7.152 0.36 13.708-1.172 19.668-1.58 5.96-4.672 13.112-9.344 21.456-4.656 8.344-11.672 17.284-21.016 26.82-9.34 9.536-18.092 16.688-26.248 21.456-8.188 4.768-15.408 7.932-21.608 9.536-6.236 1.584-12.484 2.384-18.688 2.384l-284.86-290.84-32.688-125.16 130.764 23.84 151.768 154.956zM80.548 93.8c-0.796 1.584-1.736 3.372-2.908 5.364-1.172 1.976-2.564 4.172-4.092 6.56-1.564 2.384-3.124 4.564-4.656 6.556-1.58 1.976-3.516 4.172-5.844 6.556-2.344 2.384-4.672 4.36-7 5.96-2.344 1.584-4.5 3.168-6.436 4.768-1.952 1.584-3.908 2.98-5.828 4.172-1.968 1.192-3.72 2.572-5.264 4.172l8.188 42.912 12.828 13.112c5.452-0.804 10.532-1.996 15.188-3.576 4.672-1.6 9.92-4.376 15.752-8.344 5.844-3.988 11.86-9.144 18.108-15.496 7-7.152 12.264-13.708 15.752-19.668 3.516-5.96 6.204-11.324 8.188-16.092 1.92-4.768 2.908-9.944 2.908-15.496l-11.672-11.92-43.212-9.54zM0 32h512v-64h-512v64zM224 128h288v-64h-288v64z" />
<glyph unicode="&#xe60e;" glyph-name="ThumbUp2" data-tags="ThumbUp2" d="M388.8 314.88h-58.56c41.6 77.76 17.92 153.28-15.36 157.44h-9.6c-72.64 0-84.8-115.52-204.8-152.32h-100.48v-288h96c108.16-12.16 165.12-32 270.72-32 81.28 0 138.24 107.52 145.28 238.080 3.52 69.44-61.44 76.8-123.2 76.8zM366.4 24c-57.803 0.493-113.916 6.411-168.246 17.268l5.686-0.948c-25.92 4.48-91.84 13.76-91.84 13.76v244.48c54.536 20.274 99.541 55.578 131.252 100.873l0.588 0.887c24.64 30.72 39.68 47.68 61.76 47.68h6.4c4.495-2.921 7.873-7.232 9.553-12.315l0.047-0.165c4.243-12.394 6.692-26.672 6.692-41.523 0-25.342-7.133-49.019-19.5-69.131l0.328 0.574-18.56-33.92h98.24c32 0 73.6-2.24 89.92-19.52 5.833-7.065 9.371-16.214 9.371-26.189 0-2.050-0.149-4.065-0.438-6.035l0.027 0.224c-7.68-123.52-58.56-216-120.96-216z" />
<glyph unicode="&#xe60f;" glyph-name="ThumbUp" data-tags="ThumbUp" d="M0 320h96v-288h-96v288zM330.24 314.24c41.6 77.76 17.92 153.28-15.36 157.44-74.88 8.32-87.68-94.4-186.88-140.8v-303.040c69.999-14.545 152.066-24.526 235.865-27.752l2.854-0.087c81.28 0 138.24 107.52 145.28 238.080 4.8 92.8-113.28 74.56-181.76 76.16z" />
<glyph unicode="&#xe610;" glyph-name="ThumbDown2" data-tags="ThumbDown2" d="M366.72 456.32c-105.6 0-162.56-20.16-270.72-32h-96v-288h100.48c120-36.48 132.16-152.32 205.12-152.32h9.6c32 4.16 56.96 80 15.36 157.44h58.88c61.76 0 128 7.36 122.88 76.8-7.36 130.88-64.32 238.080-145.6 238.080zM480 185.28c-16.32-17.28-56.64-19.52-89.92-19.52h-99.52l18.56-34.24c11.495-19.194 18.291-42.346 18.291-67.084 0-15.635-2.715-30.637-7.7-44.558l0.288 0.923c-1.727-5.248-5.105-9.559-9.51-12.425l-0.091-0.055h-4.8c-21.76 0-36.8 17.28-61.76 48-32.339 46.055-77.337 81.25-129.937 100.82l-1.903 0.62v244.16s65.92 9.6 92.16 14.080c48.697 9.816 104.831 15.623 162.255 15.998l0.305 0.002c64 0 114.88-92.48 121.28-215.36 0.307-1.892 0.483-4.072 0.483-6.293 0-9.471-3.19-18.198-8.554-25.164l0.072 0.097z" />
<glyph unicode="&#xe611;" glyph-name="ThumbDown" data-tags="ThumbDown" d="M0 424.32h96v-288h-96v288zM366.72 456.32c-86.654-3.313-168.721-13.295-248.526-29.503l9.806 1.663v-303.040c99.2-45.44 112-150.4 186.88-141.44 32 4.16 56.96 80 15.36 157.44 68.48 1.92 186.56-16.64 181.44 76.48-6.72 131.2-63.68 238.4-144.96 238.4z" />
<glyph unicode="&#xe612;" glyph-name="Surveyors" data-tags="Surveyors" d="M465.436 169.156c-0.936 8.656-2.408 16.968-4.376 24.72-0.22 0.908-0.78 1.592-1.156 2.436 2.592 3.032 4.14 5.592 4.14 7.252 0 0-26.468 12.376-81.592 17.376 0.22-3 0.828-5.876 0.828-8.936 0-23.656-9.408-45.656-23.408-63.624 29.532 4.5 56.204 16.092 75.032 27.968 1.108-6.312 2.032-12.812 2.468-19.752 0.408-7.752 6.78-13.752 14.468-13.752 5.736 0 14.484-10.72 14.484-26.844 0-14.688-20.516-31.468-28.892-31.468-6.844 0-12.752-4.78-14.172-11.564-11.14-53.032-69.92-75.844-87.064-75.844-13.736 0-53.796 14.968-75.080 48.032-8.484-5.408-17-10.188-25.5-14.032 27.136-43.716 78.9-63.124 100.588-63.124 25.624 0 93.892 26.72 112.908 89.344 22.296 7.188 46.168 32.656 46.168 58.656 0 24.78-12.528 45.812-29.844 53.156zM415.92 119.656c0 13.124-10.5 23.656-23.484 23.656s-23.5-10.532-23.5-23.656c0-13.092 10.516-23.688 23.5-23.688s23.484 10.596 23.484 23.688zM464.736 227.436c0 28.844 63.188 77.344 43.436 77.344-65.92 0-100.484 28.436-126.080 51.22-3.156-4.032-6.408-7.936-9.532-11.624-2.64-3.124-6.532-7.72-10.264-12.376 0-6.624 0-28.752 0-42.408 0-2.968-1.064-5.908-2.5-8.78 8.812-11.188 15.36-24.312 19.204-38.908 59.252-3.812 85.736-14.468 85.736-14.468zM289.108 153.344c22.3 7.188 46.172 32.656 46.172 58.656 0 24.78-12.532 45.812-29.844 53.156-0.936 8.656-2.408 16.968-4.376 24.72-0.22 0.908-0.78 1.592-1.156 2.436 2.592 3.032 4.14 5.592 4.14 7.252 0 0-40.516 19.532-127.844 19.532-87.376 0-127.92-19.532-127.92-19.532 0-1.624 1.516-4.156 4.064-7.124-0.172-0.532-0.532-0.844-0.656-1.312-1.124-4.312-1.64-9.092-2.468-13.624-2.156-2.592-3.58-5.78-3.58-9.408v-3.408c-26.124-7.5-28.5-27.624-28.5-52.688 0-27.252 25.892-50.656 45.984-58.064 18.812-63.060 87.344-89.936 113.080-89.936 25.624 0 93.888 26.72 112.904 89.344zM176.204 93.124c-17.156 0-75.952 22.876-87.080 75.908-1.344 6.28-7.688 11-14.032 11.564-6.5 0.592-29.092 16.496-29.092 31.404 0 6.752 1.408 12.564 3.484 17.064 2.656-2.936 4.968-4.812 9.188-4.812 8 0 13.064 6.532 13.064 14.624v12.436c0 0.408 1.72 0.78 1.752 1.22 0.392 6.936 2 13.468 3.14 19.78 23.812-15.032 60.264-30.124 99.188-30.124 38.984 0 75.252 15.124 99.092 30.156 1.108-6.312 2.032-12.812 2.468-19.752 0.408-7.752 6.78-13.752 14.468-13.752 5.736 0 14.484-10.72 14.484-26.844 0-14.688-20.516-31.468-28.892-31.468-6.844 0-12.752-4.78-14.172-11.564-11.14-53.028-69.92-75.84-87.060-75.84zM232.436 239.312c-12.984 0-23.5-10.532-23.5-23.656 0-13.092 10.516-23.688 23.5-23.688s23.484 10.592 23.484 23.688c0 13.124-10.5 23.656-23.484 23.656zM119.952 239.312c-12.984 0-23.484-10.532-23.484-23.656 0-13.092 10.5-23.688 23.484-23.688s23.516 10.592 23.516 23.688c0 13.124-10.532 23.656-23.516 23.656zM176.968 339.312c89.592 0 127.764-15.876 127.764-15.876 0 28.844 63.188 77.344 43.436 77.344-109.98 0-132.872 79.22-171.996 79.22-39.156 0-48.344-79.22-171.204-79.22-19.952 0 26.592-47.968 26.592-77.344 0.004 0 55.876 15.876 145.408 15.876zM150.080 430.092h52.22c0 0 0-28.312 0-44.5 0-16.22-26.092-32.376-26.092-32.376s-26.124 16.156-26.124 32.376c-0.004 16.188-0.004 44.5-0.004 44.5zM279.452 103.452c4.28-4.592 10.312-7.484 17.064-7.484 12.984 0 23.484 10.592 23.484 23.688 0 6.752-2.812 12.78-7.264 17.080l-33.284-33.284z" />
<glyph unicode="&#xe613;" glyph-name="Surveyor" data-tags="Surveyor" d="M404.376 215.812c-1.080 9.908-2.752 19.328-5.032 28.204-0.252 1.048-0.892 1.828-1.328 2.764 2.984 3.468 4.752 6.376 4.752 8.28 0 0-46.5 22.236-146.78 22.236-100.296 0-146.828-22.236-146.828-22.236 0-1.876 1.736-4.764 4.64-8.156-0.204-0.548-0.58-0.936-0.736-1.5-1.296-4.876 1.064-10.344 0.124-15.532-2.5-2.904-1.188-6.56-1.188-10.684v-3.908c-16-8.564-35.656-31.468-35.656-60.032 0-31.064 28.264-57.752 51.312-66.188 21.592-71.86 99.564-102.5 129.080-102.5 29.452 0 107.408 30.452 129.264 101.844 25.608 8.14 52.812 37.22 52.812 66.844 0 28.22-14.56 52.188-34.436 60.564zM372.204 119.376c-7.86 0-14.608-5.484-16.252-13.156-12.796-60.452-80.264-86.468-99.968-86.468-19.672 0-87.172 26.048-99.968 86.516-1.516 7.172-8.796 12.532-16.080 13.172-7.468 0.672-33.376 18.828-33.376 35.812 0 7.736 1.592 14.312 3.984 19.436 3.048-3.344 17.624-5.484 22.468-5.484 9.204 0 26.984 7.452 26.984 16.672v14.156c0 0.5-9.984 0.908-9.952 1.42 0.452 7.892-3.688 15.344-2.408 22.516 27.392-17.092 66.236-34.312 110.92-34.312 44.736 0 84.876 17.252 112.236 34.36 1.28-7.172 1.64-14.624 2.092-22.532 0.484-8.796 7.408-15.672 16.236-15.672 6.608 0 16.436-12.204 16.436-30.564 0.008-16.716-23.712-35.872-33.352-35.872zM320.564 186.376c-14.908 0-26.984-12.064-26.984-26.952 0-14.92 12.080-27 26.984-27 14.892 0 26.968 12.080 26.968 27 0 14.888-12.080 26.952-26.968 26.952zM191.42 186.376c-14.892 0-26.984-12.064-26.984-26.952 0-14.92 12.092-27 26.984-27s26.984 12.080 26.984 27c0.004 14.888-12.092 26.952-26.984 26.952zM256.92 300.392c102.828 0 146.64-18.092 146.64-18.092 0 32.844 72.532 88.108 49.876 88.108-126.264 0-152.564 90.312-197.484 90.312-44.936 0-55.484-90.312-196.548-90.312-22.876 0 30.564-54.656 30.564-88.108 0-0.004 64.112 18.092 166.952 18.092zM224 384h64c0 0 0-12.436 0-30.908 0-18.436-32-36.876-32-36.876s-32 18.436-32 36.876c0 18.472 0 30.908 0 30.908z" />
<glyph unicode="&#xe614;" glyph-name="Sum" data-tags="Sum" d="M128 400l153.984-156.124c4.764-5.212 7.688-12.196 7.688-19.868 0-7.688-2.92-14.68-7.688-19.884l-153.984-156.124h304l-1.156 56.752 47.248-24.752v-66.828c0-7.452-2.812-14.92-8.408-20.624-5.624-5.688-12.968-8.548-20.312-8.548h-396.12c-8.124 0-15.892 4.764-19.408 12.796s-1.812 17.064 3.624 23.22l180.736 203.992-179.516 202.6c-5.656 6.368-7.408 15.76-3.752 24.104 3.656 8.328 11.704 13.288 20.156 13.288h394.376c7.124 0 14.28-2.756 19.72-8.296 5.436-5.532 8.172-12.788 8.172-20.024v-67.68l-46.516-24 1.156 56h-304z" />
<glyph unicode="&#xe615;" glyph-name="PhoneGetManually" data-tags="PhoneGetManually" d="M256 320c-53.016 0-96-42.98-96-96s42.984-96 96-96 96 42.98 96 96-42.984 96-96 96zM256 160c-35.344 0-64 28.656-64 64s28.656 64 64 64 64-28.656 64-64-28.656-64-64-64z" />
<glyph unicode="&#xe616;" glyph-name="Successful" data-tags="Successful" d="M176 32l272 368-288-256-112 96z" />
<glyph unicode="&#xe617;" glyph-name="Skype" data-tags="Skype" d="M487.68 169.28c-1.594 2.217-2.55 4.986-2.55 7.978 0 1.028 0.113 2.029 0.327 2.993l-0.017-0.091c2.633 13.863 4.139 29.81 4.139 46.108 0 6.296-0.225 12.54-0.666 18.723l0.048-0.831c-5.363 67.051-38.809 125.357-88.433 163.768l-0.527 0.392c-38.513 30.905-87.978 49.6-141.81 49.6-0.095 0-0.19 0-0.285 0h0.014c-16.298-0.015-32.233-1.528-47.686-4.409l1.607 0.249h-3.2c-0.032-0-0.071-0-0.109-0-2.965 0-5.707 0.96-7.929 2.587l0.038-0.026c-20.096 14.78-45.329 23.66-72.635 23.68h-0.005c-13.672-0.175-26.742-2.504-38.965-6.661l0.885 0.262c-46.803-13.644-81.569-53.243-87.933-101.781l-0.067-0.62c-1.183-6.344-1.859-13.642-1.859-21.099 0-26.995 8.867-51.92 23.847-72.020l-0.227 0.319c1.577-1.993 2.53-4.542 2.53-7.315 0-0.923-0.105-1.822-0.305-2.685l0.015 0.080c-2.556-12.7-4.018-27.299-4.018-42.24s1.463-29.54 4.253-43.662l-0.235 1.423c10.607-63.041 45.83-116.313 95.245-150.545l0.755-0.495c36.938-26.762 83.147-42.827 133.107-42.88h0.012c15.778 0.083 31.148 1.594 46.058 4.408l-1.578-0.248h2.24c3.618-0.024 6.95-1.222 9.643-3.231l-0.043 0.031c19.562-14.132 43.947-22.719 70.322-23.039l0.077-0c14.233 0.098 27.862 2.55 40.56 6.988l-0.88-0.267c46.755 13.793 81.421 53.506 87.617 102.112l0.063 0.608c1.135 6.216 1.785 13.37 1.785 20.676 0 26.762-8.714 51.488-23.459 71.496l0.233-0.332zM477.76 82.24c-4.421-37.27-30.757-67.374-65.597-77.284l-0.643-0.156c-8.757-3.118-18.858-4.981-29.377-5.12l-0.063-0c-19.767 0.378-37.933 6.922-52.738 17.781l0.257-0.18c-7.737 5.567-17.393 8.918-27.83 8.96h-9.29c-11.721-2.207-25.22-3.487-39.012-3.52h-0.029c-43.135 0.127-82.999 14.022-115.458 37.519l0.578-0.399c-43.088 29.865-73.292 75.709-82.085 128.784l-0.156 1.136c-2.185 10.872-3.436 23.37-3.436 36.16s1.251 25.288 3.636 37.379l-0.2-1.219c0.617 2.756 0.97 5.922 0.97 9.171 0 9.659-3.124 18.589-8.416 25.834l0.087-0.124c-11.374 14.754-18.23 33.5-18.23 53.847 0 5.282 0.462 10.457 1.348 15.486l-0.078-0.533c4.567 37.697 31.64 68.002 67.207 77.3l0.632 0.14c8.374 2.856 18.029 4.596 28.062 4.798l0.098 0.002c20.027-0.337 38.432-7.011 53.367-18.096l-0.248 0.175c7.258-5.203 16.319-8.32 26.108-8.32 0.047 0 0.094 0 0.14 0h8.953c12.075 2.351 26.004 3.745 40.241 3.839l0.079 0.001c0.74 0.010 1.615 0.016 2.49 0.016 45.832 0 88.005-15.667 121.454-41.938l-0.425 0.322c43.457-33.38 72.394-83.802 76.76-141.096l0.041-0.664c0.263-4.155 0.413-9.008 0.413-13.898 0-15.112-1.431-29.891-4.166-44.207l0.233 1.465c-0.351-2.123-0.553-4.571-0.553-7.065 0-9.963 3.207-19.177 8.644-26.666l-0.091 0.132c11.115-14.649 17.805-33.186 17.805-53.286 0-5.712-0.54-11.297-1.572-16.708l0.088 0.554zM313.28 249.92c-17.28 6.080-34.88 8.32-52.16 13.12s-26.56 6.72-39.36 11.2c-8.319 3.074-14.143 10.937-14.143 20.16s5.823 17.086 13.994 20.112l0.149 0.048c9.964 4.069 21.525 6.43 33.638 6.43 4.73 0 9.374-0.36 13.91-1.054l-0.507 0.064c14.007-1.836 26.327-7.959 35.87-16.988l-0.030 0.028 12.8-12.16c6.204-5.767 14.548-9.306 23.718-9.306 5.577 0 10.849 1.309 15.524 3.637l-0.202-0.091c11.654 6.246 19.447 18.343 19.447 32.259 0 8.796-3.113 16.864-8.296 23.164l0.050-0.063c-8.551 10.334-19.254 18.575-31.45 24.098l-0.55 0.222c-18.767 8.332-40.55 13.834-63.428 15.33l-0.572 0.030c-6.505 0.815-14.034 1.281-21.672 1.281-26.902 0-52.456-5.774-75.489-16.149l1.161 0.468c-17.822-7.738-32.094-20.873-41.059-37.317l-0.221-0.442c-5.701-11.522-9.035-25.088-9.035-39.432 0-7.701 0.961-15.176 2.77-22.314l-0.135 0.626c3.952-19.323 15.677-35.346 31.692-44.949l0.308-0.171c10.207-6.673 22.029-12.043 34.648-15.478l0.873-0.202c20.8-5.76 41.92-10.56 64-16 14.528-3.377 26.817-7.223 38.714-11.856l-1.914 0.656c8.186-3.654 13.788-11.724 13.788-21.101 0-7.411-3.5-14.005-8.936-18.22l-0.053-0.039c-6.848-5.601-15.377-9.396-24.726-10.536l-0.235-0.024c-4.505-0.908-9.683-1.428-14.983-1.428-21.726 0-41.414 8.731-55.745 22.875l0.008-0.009c-8.457 7.718-17.641 15.074-27.283 21.819l-0.877 0.581c-5.228 3.87-11.804 6.195-18.924 6.195-14.051 0-25.987-9.056-30.289-21.65l-0.067-0.225c-1.302-3.978-2.053-8.556-2.053-13.31 0-11.544 4.43-22.053 11.681-29.921l-0.028 0.031c11.417-12.408 25.559-22.126 41.49-28.228l0.75-0.252c23.127-9.719 50.008-15.365 78.208-15.365 0.517 0 1.034 0.002 1.551 0.005l-0.079-0c1.245-0.032 2.711-0.050 4.18-0.050 20.401 0 39.976 3.536 58.147 10.027l-1.207-0.376c15.117 4.99 28.204 12.293 39.575 21.611l-0.216-0.171c18.886 15.263 31.111 38.12 31.996 63.856l0.004 0.144c0.063 1.111 0.099 2.411 0.099 3.718 0 22.286-10.356 42.153-26.517 55.053l-0.142 0.109c-14.604 11.903-32.098 20.875-51.236 25.721l-0.925 0.198z" />
<glyph unicode="&#xe618;" glyph-name="Sick" data-tags="Sick" d="M472.015 440.015c-25.077 25.077-57.921 37.617-90.799 37.617-32.844 0-65.724-12.541-90.799-37.617-14.675-14.704-134.187-134.2-145.524-145.541-36.763-36.763-24.41-131.118-58.071-164.778-33.664-33.681-68.408-68.408-70.709-70.743-20.573-20.543-20.642-53.789-0.299-74.512l-0.35-0.333c10.436-10.436 24.125-15.588 37.783-15.507 0.098 0 0.218-0.034 0.316-0.034 13.539 0 27.095 5.186 37.433 15.507 2.317 2.335 37.697 37.715 70.709 70.743 33.011 32.994 128.032 21.291 164.829 58.070 11.303 11.337 130.815 130.832 145.524 145.524 50.127 50.152 50.093 131.451-0.043 181.603zM449.772 280.704c-14.704-14.687-134.251-134.234-145.524-145.524-11.904-11.904-42.615-17.355-69.71-22.208-25.81-4.584-52.189-9.369-73.56-20.492l-18.759 18.772-104.138-104.459c-3.803 4.017-5.967 9.168-5.967 14.721 0 5.736 2.203 11.089 6.403 15.306 2.3 2.3 36.98 36.998 70.594 70.594 23.475 23.493 29.977 60.29 36.246 95.904 4.703 26.775 10.052 57.123 21.841 68.895l9.087 9.104 21.841-21.824c3.086-3.086 7.102-4.619 11.136-4.619 4.017 0 8.054 1.549 11.136 4.635 6.15 6.151 6.15 16.122-0.017 22.277l-21.807 21.807 14.355 14.354c0.883 0.901 1.852 1.87 2.736 2.736l21.858-21.807c3.069-3.069 7.102-4.601 11.119-4.601 4.034 0 8.054 1.55 11.136 4.601 6.151 6.151 6.151 16.122 0 22.293l-21.841 21.807c5.754 5.754 11.456 11.473 17.125 17.108l21.841-21.824c3.069-3.069 7.103-4.601 11.119-4.601 4.034 0 8.072 1.533 11.153 4.619 6.138 6.15 6.138 16.121-0.017 22.276l-21.841 21.807c6.334 6.334 12.036 12.053 17.125 17.108l21.841-21.824c3.069-3.069 7.103-4.601 11.119-4.601 4.034 0 8.072 1.532 11.153 4.618 6.138 6.15 6.138 16.121 0 22.293l-21.457 21.41c17.756 15.806 40.165 24.761 64.11 24.761 25.892 0 50.221-10.086 68.528-28.363 37.788-37.805 37.788-99.311 0.038-137.060zM154.611 144.904l22.293-22.31 222.183 222.204-22.272 22.289z" />
<glyph unicode="&#xe619;" glyph-name="Show" data-tags="Show" d="M256 333.76c-126.080 0-192-96-192-109.76s65.92-109.76 192-109.76 192 96 192 109.76-65.92 109.76-192 109.76zM256 128c-53.019 0-96 42.981-96 96s42.981 96 96 96c53.019 0 96-42.981 96-96s-42.981-96-96-96zM304 224c0-26.51-21.49-48-48-48s-48 21.49-48 48c0 26.51 21.49 48 48 48s48-21.49 48-48z" />
<glyph unicode="&#xe61a;" glyph-name="Share" data-tags="Share" d="M395.156 346.188l52.844-52.844v122.656h-122.656l52.844-52.844-139.156-139.156h-207.032v-32h207.032l139.156-139.156-52.844-52.844h122.656v122.656l-52.844-52.844-138.188 138.188z" />
<glyph unicode="&#xe61b;" glyph-name="Settings" data-tags="Settings" d="M512 192.5v64l-76.156 12.452c-4.516 18.016-11.58 34.984-20.936 50.516l44.392 63.296-45.252 45.22-62.452-44.92c-15.592 9.436-32.656 16.624-50.812 21.124l-13.284 75.812h-64.032l-12.312-75.564c-18.188-4.452-35.328-11.548-50.968-20.908l-62.268 44.456-45.28-45.22 43.812-62.64c-9.452-15.688-16.672-32.812-21.236-51.124l-75.216-12.5v-64l75.124-13.312c4.548-18.28 11.752-35.408 21.264-51.124l-44.42-62.092 45.252-45.28 62.752 43.936c15.688-9.42 32.752-16.548 50.952-21.032l12.544-75.596h64.032l13.468 75.812c18.064 4.564 35.14 11.78 50.656 21.22l63.156-44.344 45.252 45.28-45.064 62.592c9.312 15.564 16.42 32.532 20.876 50.608l76.156 13.332zM256.032 134.748c-49.312 0-89.28 39.936-89.28 89.252 0 49.28 39.968 89.236 89.28 89.236 49.28 0 89.236-39.952 89.236-89.236-0.004-49.312-39.956-89.252-89.236-89.252z" />
<glyph unicode="&#xe61c;" glyph-name="ServerKey" data-tags="ServerKey" d="M214.764 188.312c32.22 0 63.548 3.264 90.92 8.952 17.328 47.812 63.532 82.124 117.252 82.124 1.908 0 5.252-0.204 7.156-0.296 0.124 1.328 1.908 2.64 1.908 3.984 0 19.236 0 39.28 0 72.452 0-52.36-98.376-94.764-216-94.764-117.608 0-216 42.408-216 94.764 0-21.86 0-36.452 0-72.452 0-52.356 97.156-94.764 214.764-94.764zM216.608 286.764c117.624 0 212.92 42.408 212.92 94.764 0 52.376-95.296 94.78-212.92 94.78-117.608 0-212.92-42.408-212.92-94.78 0-52.356 95.312-94.764 212.92-94.764zM214.764 89.844c11.828 0 24.264 0.548 35.564 1.376l48.892 48.42c0.092 0.108 0.436 0.204 0.532 0.296-0.592 4.968-0.78 10.032-0.78 15.14 0 5.016 0.436 9.92 1 14.78-25.592-4.86-55.608-7.548-85.236-7.548-117.612 0.004-214.736 42.412-214.736 94.772 0-21.86 0-36.468 0-72.468 0-52.364 97.156-94.768 214.764-94.768zM0 158.608c0-21.86 0-36.452 0-72.452 0-49.828 88.188-90.548 197.876-94.392-2.72 23.764 2.328 49.312 14.312 61.312l11.408 10.936c-2.5-0.032-6.548-0.172-9.064-0.172-117.612 0.004-214.532 42.408-214.532 94.768zM423.392 240c-46.908 0-84.92-38.016-84.92-84.92s38.016-84.92 84.92-84.92c46.892 0 84.92 38.016 84.92 84.92s-38.032 84.92-84.92 84.92zM452.936 156.328c-15.624 0-28.296 12.672-28.296 28.312 0 15.592 12.672 28.264 28.296 28.264 15.608 0 28.264-12.672 28.264-28.264 0.004-15.64-12.652-28.312-28.264-28.312zM277.328 5.156c-3.624-3.624-9.532-3.624-13.14 0-3.624 3.608-3.624 9.516-0.016 13.156l74.564 74.532c-4.344 5.92-8.156 12.188-11.204 18.936l-86.548-86.516c-3.624-3.624-5.532-39.952 3.548-49.032 9.108-9.092 45.42-4.468 49.032-0.86l5.92 8.624h23.78c4.672 0 12.736-1.58 12.736 3.080v28.924h19.064c4.672 0 12.936-1.764 12.936 2.892v29.108h18.892c4.656 0 13.108-1.968 13.108 2.72v3.22c-16 4.672-34.376 13.172-46.688 24.892l-75.984-73.676z" />
<glyph unicode="&#xe61d;" glyph-name="Sent2" data-tags="Sent2" d="M448 224l-160 128 24-96h-280v-64h280l-24-96z" />
<glyph unicode="&#xe61e;" glyph-name="Sent" data-tags="Sent" d="M431.928 464h-351.94c-35.196 0-63.988-28.788-63.988-63.988v-351.94c0-35.2 28.792-63.992 63.988-63.992h351.94c35.196 0 63.992 28.792 63.992 63.992v351.94c0 35.2-28.796 63.988-63.992 63.988zM319.944 128.060v63.988h-255.952v63.988h255.956v63.992l127.984-95.984-127.988-95.984z" />
<glyph unicode="&#xe61f;" glyph-name="Send" data-tags="Send" d="M497.916 395.844c-9.56-3.36-481.964-168.936-491.26-172.184-7.908-2.78-9.672-9.548-0.296-13.28 11.172-4.456 105.64-42.096 105.64-42.096h-0.016l62.624-24.968c0 0 301.56 220.276 305.668 223.232 4.080 3.016 8.844-2.608 5.844-5.828-2.984-3.236-219.016-235.604-219.016-235.604-0.016 0-0.016 0-0.016 0l-12.608-13.952 16.684-8.92c0 0 129.392-69.264 138.592-74.204 8.092-4.344 18.608-0.736 20.936 9.264 2.752 11.796 79.156 339.308 80.86 346.62 2.208 9.496-4.072 15.264-13.636 11.92zM176.248 0.004c0-6.844 1.656-14.952 6.984-10.092 7 6.28 79.3 70.812 79.3 70.812l-86.532 51.28 0.248-112z" />
<glyph unicode="&#xe620;" glyph-name="SelfVacation" data-tags="SelfVacation" d="M111.36 150.72c25.252-12.954 54.597-22.396 85.584-26.714l1.457-0.166s1.92-130.56 5.76-156.16h111.36s8.96 207.68 8 258.88c28.158 0.943 54.926 5.089 80.515 12.088l-2.435-0.568c22.894 8.93 38.962 30.501 39.678 55.913l0.002 0.087c0.842 13.392 1.322 29.039 1.322 44.8s-0.48 31.41-1.426 46.933l0.104-2.132c0.009 0.2 0.014 0.433 0.014 0.668 0 8.504-6.634 15.458-15.009 15.97l-0.045 0.002c-16.824-1.77-30.332-14.087-33.873-30.143l-0.048-0.257v-56.64c0-8-68.8-7.68-68.8-7.68-1.6 25.6-4.8 71.36-9.6 120.96-3.84 19.2-22.080 53.44-37.12 53.44-0.579 0.017-1.261 0.026-1.945 0.026-35.238 0-64.511-25.542-70.315-59.122l-0.061-0.425q-4.8-114.24-5.76-199.68c-19.286 1.142-37.274 5.387-53.909 12.244l1.108-0.405-9.92 79.36c-3.84 12.16-21.44 40-45.44 27.2-7.317-5.817-12.009-14.666-12.159-24.615l-0.001-0.025c-1.302-14.38-2.043-31.103-2.043-48s0.742-33.621 2.195-50.14l-0.152 2.14c0.595-27.315 13.237-51.562 32.807-67.717l0.153-0.123z" />
<glyph unicode="&#xe621;" glyph-name="SelfPin" data-tags="SelfPin" d="M304 160c9.812 11.42 4.764 20.392 4.764 31.328 0 26 19.22 18.252 27.656 65.82 3.516 19.756 20.5 0.696 23.764 45.728 0 18-9.28 22.64-9.28 22.64s4.72 26.632 6.564 47.116c2.284 25.452-14.124 91.336-101.468 91.336-87.312 0-103.72-65.812-101.452-91.264 1.86-20.484 6.564-47.008 6.564-47.008s-9.264-4.444-9.264-22.444c3.252-45.048 20.236-25.592 23.704-45.352 8.484-47.572 27.704-39.072 27.704-65.072 0-43.252-20.124-63.484-83.080-87.436-63.144-24.016-104.176-48.532-104.176-65.252 0-16.672 0-56.14 0-56.14h256v128c0 0 0 32 32 32v16zM480 128h-16v22.92c0 44.408-24.748 57.080-64 57.080s-64-12.672-64-57.080v-22.92h-16c-15.296 0-16-12.392-16-27.704v-100.296c0-15.296 12.408-16 27.688-16h136.624c15.28 0 27.688 0.704 27.688 16v100.296c0 15.312-0.704 27.704-16 27.704zM416 51.172v-21.016c0-14.156-10.908-14.156-16-14.156s-16 0-16 16v16c0 3.204 0 25.172 0 32 0 10.204 5.812 16 16 16s16-5.796 16-16c0-6.828 0-25.624 0-28.828zM368 128v22.92c0 13.656-1.328 29.376 32 29.376 32.124 0 32-12.436 32-29.376v-22.92h-64z" />
<glyph unicode="&#xe622;" glyph-name="Seen" data-tags="Seen" d="M490.408 217.688c-2.188-1.156-18.92-11.672-42.408-26.468v16.78l47.564 32-47.564 50.124v77.876h-95.22l-96.984 72.936-95.92-72.936h-95.876v-77.876l-47.968-50.124 47.968-32v-16c-21.58 13.516-36.64 24.592-38.72 25.688-10.592 5.592-9.28-8.22-9.28-13.252 0-5.092 0-189.812 0-189.812 0-11.516 18.812-30.624 30.624-30.624h428.596c11.828 0 20.78 19.108 20.78 30.624 0 0 0 184.72 0 189.812 0 5.032 5.032 18.844-5.592 13.252zM112 320h288v-158.984c-62.936-39.532-136.376-85.172-141.548-85.172-5.252 0-82.296 47.672-146.452 87.764v156.392zM128 288h240v-32h-240v32zM128 240h240v-32h-240v32zM128 192h240v-32h-240v32z" />
<glyph unicode="&#xe623;" glyph-name="Search" data-tags="Search" d="M498.788 49.040l-90.868 90.88c-11.44 11.444-28.652 13.388-42.252 6.176l-17.252 17.268c26.060 32.92 41.732 74.44 41.732 119.708 0 106.732-86.5 193.232-193.228 193.232-106.732 0-193.232-86.5-193.232-193.232 0-106.728 86.5-193.228 193.232-193.228 45.252 0 86.788 15.672 119.708 41.732l17.252-17.252c-7.192-13.596-5.252-30.768 6.216-42.232l90.864-90.888c14.040-14.060 36.808-14.060 50.868 0l16.96 16.94c14.040 14.068 14.040 36.856 0 50.896zM39.424 283.076c0 87 70.5 157.484 157.5 157.484s157.5-70.484 157.5-157.484c0-87-70.5-157.48-157.5-157.48s-157.5 70.484-157.5 157.48z" />
<glyph unicode="&#xe624;" glyph-name="PhoneGetAutomatically" data-tags="PhoneGetAutomatically" d="M352 224c0-53.019-42.981-96-96-96s-96 42.981-96 96c0 53.019 42.981 96 96 96s96-42.981 96-96z" />
<glyph unicode="&#xe625;" glyph-name="ScanSave" data-tags="ScanSave" d="M256 288h165l-34.344 30.468-48.156 63.624c-2.108 2.752-5 5.14-8.312 6.344l-158.72 58.144c-8.032 2.952-16.936 0.172-21.72-6.736-4.78-6.876-4.156-17.032 1.516-23.236l104.736-128.608zM256 68.984l-26.624 16.42-151.064 105.548 100.78 29.188 76.908-45.5v21.64l-48.408 30.876 48.408 14.86v28.36l-206.22-58.768c-15.608-4.64-33.78-18.716-33.78-34.732v-10.688c0-10.936 5.032-21.312 13.704-28.188l163.984-130.252c6.688-5.296 14.908-8.064 23.22-8.064 4.844 0 9.704 0.92 14.312 2.828l9.78-0.264 60 13.752h-45v52.984zM174.468 44.204c-6.156 0-11.156 7.92-11.156 17.704 0 9.764 5 17.672 11.156 17.672 6.172 0 11.156-7.908 11.156-17.672 0-9.784-4.984-17.704-11.156-17.704zM384 256h32v-16h-32v16zM466 272h-177.812c-4.048 0-8.28 0.124-11.36-2.936-3.092-3.032-4.828-5.392-4.828-9.376v-204.796c0-3.936 1.72-11.64 4.764-14.64 3.064-3.004 7.236-8.252 11.236-8.252h180.876c6.936 0 13.876 6.344 19.188 11.532 5.28 5.252 7.936 15.796 7.936 22.64v179.576l-30 26.252zM304 256h144v-48h-144v48zM464 48h-160v112h160v-112zM320 112h128v-16h-128v16zM320 80h128v-16h-128v16z" />
<glyph unicode="&#xe626;" glyph-name="Scan" data-tags="Scan" d="M492.712 164.064c1.752 2.704 3.78 5.72 3.78 9.204 0 5.252-1.876 9.952-5.5 13.28l-148.992 196.188c-2.108 2.764-4.9 4.892-8.196 6.108l-158.132 58c-8.008 2.936-16.868 0.14-21.616-6.752-4.756-6.92-4.116-16.124 1.516-22.328l124.556-136.892c-0.304-0.064-0.624-0.080-0.928-0.156l-234.56-68.888c-15.556-4.608-28.556-18.72-28.556-34.704v-10.704c0-10.92 7.344-21.28 15.992-28.172l164.64-130.204c6.656-5.296 15.444-8.048 23.712-8.048 4.812 0 9.952 0.92 14.532 2.796l239.944 99.92c13.696 5.656 21.18 18.812 21.18 33.408v9.86c0 6.456-0.232 12.676-3.372 18.084zM178.736 44.484c-6.164 0-11.116 7.936-11.116 17.688 0 9.796 4.952 17.672 11.116 17.672 6.116 0 11.116-7.876 11.116-17.672 0-9.752-5-17.688-11.116-17.688zM225.96 85.688l-146.828 105.484 94.86 29.204 152.132-97.436-100.164-37.252zM346.772 130.608c-0.6 0.796-1.304 1.564-2.244 2.172l-147.74 94.612 89.624 27.564 154.592-89.264-94.232-35.084z" />
<glyph unicode="&#xe627;" glyph-name="SaveAs" data-tags="SaveAs" d="M400 464h-128v-138l76.016 18-94.016-168-91.016 168 77.016-18v138h-164c-33.048 0-60-27-60-60v-360c0-33 26.952-60 60-60h360c33.048 0 60 27 60 60v324l-96 96zM447.408 108.952l-10.78-51c-2.452-9.876-13.252-9.952-24.032-9.952h-313.188c-10.764 0-21.58 0.080-24.032 9.952l-10.78 55c-2.436 9.876 2.72 15.844 12.108 25.828 7.532 8.016 43.86 46.608 60.484 62.86 5.064 4.984 15.188 6.36 22.812 6.36 2.28 0 11.828 0 24 0l12-16h-45l-39-48h48c1.952 0 24 0 24 0l24-64h96l24 64c0 0 22.064 0 24 0h48l-39 48h-45l12 16c12.172 0 21.72 0 24 0 7.624 0 17.752-2.376 22.828-7.344 16.608-16.264 52.952-53.876 60.468-61.876 9.408-9.984 14.548-19.952 12.112-29.828z" />
<glyph unicode="&#xe628;" glyph-name="Save" data-tags="Save" d="M422.4 480h-390.4c-19.2 0-32-12.8-32-32v-448c0-19.2 12.8-32 32-32h448c19.2 0 32 12.8 32 32v390.4c0 25.6-67.2 89.6-89.6 89.6zM96 432c0 9.6 6.4 16 16 16h256c9.6 0 16-6.4 16-16v-128c0-9.6-6.4-16-16-16h-256c-9.6 0-16 6.4-16 16v128zM460.8 35.2c0-9.6-6.4-16-16-16h-377.6c-9.6 0-16 6.4-16 16v172.8c0 9.6 6.4 16 16 16h377.6c9.6 0 16-6.4 16-16v-172.8zM288 416h32v-96h-32v96z" />
<glyph unicode="&#xe629;" glyph-name="Restore" data-tags="Restore" d="M480 190.592c0 121.092-97.264 219.532-218.408 222.5v66.908l-111.984-100.188 111.984-100.156v77.78c90.188-2.952 162.408-76.5 162.408-166.844 0-92.188-75.204-166.952-168-166.952-92.78 0-168 74.764-168 166.952 0 37 12.124 71.156 32.592 98.812l-41.092 38.28c-29.736-37.808-47.5-85.372-47.5-137.092 0-122.936 100.28-222.592 224-222.592s224 99.656 224 222.592z" />
<glyph unicode="&#xe62a;" glyph-name="Resend" data-tags="Resend" d="M464 224l-160 128 24-96h-32l-120 96 24-96h-152v-64h152l-24-96 120 96h32l-24-96z" />
<glyph unicode="&#xe62b;" glyph-name="Report" data-tags="Report" d="M508.484 410.812c-2.844 4.796-7.624 8.172-13.092 9.288l-290.828 57.884c-9.548 1.812-19.032-3.46-22.344-12.584l-94.752-259.916c-3.736-10.212 1.532-21.5 11.752-25.236 10.188-3.764 21.516 1.516 25.252 11.764l21.812 59.86 77.716-139.872 208 272-208-192-77.064 61.648 66.5 182.416 252.64-50.296c-14.876-46.22-52.312-160.656-89.296-258.376-31.392-83-49.392-111.156-83.796-117.032-0.032 0-0.048 0.032-0.064 0.064-70.156-9.844-61.516 79.592-61.516 79.592l-224.060 90.548c-23.28-100.92 54.264-125.204 54.264-125.204l164.048-74.468c0 0 28.188-13.532 52.188-11.392 0.468 0.080 0.796 0.264 1.252 0.392 75.064 1.752 101.468 56.252 134.516 143.592 47.78 126.204 96.236 279.828 96.704 281.376 1.684 5.328 1.028 11.124-1.832 15.952z" />
<glyph unicode="&#xe62c;" glyph-name="Refresh" data-tags="Refresh" d="M116.032 92.16c-70.624 75.924-69.376 194.944 3.968 268.824 30.032 30.244 64.968 49.088 104 55.016l0.42 64c-54.764-6.648-107.764-31.072-149.748-73.368-98.328-99-99.484-258.832-3.844-359.988l-54.344-54.748 172.012-9.376-0.484 182.156-71.98-72.516zM323.5 465.484l0.468-182.124 71.996 72.52c70.624-75.968 69.376-194.988-3.968-268.864-30.032-30.252-64.964-49.124-103.996-55.032l-0.408-63.984c54.748 6.64 107.76 31.080 149.748 73.36 98.312 99.032 99.468 258.828 3.844 360.020l54.312 54.728-171.996 9.376z" />
<glyph unicode="&#xe62d;" glyph-name="Received2" data-tags="Received2" d="M208 96l-24 96h280v64h-280l24 96-160-128z" />
<glyph unicode="&#xe62e;" glyph-name="Received" data-tags="Received" d="M16 400.012v-351.94c0-35.2 28.796-63.992 63.992-63.992h351.94c35.196 0 63.988 28.792 63.988 63.992v351.94c0 35.2-28.792 63.988-63.988 63.988h-351.94c-35.196 0-63.992-28.788-63.992-63.988zM63.992 224.044l127.984 95.984v-63.992h255.952v-63.988h-255.952v-63.984l-127.984 95.98z" />
<glyph unicode="&#xe62f;" glyph-name="UnPublish" data-tags="UnPublish" d="M156.064 251.264c-92.128-63.516-92.064-187.264-92.064-187.264s2.376 100.408 156.092 123.264l-64.028 64zM379.312 173.376l78.624 66.624-169.936 144v-96c-7.752 0-14.656-0.876-21.908-1.392l113.22-113.232zM288 119.328v-23.328l12.624 10.704zM27.436 480l484.564-484.564-27.408-27.436-484.592 484.592z" />
<glyph unicode="&#xe630;" glyph-name="Pin" data-tags="Pin" d="M4-27.752l164 215.752 52-52zM504.5 345.248l-125.5 127c-7 7-20 3.252-29-8l-92.5-130.248c-53 15.252-112.5 2-154.5-40l223-223c42.5 42.5 55.5 103.252 39.5 156.752l0.5 0.5 130 88.496c11.5 8.5 15.5 21.5 8.5 28.5zM227.5 235.5l-35 35.5c41 30.5 69 25.752 69 25.752l20-19.252c0 0-14-2-54-42zM319.5 302.5l-20.5 19.5 74 94.252 34-33.252-87.5-80.5z" />
<glyph unicode="&#xe631;" glyph-name="Publish2" data-tags="Publish2" d="M495.263 236.016l-180.766 162.905 0.568-109.384c-253.631 0-270.545-252.664-270.545-252.664s20.403 144.84 270.506 144.266l-0.53-108.641 180.766 163.517z" />
<glyph unicode="&#xe632;" glyph-name="Profile" data-tags="Profile" d="M382.796 113.28c-58.764 22.376-77.54 41.236-77.54 81.624 0 24.252 17.944 16.344 25.812 60.736 3.272 18.408 19.116 0.28 22.14 42.344 0 16.752-8.648 20.92-8.648 20.92s4.408 24.78 6.124 43.892c2.144 23.768-13.152 85.204-94.692 85.204-81.524 0-96.82-61.436-94.68-85.204 1.72-19.108 6.124-43.892 6.124-43.892s-8.648-4.172-8.648-20.92c3.008-42.064 18.868-23.936 22.124-42.344 7.884-44.392 25.828-36.484 25.828-60.736 0-40.392-18.772-59.252-77.516-81.624-58.936-22.42-97.224-45.28-97.224-60.888 0-15.564 0-52.392 0-52.392h188l36 84-28 28 28 14 28-14-28-28 36-84h188c0 0 0 36.828 0 52.392 0 15.608-38.288 38.468-97.204 60.888z" />
<glyph unicode="&#xe633;" glyph-name="Print" data-tags="Print" d="M176.056 175.5h159.976v-31.996h-159.976v31.996zM176.056 127.508h159.976v-31.992h-159.976v31.992zM480.004 255.488h-454.656c-14.168 0-25.26-5.484-25.26-19.356v-101.044c0-13.892 11.092-23.576 25.26-23.576h50.504l-25.244-127.98h404.132l-25.256 127.98h50.52c14.172 0 31.996 9.684 31.996 23.576v101.044c0 13.872-17.824 19.356-31.996 19.356zM48.080 207.496v31.996h47.992v-31.996h-47.992zM303.192 31.524l-25.248 31.996h-50.524l-25.276-31.996h-101.012l50.508 175.972h202.076l50.524-175.972h-101.048zM352.028 319.476h31.996v-31.996h15.996v31.996h31.992v-31.996h47.992v49.68c-5.2 1.764-44.476 26.588-73.252 40.76l-22.732 9.756v50.516l-30.308 25.26h-202.072l-23.576-25.26v-50.516l-22.732-9.756c-28.776-14.172-73.252-38.996-73.252-40.76v-49.68h319.948v31.996zM176.056 383.464v47.992h111.984l47.992-47.992h-159.976z" />
<glyph unicode="&#xe634;" glyph-name="Preferment" data-tags="Preferment" d="M253.563 386.462l62.277-62.548-250.732-251.274 38.449-38.178 250.732 251.274 62.818-64.172v164.899h-163.545z" />
<glyph unicode="&#xe635;" glyph-name="PhoneWork" data-tags="PhoneWork" d="M292.844 187.156c-47.5-47.5-102.532-92.92-124.252-71.188-31.108 31.14-50.328 58.264-118.92 3.108-68.656-55.204-15.936-91.92 14.22-122.124 34.78-34.752 164.532-1.812 292.736 126.376 128.236 128.252 161.22 257.984 126.408 292.78-30.188 30.156-66.936 82.86-122.092 14.22-55.14-68.592-28.048-87.812 3.080-118.92 21.74-21.72-23.68-76.768-71.18-124.252z" />
<glyph unicode="&#xe636;" glyph-name="PhoneNull" data-tags="PhoneNull" d="M403.312 416c8.188 0 22.936-15.5 32.72-25.78 3.156-3.312 6.22-6.532 9.124-9.436 11.408-14.28-3.064-113.28-117.876-228.092-83.372-83.38-166.656-120.692-212.188-120.692-11.78 0-15.72 2.688-15.752 2.688v0c-3.032 3.032-6.252 6.124-9.592 9.28-10.376 9.908-26.064 24.844-25.72 32.936 0.156 4.28 5.376 12.908 19.468 24.22 25.344 20.408 36.592 22.592 40.28 22.592 4.844 0 11.908-6.812 22.936-18.032l5.064-5.092c9.532-9.564 22.032-14.624 36.124-14.624 20.532 0 53.28 9.188 125.092 81 71.876 71.844 81.064 104.624 81.032 125.156 0 14.092-5.064 26.564-14.592 36.064l-5.124 5.064c-23.376 23.064-25.812 25.468 4.564 63.28 11.564 14.344 20.192 19.468 24.44 19.468zM403.312 448c-14.564 0-30.876-8.408-49.376-31.436-51.468-64-26.188-81.936 2.876-111 20.312-20.252-22.092-71.624-66.436-115.968-36.468-36.468-77.72-71.624-102.468-71.624-5.312 0-9.876 1.624-13.468 5.22-16.908 16.908-30.032 32.532-50.656 32.532-14.844 0-33.564-8.092-60.344-29.656-64.064-51.532-14.876-85.78 13.252-113.968 7.936-7.936 21.188-12.092 38.408-12.092 53.188 0 144.408 39.656 234.812 130.064 119.688 119.688 150.468 240.78 117.968 273.252-18.036 17.988-38.6 44.676-64.568 44.676v0z" />
<glyph unicode="&#xe637;" glyph-name="PhoneCell" data-tags="PhoneCell" d="M352 480h-192c-35.204 0-64-28.796-64-64v-384c0-35.204 28.796-64 64-64h192c35.204 0 64 28.796 64 64v384c0 35.204-28.796 64-64 64zM384 64h-256v352h256v-352zM288 0h-64v32h64v-32z" />
<glyph unicode="&#xe638;" glyph-name="Phone" data-tags="Phone" d="M292.844 187.156c-47.5-47.5-102.532-92.92-124.252-71.188-31.108 31.14-50.328 58.264-118.92 3.108-68.656-55.204-15.936-91.92 14.22-122.124 34.78-34.752 164.532-1.812 292.736 126.376 128.236 128.252 161.22 257.984 126.408 292.78-30.188 30.156-66.936 82.86-122.092 14.22-55.14-68.592-28.048-87.812 3.080-118.92 21.74-21.72-23.68-76.768-71.18-124.252z" />
<glyph unicode="&#xe639;" glyph-name="Pause" data-tags="Pause" d="M160 96c0-4.092 1.564-8.188 4.688-11.312s7.22-4.688 11.312-4.688h32c4.092 0 8.188 1.564 11.312 4.688s4.688 7.22 4.688 11.312v256c0 4.092-1.564 8.188-4.688 11.312s-7.22 4.688-11.312 4.688h-31.968c-4.092 0-8.204-1.564-11.344-4.696-3.124-3.132-4.688-7.232-4.688-11.336v-255.968zM288 96c0-4.092 1.564-8.188 4.688-11.312s7.22-4.688 11.312-4.688h32c4.092 0 8.188 1.564 11.312 4.688s4.688 7.22 4.688 11.312v256c0 4.092-1.564 8.188-4.688 11.312s-7.22 4.688-11.312 4.688h-32c-4.092 0-8.188-1.564-11.312-4.688s-4.688-7.22-4.688-11.312v-256z" />
<glyph unicode="&#xe63a;" glyph-name="OpenedFolder" data-tags="OpenedFolder" d="M466 272h-18c0 35.204-28.796 64-64 64h-162.28c-7.188 27.476-32.064 48-61.72 48h-96c-29.656 0-54.532-20.524-61.72-48h-2.28v-240c0-35.204 28.796-64 64-64h320c27.892 0 51.5 18.188 60.22 43.204 5.016 6.564 9.408 13.484 12.436 20.796l46.672 112c14.672 35.204-2.124 64-37.328 64zM477.78 208l-46.892-112c-7.264-17.64-28.14-32-45.58-32h-316.228c-17.452 0-25.704 14.36-18.452 32l46.124 112c7.264 17.64 27.36 32 44.812 32h319.328c17.452 0 24.172-14.36 16.888-32z" />
<glyph unicode="&#xe63b;" glyph-name="Pacifier" data-tags="Pacifier" d="M423.408 234.22c19.872 53.656 12.404 97.968-7.408 117.78-32 32-96 32-96 32s-25.188-10.408-64.752-40.5c-3.936 58.28-51.936 104.5-111.248 104.5-61.844 0-112-50.156-112-112 0-59.28 46.22-107.312 104.5-111.252-30.092-39.56-40.5-64.748-40.5-64.748s0-64 32-96c19.812-19.812 64.124-27.28 117.78-7.408 22.972-34.124 61.972-56.592 106.22-56.592 70.688 0 128 57.312 128 128 0 44.248-22.468 83.248-56.592 106.22zM167.624 250.564c-6.312-1.532-12.812-2.564-19.624-2.564-46.376 0-84 37.624-84 84s37.624 84 84 84c46.408 0 84-37.624 84-84 0-6.812-1.032-13.312-2.564-19.624 26.752-15.628 42.564-35.908 42.564-56.376 0-26.5-21.5-48-48-48-20.468 0-40.748 15.812-56.376 42.564zM352 32c-31.252 0-58.72 15.156-76.252 38.28 24.596 13.156 50.408 31.876 76.252 57.72s44.564 51.656 57.72 76.252c23.124-17.532 38.28-45.004 38.28-76.252 0-53-43-96-96-96z" />
<glyph unicode="&#xe63c;" glyph-name="NewTab" data-tags="NewTab" d="M96 480v-128h64v64h288v-288h-64v-64h128v416zM256 32h-192v192h96v64h-160v-320h320v160h-64zM412.78 380.78l-203.64-22.624 67.876-67.892-181.016-181.016 45.252-45.248 181.012 181.016 67.892-67.876z" />
<glyph unicode="&#xe63d;" glyph-name="NewCategory" data-tags="NewCategory" d="M480 416h-416v-64h416v64zM480 224h-154.132l-35.432 64h189.564zM480 160h-160v-64h160v64zM153.452 289.080c75.14 0 136.032-60.916 136.032-136.032 0-75.156-60.892-136.048-136.032-136.048s-136.048 60.892-136.048 136.048c0.004 75.116 60.908 136.032 136.048 136.032zM64 128h64v-64h48v64h64v48h-64v64h-48v-64h-64v-48z" />
<glyph unicode="&#xe63e;" glyph-name="Move2" data-tags="Move2" d="M160 256h-64v64l-96-96 96-96v64h64zM352 192h64v-64l96 96-96 96v-64h-64zM224 128v-64h-64l96-96 96 96h-64v64zM288 320v64h64l-96 96-96-96h64v-64zM192 245.332v-85.332h128v128h-128v-42.668zM288 256v-64h-64v64h64z" />
<glyph unicode="&#xe63f;" glyph-name="Move" data-tags="Move" d="M429.92 347.032h-172.468c0 37.92-31.048 68.968-68.984 68.968h-103.468c-37.952 0-69-31.048-69-68.968v-241.452c0-37.952 31.048-69 69-69h206.952v103.484h-68.984l103.484 137.968 103.468-137.968h-68.984v-103.484h68.984c37.936 0 68.984 31.048 68.984 69v189.684c0.004 37.956-31.044 51.768-68.984 51.768z" />
<glyph unicode="&#xe640;" glyph-name="DKNone" data-tags="DKNone" d="M343.304 384h-47.524v-47.524zM398.188 255.212l21.28 14.736 80.312 114.048h-11.12l-192.88-192.88v-78.632h53.972v115.968h14.156l81.56-115.968h66.532l-91.748 127.604zM40.276 80.968l3.816 31.516h27.7l47.312 47.312h-32.856c6.032 13.188 12.032 34.452 17.908 63.812 5.908 29.344 9.66 67.032 11.252 113.064h61.028v-119.544l53.964 53.964v112.908h-165c0.252-36.984-1.060-68.984-3.936-96-2.904-27.032-6.436-49.532-10.656-67.5-4.184-17.984-8.372-31.876-12.592-41.704-4.216-9.812-7.216-16.156-9.092-19h-29.124v-95.796h23.308l16.968 16.968zM264.46 159.796l-47.312-47.312h4.192l5.908-48.484h38.216v95.796zM512 452.592l-484.592-484.592-27.408 27.436 484.564 484.564z" />
<glyph unicode="&#xe641;" glyph-name="Money" data-tags="Money" d="M379.2 240c-3.273-0.1-7.123-0.157-10.986-0.157-18.7 0-37.087 1.337-55.072 3.919l2.058-0.243-29.76-16.32 24.32-5.76-73.92-41.6-24.64 5.76-29.76-16.32 97.6-23.36 29.76 16.32-24.32 5.76 119.040 64zM295.36 312.96c-114.88 0-208-51.52-208-114.88v0 0-24.96c0-64 93.12-114.88 208-114.88 33.558 0.003 66.077 4.44 97.008 12.757l-2.608-0.597c-48.461-29.053-106.921-46.233-169.395-46.233-3.56 0-7.107 0.056-10.641 0.166l0.517-0.013c-108.48-1.28-196.48 44.48-196.48 90.88 0 23.040 20.16 45.76 55.68 60.8 0 3.52 0 5.12 0 8.64-43.2-18.88-69.44-46.72-69.44-77.76v0 0-23.040c0-57.92 96-105.28 212.8-105.28s209.92 45.76 212.8 102.72c51.84 19.84 86.4 53.12 86.4 90.56v26.24c0 63.36-88.64 114.88-216.64 114.88zM302.4 106.24c-108.48 0-196.48 41.28-196.48 91.84s88 96 196.48 96 197.12-44.8 197.12-96-88.64-91.84-197.12-91.84z" />
<glyph unicode="&#xe642;" glyph-name="Message2" data-tags="Message2" d="M256 416c-141.392 0-256-70.76-256-158.048 0-62.52 58.936-116.392 144.252-142.028l-71.576-90.84c-13.172-22.908 9.828-28.9 21.028-22.908l212.376 100.792c117.404 14.384 205.92 78.28 205.92 154.984 0 87.288-114.608 158.048-256 158.048z" />
<glyph unicode="&#xe643;" glyph-name="Master" data-tags="Master" d="M120 371.468v-29.32l56-54.148h160l56 54.148v29.32c12 6.396 16.924 17.332 16.924 29.764 0 19.704-15.528 35.688-35.24 35.688s-35.44-15.984-35.44-35.688c0-16.888 11.836-31.008 27.584-34.724l-28.12-26.988-69.908 67.448c13.896 4.88 23.872 18.080 23.872 33.64 0 19.72-15.952 35.704-35.68 35.704s-35.684-15.984-35.684-35.704c0-15.596 10.008-28.82 23.952-33.672l-69.908-67.412-28.252 27c15.724 3.732 27.42 17.84 27.42 34.712 0 19.704-15.96 35.688-35.672 35.688s-34.776-15.984-34.776-35.688c0.004-12.432 4.928-23.372 16.928-29.768zM394.852 41.976l-5.944 6.024h4.944c21.752 0 39.384 11.688 39.384 28 0 16.296-17.632 28-39.384 28h-19.704c0 36-57.664 24-74.304 108h34.92c21.752 0 39.384 13.672 39.384 30 0 16.296-17.648 30-39.384 30h-157.528c-21.752 0-39.384-13.704-39.384-30 0-16.328 17.632-30 39.384-30h34.92c-16.64-84-74.304-72-74.304-108h-19.704c-21.752 0-39.384-11.704-39.384-28 0-16.312 17.632-28 39.384-28h4.844l-5.996-6.024c-35.52-32.108-53.012-73.976-18.26-73.976h314.58c34.764 0 17.16 41.868-18.464 73.976z" />
<glyph unicode="&#xe644;" glyph-name="Check2" data-tags="Check2" d="M288 288h-256c-13.188 0-32-18.796-32-32v-256c0-13.72 18.28-32 32-32h250.656c12.828 0 37.344 19.156 37.344 32v256c0 13.108-18.892 32-32 32zM288 0h-256v256h256v-256zM281.532 197.592l-51.564 52-91.344-138.42-62.544 61.608-25.236-52.236 104.58-101.516 126.108 178.564zM240 328h44l-28 24.556-16-24.556zM480 480h-256c-13.108 0-32-18.892-32-32v-128h32v128h256v-256h-128v-32h128c12.688 0 32 19.296 32 32v236.796c0 13.112-18.876 51.204-32 51.204zM352 328v-96l108 140-44 76-84-120h20z" />
<glyph unicode="&#xe645;" glyph-name="Map" data-tags="Map" d="M377.408 432h-345.408v-432h345.408l115.124 216-115.124 216zM89.564 215.876c0 87.428 70.876 158.304 158.312 158.304 13.548 0 26.696-1.708 39.244-4.912l-111.212-139.004 27.748-166.384c-65.908 19.144-114.092 79.924-114.092 151.996zM291.048 215.876c0-23.844-19.344-43.172-43.172-43.172s-43.172 19.328-43.172 43.172 19.344 43.172 43.172 43.172 43.172-19.328 43.172-43.172zM247.876 57.58c-13.548 0-26.692 1.712-39.244 4.912l111.196 138.996-27.732 166.388c65.908-19.14 114.088-79.924 114.088-152 0.004-87.424-70.872-158.296-158.308-158.296z" />
<glyph unicode="&#xe646;" glyph-name="Mail" data-tags="Mail" d="M0 384l256-188.8 256 188.8zM0 64h512v234.56l-242.88-167.040c-3.866-1.345-8.322-2.122-12.96-2.122s-9.094 0.777-13.245 2.207l0.286-0.086c-2.56 1.28-243.2 167.040-243.2 167.040z" />
<glyph unicode="&#xe647;" glyph-name="Lock" data-tags="Lock" d="M402.24 256v77.76c0 80.766-65.474 146.24-146.24 146.24s-146.24-65.474-146.24-146.24v-77.76c-20.148 0-36.48-16.333-36.48-36.48v-214.72c-0.001-0.095-0.001-0.207-0.001-0.32 0-20.147 16.332-36.48 36.48-36.48 0.001 0 0.001 0 0.001 0h292.48c20.147 0 36.48 16.332 36.48 36.48v215.040c0 20.148-16.332 36.48-36.48 36.48zM280.32 91.52v-36.48c0-13.432-10.889-24.32-24.32-24.32s-24.32 10.889-24.32 24.32v36.48c-7.506 7.329-12.161 17.55-12.161 28.858 0 0.092 0 0.185 0.001 0.276-0.014 0.377-0.023 0.837-0.023 1.298 0 20.476 16.161 37.178 36.424 38.044 20.419-0.867 36.581-17.568 36.581-38.044 0-0.462-0.008-0.921-0.024-1.379 0.002-0.012 0.002-0.104 0.002-0.196 0-11.308-4.655-21.529-12.153-28.85zM365.76 256h-219.52v77.76c0 60.619 49.141 109.76 109.76 109.76s109.76-49.141 109.76-109.76v-77.76z" />
<glyph unicode="&#xe648;" glyph-name="ListView" data-tags="ListView" d="M160 384h320v-64h-320v64zM160 256h320v-64h-320v64zM160 128h320v-64h-320v64zM32 384h64v-64h-64v64zM32 256h64v-64h-64v64zM32 128h64v-64h-64v64z" />
<glyph unicode="&#xe649;" glyph-name="Linked" data-tags="Linked" d="M416.092 131.704c-22.28 0-42.124-9.436-56.064-24.204l-193.856 99.452c1.36 5.484 2.252 11.148 2.252 17.048s-0.892 11.564-2.252 17.056l193.86 99.444c13.936-14.764 33.78-24.196 56.064-24.196 42.092 0 76.22 33.072 76.22 73.852s-34.128 73.844-76.224 73.844c-42.080 0-76.22-33.064-76.22-73.844 0-5.9 0.908-11.564 2.252-17.056l-193.852-99.452c-13.928 14.764-33.788 24.196-56.072 24.196-42.084 0-76.2-33.064-76.2-73.844s34.116-73.844 76.204-73.844c22.28 0 42.14 9.42 56.072 24.204l193.852-99.468c-1.344-5.484-2.252-11.156-2.252-17.048 0-40.78 34.14-73.844 76.22-73.844 42.092 0 76.22 33.064 76.22 73.844s-34.128 73.86-76.224 73.86z" />
<glyph unicode="&#xe64a;" glyph-name="IPmask" data-tags="IPmask" d="M416 440.616c31.212 0 56.616-25.384 56.616-56.616v-320c0-31.232-25.408-56.616-56.616-56.616h-320c-31.212 0-56.616 25.388-56.616 56.616v320c0 31.232 25.404 56.616 56.616 56.616h320zM416 480h-320c-53.040 0-96-42.96-96-96v-320c0-53.040 42.96-96 96-96h320c53.040 0 96 42.96 96 96v320c0 53.040-42.96 96-96 96v0zM393.848 302.768h-78.768v39.384c0 10.884-8.808 19.692-19.696 19.692h-78.768c-10.884 0-19.692-8.808-19.692-19.692v-39.384h-78.768c-10.884 0-19.692-8.808-19.692-19.692v-177.228c0-10.888 8.808-19.696 19.692-19.696h39.384v68.928c0 5.44 4.404 9.844 9.844 9.844s9.844-4.404 9.844-9.844v-68.924h39.384v68.924c0 5.44 4.404 9.844 9.844 9.844 5.444 0 9.848-4.404 9.848-9.844v-68.924h39.384v68.924c0 5.44 4.408 9.844 9.848 9.844s9.844-4.404 9.844-9.844v-68.924h39.388v68.924c0 5.44 4.404 9.844 9.848 9.844 5.44 0 9.844-4.404 9.844-9.844v-68.924h39.388c10.884 0 19.692 8.808 19.692 19.696v177.224c0 10.884-8.808 19.692-19.692 19.692z" />
<glyph unicode="&#xe64b;" glyph-name="Info" data-tags="Info" d="M253.42 412.828c-106.032-1.42-190.812-88.54-189.408-194.572 1.42-105.984 88.516-190.804 194.548-189.4 106 1.42 190.828 88.54 189.42 194.572-1.416 105.988-88.528 190.82-194.56 189.4zM274.72 348.852c19.5 0 25.28-11.336 25.28-24.28 0-16.18-12.968-31.14-35.064-31.14-18.468 0-27.264 9.304-26.764 24.664 0 12.952 10.86 30.756 36.548 30.756zM224.688 100.852c-13.344 0-23.124 8.080-13.78 43.688l15.296 63.116c2.656 10.116 3.108 14.164 0 14.164-4 0-21.328-6.984-31.548-13.86l-6.656 10.924c32.436 27.092 69.736 42.976 85.736 42.976 13.344 0 15.564-15.764 8.908-40.040l-17.532-66.376c-3.108-11.72-1.764-15.764 1.328-15.764 4 0 17.124 4.868 30 14.984l7.548-10.116c-31.552-31.548-65.972-43.696-79.3-43.696z" />
<glyph unicode="&#xe64c;" glyph-name="Home2" data-tags="Home2" d="M512 256l-256 160-256-160v-32l64 40v-200h384v200l64-40v32zM416 96h-320v188l160 100 160-100v-188z" />
<glyph unicode="&#xe64d;" glyph-name="Icq" data-tags="Icq" d="M454.108 236.968c0 0 32.844 13.328 30.108 63.92 0 0 2.736 58.592-90.344 58.592 0 0 32.86 61.236-38.344 95.86 0 0-76.656 34.624-112.252-34.624 0 0-46.548 55.936-101.312 18.656 0 0-43.796-34.64-8.204-93.22 0 0-117.736 15.968-117.736-79.876 0 0-2.736-39.952 49.28-63.92 0 0-32.844-29.28-19.172-61.236 0 0 13.704-37.296 71.188-39.952 0 0-46.548-101.188 73.936-117.172 0 0 60.22 0 76.656 53.252 0 0 41.080-37.264 79.408-13.296 0 0 35.58 21.28 32.844 69.22 0 0 68.452-31.952 104.048 29.312 0.008 0 41.068 66.58-30.104 114.484zM448.624 306.236c0 0 21.908-37.296-35.592-55.936 0 0-67.236-8.188-93.124-10.188-1.844 6.28-4.58 12.236-8.080 17.64l65.624 56.468c0 0 41.064 39.92 71.172-7.984zM314.452 431.392c54.78-2.688 54.78-45.28 54.78-45.28 2.736-21.296-21.908-42.608-21.908-42.608l-56.416-64.864c-5.564 3.64-11.704 6.516-18.236 8.484l-7.484 104.312c2.732 45.268 49.264 39.956 49.264 39.956zM174.828 420.72c64.42 9.28 64.392-102.736 63.312-131.72-7.124-1.312-13.876-3.656-20.048-6.86-13.892 20.42-62.436 82.672-62.436 82.672-24.64 39.924 19.172 55.908 19.172 55.908zM84.484 231.672c-68.452 21.28-19.172 69.22-19.172 69.22 32.86 31.968 82.14 2.656 82.14 2.656l44.016-45.328c-2.764-4.236-5.092-8.764-6.892-13.564-28.824-6.876-100.092-12.984-100.092-12.984zM183.032 15.968c-49.264 10.64-43.796 47.936-43.796 47.936 0 23.048 50.968 77.516 72.592 99.592 6.264-4.080 13.22-7.22 20.656-9.204 5.984-35 8.064-95.736 8.064-95.736-5.484-50.588-57.516-42.588-57.516-42.588zM251.484 178.392c-24.188 0-43.796 19.092-43.796 42.608 0 23.532 19.608 42.608 43.796 42.608 24.22 0 43.812-19.080 43.812-42.608 0-23.516-19.592-42.608-43.812-42.608zM330.892 50.58c-27.376-10.64-38.328 7.984-38.328 7.984-14.468 18.080-19.564 71.048-21.204 95.952 5.58 1.58 10.908 3.796 15.828 6.592 17.188-16.156 49.188-54.608 49.188-54.608 27.376-37.296-5.484-55.92-5.484-55.92zM462.328 157.092c0 0-8.22-50.592-52.032-42.592 0 0-19.156 5.296-35.58 18.624l-62.624 51.532c4.080 6.452 7.124 13.608 8.876 21.252l75.64 4.436c0 0 71.188 10.656 65.72-53.252z" />
<glyph unicode="&#xe64e;" glyph-name="Home" data-tags="Home" d="M512 208l-234.78 256.892c-11.688 12.108-30.752 12.108-42.436 0l-234.784-256.892c32 0 64 0 64 0l0.016-192c0-12.704 9.080-32 31.984-32h96v192h128v-192h96c17.468 0 32 19.296 32 32v192c0 0 64-2.14 64 0z" />
<glyph unicode="&#xe64f;" glyph-name="Filter" data-tags="Filter" d="M256 448c-141.376 0-256-2.032-256-62l192-194v-160c0-32 64-32 64-32s64 0 64 32v160l192 194c0 61.312-114.624 62-256 62zM256 352c-96 0-192 0-192 32s32 32 192 32 192 0 192-32-96-32-192-32z" />
<glyph unicode="&#xe650;" glyph-name="HierarchyView" data-tags="HierarchyView" d="M32 256h448v-64h-448v64zM32 128h448v-64h-448v64zM32 384h64v-64h-64v64zM160 384h64v-64h-64v64zM288 384h64v-64h-64v64z" />
<glyph unicode="&#xe651;" glyph-name="Hide" data-tags="Hide" d="M93.064 128.968l59.592 61.080c-2.092 8.172-3.328 16.672-3.328 25.468 0 57.656 47.764 104.392 106.672 104.392 7.312 0 14.436-0.736 21.328-2.092l28.42 29.124c-15.688 2.624-32.188 4.264-49.752 4.264-157.452 0-240-117.124-240-135.688 0.004-10.452 26.16-52.108 77.068-86.548zM408.656 308.468l-53.452-54.78c4.764-11.828 7.452-24.672 7.452-38.172 0-57.64-47.752-104.392-106.656-104.392-12.064 0-23.592 2.064-34.408 5.656l-29.264-29.984c19.688-4.264 40.796-6.968 63.672-6.968 157.436 0 240 117.108 240 135.688 0 11.108-29.812 57.452-87.344 92.952zM308.312 205.656l-39.72-40.688c20.128 4.78 35.784 20.624 39.72 40.688zM451.188 448l-413.78-424.016 23.404-23.984 413.78 424.016z" />
<glyph unicode="&#xe652;" glyph-name="Handwrite2" data-tags="Handwrite2" d="M473.6 441.6c-41.6 44.8-76.8 38.4-76.8 38.4l-364.8-368-32-144 144 32 368 364.8c0 0 6.4 35.2-38.4 76.8zM137.6 16l-48-9.6c-3.2 9.6-9.6 19.2-22.4 28.8-9.6 9.6-19.2 16-28.8 22.4l9.6 48 12.8 12.8c0 0 25.6 0 57.6-32 28.8-28.8 32-57.6 32-57.6l-12.8-12.8zM224 0c-12.8-9.6-25.6-22.4-38.4-32h326.4v32h-288z" />
<glyph unicode="&#xe653;" glyph-name="Handwrite1" data-tags="Handwrite1" d="M385.78 32h-140.5c-38.968 0-52.008 33.296-52.008 18.812 0-14.516 8.82-66.812 68.82-66.812h106.876c60 0 66.624 52.296 66.624 66.812 0 14.484-12.64-18.812-49.812-18.812zM239.212 48h150.788c28.064 0 58.564 106.844 58.564 189.196 0 23.212-96.564 53.008-176.564 66.148v129.928c0 16.972-15.468 30.728-32.444 30.728h-3.968c-16.972 0-27.588-13.756-27.588-30.728v-156.056c0-32.92 4.204-71.124-0.532-72.86-7.828-2.936-95.616 87.312-154.196 40.092-13.712-11.040 65.18-47.032 101.092-100.252 19.8-29.352 61.572-96.196 84.848-96.196z" />
<glyph unicode="&#xe654;" glyph-name="Groups" data-tags="Groups" d="M350.796 113.28c-58.764 22.376-77.548 41.236-77.548 81.624 0 24.252 17.936 16.328 25.812 60.736 3.28 18.42 19.124 0.28 22.156 42.328 0 16.78-8.656 20.936-8.656 20.936s4.408 24.78 6.124 43.892c2.144 23.768-13.168 85.204-94.7 85.204-81.5 0-96.812-61.436-94.672-85.204 1.72-19.108 6.124-43.892 6.124-43.892s-8.656-4.156-8.656-20.936c3.016-42.048 18.876-23.908 22.124-42.328 7.908-44.408 25.844-36.484 25.844-60.736 0-40.392-18.78-59.252-77.532-81.624-58.92-22.404-97.216-45.28-97.216-60.888 0-15.564 0-52.392 0-52.392h168l56 84-37.328 28 37.328 28 37.328-28-37.328-28 56-84h168c0 0 0 36.828 0 52.392 0 15.608-38.296 38.484-97.204 60.888zM449.5 136.828c-37.764 14.376-49.844 26.516-49.844 52.468 0 15.592 11.532 10.484 16.592 39.048 2.108 11.844 12.312 0.172 14.252 27.204 0 10.796-5.564 13.468-5.564 13.468s2.828 15.92 3.936 28.204c1.38 15.28-8.464 54.78-60.888 54.78-7.048 0-13.264-0.764-18.86-2.032-1.016-7.908-2.312-15.844-3.312-22.312 4.124-7.844 6.188-17.72 6.188-29.688v-1.156l0.532-1.156c-1.936-26.688-8.344-42.844-23.548-53.5-2.016-8.968-4.516-16.28-7.236-22.436 5.608-18.936 14.592-16.656 14.592-30.42 0-12.516-2.908-21.78-10.048-29.672 7.264-4.328 17.080-9 30.252-14.22l11.456 8.592 24-18-4.22-3.156c66-28.092 85.796-50.328 90.704-68.844l2.016-64c0 0 31.5 14.296 31.5 32 0 26.156 0 59.72 0 65.688 0 10.032-24.624 24.72-62.5 39.14z" />
<glyph unicode="&#xe655;" glyph-name="Folder" data-tags="Folder" d="M416 336h-162.28c-7.188 27.476-32.064 48-61.72 48h-96c-29.656 0-54.532-20.524-61.72-48h-2.28v-240c0-35.204 28.796-64 64-64h320c35.204 0 64 28.796 64 64v176c0 35.204-28.796 64-64 64z" />
<glyph unicode="&#xe656;" glyph-name="Flag" data-tags="Flag" d="M496.696 369.668c-324.056-129.716-192.792 219.416-444.156 35.636l-52.54-18.892 104.112-409.292h57.332l-50.972 200.468c224.216 187.976 133.444-204.836 398.696 180.588 6.168 8.936-2.092 15.648-12.472 11.492z" />
<glyph unicode="&#xe657;" glyph-name="Fire" data-tags="Fire" d="M367.688 283.764c-10.876 43.704 16.312 81.956 16.312 81.956-59.876-10.936-59.876-65.548-59.876-65.548 5.468-21.844-5.436-27.28-5.436-27.28-114.28 103.716-32.64 191.108-32.64 191.108-114.296-32.764-81.64-174.736-81.64-174.736 16.344-43.704-5.452-65.548-5.452-65.548-5.436 98.328-54.408 98.328-54.408 98.328 5.452-5.484 10.892-27.328 10.892-27.328 5.28-54.344-16.312-65.548-16.312-65.548-38.124-32.752-32.688-76.436-32.688-76.436 0-87.376 108.86-103.78 108.86-103.78 4.516-0.952 8.86-1.764 13.156-2.532-28.672 14.188-33.5 43.156-33.5 43.156-2.764 33.376 14.86 52.608 14.86 52.608 10.92 43.624-27.28 60-27.28 60 30.484-5.58 43.656-27.28 43.656-27.28 0-10.892 5.436-21.828 5.436-21.828 58.22 52.86 27.080 100.564 27.080 100.564 58.204-16.72 41.548-88.968 41.548-88.968-8.296-22.252 2.78-33.36 2.78-33.36 2.78 50.032 27.72 50.032 27.72 50.032-2.752-2.78-5.532-13.892-5.532-13.892 0-33.376 8.312-33.376 8.312-33.376 19.408-16.704 16.624-38.936 16.624-38.936 0-34.204-32.752-47.048-47.908-51.14 94.908 13.876 108.952 97.796 108.952 97.796 5.452 65.548-43.516 141.968-43.516 141.968zM112 16h288v-32h-288v32z" />
<glyph unicode="&#xe658;" glyph-name="CurtailList" data-tags="CurtailList" d="M160 416h320v-64h-320v64zM32 416h64v-64h-64v64zM160 288h320v-64h-320v64zM32 288h64v-64h-64v64zM153.624 32h204.812c16.564 0 25.564 0 25.564 21.344l-108.312 99c-4.688 4.688-11.752 7.656-19.688 7.656-7.876 0-14.936-2.968-19.624-7.656l-108.376-99c0-21.344 9-21.344 25.624-21.344z" />
<glyph unicode="&#xe659;" glyph-name="Fill" data-tags="Fill" d="M237.952 163.36c-35.080-10.436-77.392 19.42-75.092 32.344 2.252 12.968 98.36-9.344 161.296 77.736-79.328-17.048-104.704 20.436-94.468 26.14 23.624 13.064 93.704 5.408 131.080 40.86 19.22 18.236 28.252 62.592 20.42 78.42-9.408 19.124-66.796 47.64-98.408 44.952-31.624-2.672-81.264-117.312-95.968-116.42-14.72 0.92-17.656 51.344 8 98.252-27.064-11.656-76.688-47.984-92.264-79-28.984-57.72 2.704-190.188-7.436-194.892-10.204-4.704-44.408 60.796-54.608 90.452-13.952-45.484-14.28-91.092 26.484-151.672-15.376-39.736-23.78-85.5-25.048-108.72-0.592-18.624 18.204-22.624 21.592-12.092 7.688 24.032 19.344 57.86 35 106.828 68.048 10.484 96.22-8.344 139.42 66.812zM112 16h384v-32h-384v32z" />
<glyph unicode="&#xe65a;" glyph-name="Favourite" data-tags="Favourite" d="M438.72-32l-182.72 142.080-183.36-142.080 79.040 210.24-151.68 101.12 180.8 25.92 75.2 174.72 74.88-174.72 181.12-25.92-152-101.12z" />
<glyph unicode="&#xe65b;" glyph-name="Exclamation" data-tags="Exclamation" d="M192 384h96v-224h-96v224zM192 128h96v-64h-96v64z" />
<glyph unicode="&#xe65c;" glyph-name="Erase" data-tags="Erase" d="M301.514 254.499c78.254 75.59 167.396 157.136 210.479 182.839 0 0-126.537-59.402-255.182-142.201-42.395 36.983-96.31 78.078-154.557 119.433 0 0-66.006 52.703-94.194 15.436 0 0-17.055-35.359 31.488-64.703 0 0 68.662-47.778 159.072-106.917-67.703-49.059-133.701-106.322-183.092-169.54 0 0-32.295-37.579-3.72-66.031 0 0 17.755-22.931 84.026 39.719 0 0 73.718 62.123 166.118 153.404 98.902-67.934 201.431-147.153 242.574-207.791 0-0.005-40.236 92.37-203.012 246.35z" />
<glyph unicode="&#xe65d;" glyph-name="EmptyMessage" data-tags="EmptyMessage" d="M256 384c121.42 0 224-57.724 224-126.052 0-57.828-76.436-110.8-177.812-123.22l-5.14-0.628-4.688-2.22-151.452-71.912 57.576 73.068-45.032 13.528c-73.78 22.18-121.452 65.896-121.452 111.384 0 68.328 102.58 126.052 224 126.052zM256 416c-141.392 0-256-70.756-256-158.052 0-62.516 58.936-116.388 144.252-142.028l-71.58-90.84c-10.032-17.444 0.92-25.084 11.656-25.084 3.36 0 6.704 0.748 9.376 2.176l212.376 100.796c117.404 14.384 205.92 78.28 205.92 154.98 0 87.296-114.608 158.052-256 158.052v0z" />
<glyph unicode="&#xe65e;" glyph-name="Email" data-tags="Email" d="M256 464c-132.548 0-240-107.452-240-240s107.452-240 240-240 240 107.452 240 240-107.452 240-240 240zM367.844 86.408c-26.876-14.968-59.656-24.22-98.328-24.22-37.408 0-69.72 5.452-96.936 18.108-27.22 12.624-47.468 30.86-60.736 55.532-13.264 24.656-19.892 51.28-19.892 80.296 0 31.876 7.532 61.436 22.64 88.936 15.064 27.516 35.688 48.092 61.892 61.844 26.204 13.796 56.124 20.656 89.812 20.656 28.564 0 53.968-5.548 76.204-16.656 22.22-11.124 39.204-26.936 50.936-47.392 11.736-20.5 17.592-42.86 17.592-67.108 0-28.92-8.908-55.064-26.72-78.408-22.308-29.496-50.948-44.232-85.872-44.232-9.42 0-16.5 1.64-21.252 4.936-4.764 3.28-7.936 8.108-9.532 14.452-13.376-12.908-28.812-19.392-46.264-19.392-18.844 0-34.452 6.516-46.86 19.484-12.42 12.968-18.624 30.22-18.624 51.78 0 26.672 7.468 50.968 22.452 72.984 18.124 26.764 41.376 40.124 69.736 40.124 20.188 0 35.092-12.64 44.736-28.064l4.252 13.932h44.892l-25.672-117.016c-1.58-7.688-2.376-10.204-2.376-12.484 0-2.844 0.656-3.736 1.936-5.14 1.296-1.42 2.86-1.516 4.672-1.516 5.468 0 12.5 3.592 21.108 10.172 11.564 8.624 20.92 20.344 28.064 34.86s10.704 29.592 10.704 45.124c0 27.92-10.092 51.296-30.264 70.064-20.188 18.764-48.36 28.14-84.516 28.14-30.752 0-56.796-6.236-78.188-18.752-21.344-12.516-37.452-30.172-48.296-52.908-10.812-22.752-16.22-46.392-16.22-71.016 0-23.936 6.016-45.688 18.080-65.296 12.092-19.608 29.048-33.952 50.876-42.968 21.828-9 46.796-13.516 74.92-13.516 27.108 0 50.408 7.28 69.908 14.812s35.212 37.44 47.104 37.44h36.236c-11.328-32-28.752-44.564-52.204-57.592zM252 287.532c-9.752 0-18.78-3.764-27.048-11.312-8.264-7.532-14.516-18.28-18.704-32.252-4.204-13.936-6.28-26.28-6.28-37.064 0-14.408 2.908-25 8.752-31.812 5.844-6.796 13.064-10.204 21.688-10.204 6.468 0 12.532 1.608 18.22 4.78 4.28 2.236 8.532 5.828 12.736 10.704 6.016 6.908 11.204 17.016 15.564 30.264 4.36 13.264 6.548 25.64 6.548 37.080 0 12.812-2.968 22.656-8.92 29.516s-13.492 10.3-22.556 10.3z" />
<glyph unicode="&#xe65f;" glyph-name="CallOutgoing" data-tags="CallOutgoing" d="M452.124 428.408c-30.624 14.656-72.124 44.576-95.372-21.58-23.312-66.080 2.092-73.36 33.688-88.548 22.064-10.532 2.468-63.876-20.656-112.124-23.16-48.188-52.472-96.876-74.504-86.248-31.564 15.188-53.156 30.468-90.064-29.092-36.968-59.592 12.28-73.252 42.876-87.968 35.28-16.936 123.968 42.064 186.408 172.252 62.408 130.18 52.936 236.368 17.624 253.308zM128 448l32-32-64-64h192v-64h-192l64.5-64.032-32.5-31.968-128 128z" />
<glyph unicode="&#xe660;" glyph-name="Edit" data-tags="Edit" d="M473.6 441.6c-41.6 44.8-76.8 38.4-76.8 38.4l-364.8-368-32-144 144 32 368 364.8c0 0 6.4 35.2-38.4 76.8zM137.6 16l-48-9.6c-3.2 9.6-9.6 19.2-22.4 28.8-9.6 9.6-19.2 16-28.8 22.4l9.6 48 12.8 12.8c0 0 25.6 0 57.6-32 28.8-28.8 32-57.6 32-57.6l-12.8-12.8z" />
<glyph unicode="&#xe661;" glyph-name="Document" data-tags="Document" d="M416 320v-320h-320v448h192v32h-224v-512h384v352h-32zM320 480v-128h122.24l-122.24 128zM160 256h192v-32h-192v32zM160 192h192v-32h-192v32zM160 128h192v-32h-192v32z" />
<glyph unicode="&#xe662;" glyph-name="Search2" data-tags="Search2" d="M14.216-1.856l16.96-16.94c14.060-14.060 36.828-14.060 50.868 0l90.864 90.888c11.468 11.464 13.408 28.636 6.216 42.232l17.252 17.252c32.92-26.060 74.456-41.732 119.708-41.732 106.732 0 193.232 86.5 193.232 193.228 0 106.732-86.5 193.232-193.232 193.232-106.728 0-193.228-86.5-193.228-193.232 0-45.268 15.672-86.788 41.732-119.708l-17.252-17.268c-13.6 7.212-30.812 5.268-42.252-6.176l-90.864-90.88c-14.040-14.040-14.040-36.828-0.004-50.896zM316.084 125.596c-87 0-157.5 70.48-157.5 157.48s70.5 157.484 157.5 157.484 157.5-70.484 157.5-157.484c0-86.996-70.5-157.48-157.5-157.48z" />
<glyph unicode="&#xe663;" glyph-name="Delete" data-tags="Delete" d="M428.344 371.728c0.5 4.196-0.58 8.58-3.392 12.164-2.812 3.592-6.812 5.704-11 6.212l-102.752 12.492c8.708 71.484-110.42 85.968-119.12 14.484l-101.236 12.352c-4.58 0.556-9.376-0.632-13.28-3.704-3.92-3.064-6.22-7.428-6.78-12.008l-3.624-29.78 357.376-43.5 3.808 31.288zM287.392 405.5l-71.484 8.672c3.732 30.656 75.2 21.984 71.484-8.672zM72 320l69.376-323.796c0.72-3.344 2.532-6.452 5.392-8.752 2.86-2.312 6.28-3.436 9.688-3.436h192.86c2.936 0 5.876 0.968 8.312 2.936 2.452 1.968 4 4.656 4.608 7.5l69.764 325.548h-360zM168 32.016l-24 239.984c-2.188 13.032 21.812 12.984 24 0l24-239.984c2.156-13-21.828-13-24 0zM360 272l-24-239.984c-2.124-13-26.108-13-24 0l24 239.984c2.124 13.032 26.124 13.032 24 0z" />
<glyph unicode="&#xe664;" glyph-name="Colorize" data-tags="Colorize" d="M351.124 299.628l96.876-75.628c31.688-31.688-32-80-32-160 0-60 96-64 96 0 0 32 0 64.912 0 96.004 0 117.78-160.876 139.624-160.876 139.624zM333.54 271.936c0.792 2.336 1.244 4.836 1.244 7.44 0 83.808-45.588 199.904-131.184 199.904-81.28 0-111.564-74.436-111.564-121.344 0-12.844 10.408-23.22 23.22-23.22 12.844 0 23.22 10.376 23.22 23.22 0 0.752 2.812 74.936 65.124 74.936 46.968 0 84.78-83.968 84.78-153.496 0-9.048 5.188-16.864 12.74-20.684 3.468-5.356 5.54-11.708 5.54-18.568 0-18.908-15.34-34.28-34.34-34.28s-34.344 15.376-34.344 34.28c0 12.252 6.436 22.876 16.064 28.968 5.064 14.968 12.032 44.124 1.156 78.308l-19.812 19.876c-27.876 27.876-55.124 1.812-55.124 1.812l-175.316-175.272c-18.376-18.344 16.060-82.592 76.872-143.408 60.812-60.808 125.032-95.276 143.436-76.872 0 0 165.404 165.404 174.216 174.216 8.78 8.812 23.188 32.156 2.156 53.156-10.964 11-41.448 42.976-68.084 71.028z" />
<glyph unicode="&#xe665;" glyph-name="Decline" data-tags="Decline" d="M414.4 382.368c-87.468 87.484-229.3 87.484-316.772 0-87.484-87.472-87.484-229.3 0-316.772 87.472-87.484 229.304-87.484 316.772 0 87.488 87.472 87.488 229.304 0 316.772zM137.224 342.78c58.828 58.832 150.196 64.464 215.792 17.8l-233.592-233.596c-46.66 65.596-41.028 156.964 17.8 215.796zM374.808 105.192c-58.828-58.832-150.196-64.464-215.792-17.8l233.592 233.596c46.66-65.6 41.028-156.968-17.8-215.796z" />
<glyph unicode="&#xe666;" glyph-name="DayForward" data-tags="DayForward" d="M192 337.24v-258.476c0-8.152 6.196-14.76 13.836-14.76 3.156 0 10.436 5.36 10.436 5.36l132.66 129.756c1.808 2.5 3.068 5.48 3.068 8.88 0 3.396-1.26 6.38-3.064 8.872l-132.66 129.76c0 0-7.292 5.368-10.44 5.368-7.64 0-13.836-6.608-13.836-14.76z" />
<glyph unicode="&#xe667;" glyph-name="DayBackward" data-tags="DayBackward" d="M319.936 337.24v-258.48c0-8.152-6.196-14.76-13.836-14.76-3.156 0-10.436 5.36-10.436 5.36l-132.66 129.76c-1.808 2.5-3.068 5.48-3.068 8.88 0 3.396 1.26 6.38 3.064 8.872l132.66 129.76c0 0 7.292 5.368 10.44 5.368 7.64 0 13.836-6.608 13.836-14.76z" />
<glyph unicode="&#xe668;" glyph-name="CreateFolder" data-tags="CreateFolder" d="M464 320h-208v48c-0.694 26.226-21.774 47.306-47.935 47.999l-160.065 0.001c-26.226-0.694-47.306-21.774-47.998-47.935l-0.002-80.065h32v80c0.633 8.57 7.43 15.367 15.943 15.996l160.057 0.004c8.57-0.633 15.367-7.43 15.996-15.943l0.004-80.057h240c8.57-0.633 15.367-7.43 15.997-15.943l0.003-192.057c-0.633-8.57-7.43-15.367-15.943-15.997l-416.057-0.003c-8.57 0.633-15.367 7.43-15.996 15.943l-0.004 48.057h-32v-48c0.694-26.226 21.774-47.306 47.935-47.998l416.065-0.002c26.226 0.694 47.306 21.774 47.998 47.935l0.002 192.065c-0.694 26.226-21.774 47.306-47.935 47.999zM76.8 128h38.4v76.8h76.8v38.4h-76.8v76.8h-38.4v-76.8h-76.8v-38.4h76.8v-76.8z" />
<glyph unicode="&#xe669;" glyph-name="Copy" data-tags="Copy" d="M496.62 290.104l-190.264 50.976-33.284 124.268c-2.792 10.372-13.916 16.424-24.848 13.484l-231.96-62.136c-10.92-2.932-17.532-13.736-14.756-24.124l82.528-307.976c2.792-10.388 13.896-16.436 24.816-13.492l92.356 24.74-12.588-46.996c-2.792-10.404 3.808-21.196 14.756-24.112l207.252-55.544c10.932-2.932 22.040 3.1 24.816 13.508l75.916 283.304c2.792 10.372-3.82 21.168-14.74 24.1zM42.624 386.764l200.092 53.548 74.088-276.46-200.088-53.564-74.092 276.476zM401.568 7.704l-174.168 47.632 13.696 51.18 99.736 26.736c10.916 2.916 17.532 13.728 14.752 24.112l-38.528 143.816 151.988-41.676-67.476-251.8z" />
<glyph unicode="&#xe66a;" glyph-name="Company" data-tags="Company" d="M256 320v128h-224v-448h32v96h160v-96h256v320h-224zM224 128h-160v32h160v-32zM224 192h-160v32h160v-32zM224 256h-160v32h160v-32zM224 320h-160v32h160v-32zM224 384h-160v32h160v-32zM352 32h-64v64h64v-64zM352 128h-64v64h64v-64zM352 224h-64v64h64v-64zM448 32h-64v64h64v-64zM448 128h-64v64h64v-64zM448 224h-64v64h64v-64z" />
<glyph unicode="&#xe66b;" glyph-name="CommercialSignature" data-tags="CommercialSignature" d="M387.956 244v236h-256v-236c0 0-32-14.312-32-32v-224c0-17.688 30.28-20 47.968-20h256c17.688 0 16.032 2.312 16.032 20v224c0 17.688 0 32-32 32zM163.956 352h64v32h-64v64h192v-64h-64v-32h64v-64h-192v64zM306.424 24.5l1-24.5h-47.468v20c0 0-32-0.5-64-0.5v32c32-7.5 51.252-7 68.5-7 22.5 0 39.468 7.5 39.092 22.436-0.408 17.188-17.968 29.688-41.124 39.064-31.936 12.532-60.468 29.752-60.468 57 0 25.968 58 47.876 58 52.564v40.436h32v-44c32-0.624 32 0 32 0v-20h-56.032c0 0-11.5-13-11.5-23 0-9.5 16.78-25.908 44-37.5 32.252-13.124 49-29.124 49-57 0-25-20.5-49-43-50z" />
<glyph unicode="&#xe66c;" glyph-name="Close" data-tags="Close" d="M278.62 224l116.696 116.688c6.248 6.248 6.248 16.372 0 22.624-6.252 6.252-16.38 6.252-22.632 0l-116.684-116.688-116.688 116.688c-6.248 6.252-16.372 6.252-22.624 0s-6.252-16.376 0-22.624l116.688-116.688-116.688-116.684c-6.252-6.252-6.252-16.38 0-22.632 3.124-3.12 7.22-4.684 11.312-4.684s8.188 1.564 11.312 4.684l116.688 116.696 116.684-116.696c3.132-3.12 7.224-4.684 11.316-4.684s8.184 1.564 11.316 4.684c6.248 6.252 6.248 16.38 0 22.632l-116.696 116.684z" />
<glyph unicode="&#xe66d;" glyph-name="CheckDoc" data-tags="CheckDoc" d="M246.624 278.624c-6.248 6.252-14.436 9.376-22.624 9.376h-176c-8.188 0-16.376-3.124-22.624-9.376-6.252-6.232-9.376-14.436-9.376-22.624v-176c0-8.188 3.124-16.392 9.376-22.624 6.248-6.252 14.436-9.376 22.624-9.376h176c8.188 0 16.376 3.124 22.624 9.376 6.252 6.232 9.376 14.436 9.376 22.624v176c0 8.188-3.124 16.392-9.376 22.624zM48 143.132l65.044-63.132h-65.044v63.132zM224 208v-128h-110.776l110.776 128-32 48-89.36-118.516-39.092 38.5-15.548-32.188v112.204h176v-48zM272 240h128v-32h-128v32zM272 176h128v-32h-128v32zM272 112h128v-32h-128v32zM400 336h96l-128 128v-96c0-8.188 3.124-16.392 9.376-22.624 6.248-6.252 14.436-9.376 22.624-9.376zM448 32h-336v-16c0-8.188 3.124-16.392 9.376-22.624 6.248-6.252 14.436-9.376 22.624-9.376h320c8.188 0 16.376 3.124 22.624 9.376 6.252 6.236 9.376 14.436 9.376 22.624v288h-48v-272zM160 416h176v48h-192c-8.188 0-16.376-3.124-22.624-9.376-6.252-6.24-9.376-14.436-9.376-22.624v-128h48v112z" />
<glyph unicode="&#xe66e;" glyph-name="Check" data-tags="Check" d="M345.592 384l25.612 32h-51.204l-25.592 64h-76.816l-25.592-64h-51.204l25.612-32zM400 432l-32-80h-224l-32 80c-19.108 0-48-9.092-48-28.796v-387.204c0-19.704 28.908-48 48-48h288c19.124 0 48 28.296 48 48v387.204c0 19.704-28.876 28.796-48 28.796zM199.592 48.452l-84.388 162.048 84.392-77.656 222.812 192.436-222.816-276.828z" />
<glyph unicode="&#xe66f;" glyph-name="Bill" data-tags="Bill" d="M512 178.56c-0.082 6.139-1.368 11.957-3.632 17.257-8.060 16.423-20.56 29.95-35.944 39.149 2.272 5.806 4.288 12.272 5.292 19.066 0.045 3.248 0.045 29.488 0.045 32.368-0.073 6.139-1.36 11.958-3.632 17.254-16.848 41.626-93.008 80.346-201.168 80.346s-184.32-38.72-200.96-80.32c-1.134-2.624-2.126-5.727-2.819-8.941-27.859-10.543-50.198-30.082-63.753-55.078-2.986-5.531-4.809-11.284-5.413-17.394-0.015-3.067-0.015-29.947-0.015-32.187 9.55-36.818 37.66-65.353 73.501-75.344s32.739-10.416 32.739-10.416c8-2.24 16.32-3.84 25.28-5.44 32-29.12 91.52-49.6 176.32-49.6 2.533-0.065 5.515-0.103 8.507-0.103 42.865 0 83.941 7.662 121.933 21.692l-2.439-0.788c4.16 1.92 37.76 19.2 43.52 22.4v0 0c17.063 12.779 28.983 31.62 32.574 53.274 0.067 3.686 0.067 29.926 0.067 32.806zM204.8 156.8c-2.534-0.055-5.519-0.086-8.513-0.086-34.331 0-67.7 4.115-99.642 11.877-3.525 1.010-9.605 2.93-15.044 5.17v0l-5.76 2.56c-6.139 2.476-11.296 5.052-16.221 7.978l-2.658 1.942c-3.84 2.549-7.188 5.288-10.243 8.324l-1.916 1.916c-2.783 3.123-5.141 6.711-6.93 10.613l-0.11 2.827c-1.502 3.587-2.431 7.748-2.559 12.11 0.087 4.16 1.142 8.002 2.945 11.387 7.676 11.678 18.592 20.843 31.474 26.252 0.46-2.709 0.46-4.629 0.46-5.269 6.4-48.64 68.48-89.6 176.32-96-14.080-0.96-27.52-1.28-41.6-1.28zM306.24 224h-85.44l-16.64 2.24-14.72 2.56-13.44 2.56-12.8 3.2-10.56 3.2-11.2 4.48-8 4.16-8.96 5.12-5.44 4.48c-2.456 1.995-4.652 4.089-6.672 6.345-1.007 1.34-1.96 2.804-2.82 4.327-1.775 2.344-3.269 4.761-4.487 7.333-1.722 4.138-2.665 8.671-2.665 13.425 0 0.201 0.001 0.401 0.005 0.6 0.088 4.078 1.144 7.922 2.946 11.307l-0.067-0.137c2.114 4.053 4.673 7.531 7.683 10.563l-0.002-0.002c3.351 3.368 7.013 6.42 10.941 9.112l4.099 1.128c3.148 2.025 6.921 4.154 10.81 6.082l5.829 2.558 13.44 5.44 6.4 2.24 15.68 4.48 7.040 1.6 18.56 3.52h7.040l23.36 2.56h5.12c10.24 0 20.48 0 32 0 90.24 0 153.6-25.92 167.36-53.44v0c1.736-3.249 2.791-7.091 2.88-11.173l0-0.028c-0.116-3.944-0.928-7.667-2.317-11.094-0.565-1.579-1.212-3.058-1.945-4.485l-2.137-3.3c-18.64-21.129-44.909-35.149-74.457-37.73l-10.663 0.29-14.4-1.92-17.6-1.6zM477.76 179.2v0c-0.092-4.163-0.906-8.109-2.32-11.755-0.835-1.875-1.798-3.661-2.891-5.356-1.068-1.938-2.233-3.716-3.512-5.404-1.73-2.238-3.617-4.328-5.653-6.263l-3.863-2.902c-18.109-12.596-39.769-21.427-63.184-24.861l-4.656-0.099-20.8-3.2h-10.56l-19.2-1.6h-5.44c32.924 10.378 58.838 34.511 71.409 65.483 18.106 8.139 33.387 18.185 46.413 30.575 8.832-5.124 16.071-12.159 21.232-20.602l0.146-0.257c1.736-3.248 2.791-7.091 2.88-11.173l0-0.027zM272 256l-23.68 4.16 114.56 64-23.68 5.44c-3.461-0.117-7.529-0.183-11.613-0.183-17.573 0-34.858 1.229-51.776 3.607l-26.851-15.904 24-6.4-71.68-39.36-23.68 5.76-28.8-15.68 94.4-22.4 28.8 16.96z" />
<glyph unicode="&#xe670;" glyph-name="BadToGood" data-tags="BadToGood" d="M210.28 118.844l-114.28 105.156 114.28-219.436 301.72 374.872zM192 224l160 128-160 128v-96h-192v-64h192z" />
<glyph unicode="&#xe671;" glyph-name="Attach" data-tags="Attach" d="M138.928-28.64c-33.968 0-65.788 14.408-88.744 37.408-44.496 44.496-56.888 122.216 5.48 184.624 36.556 36.564 182.928 183.032 256.024 256.156 25.92 25.968 58.952 35.984 90.548 27.5 31.048-8.328 56.468-33.764 64.828-64.828 8.436-31.64-1.58-64.672-27.5-90.64l-172.58-172.44c-13.968-14-29.756-22.264-45.632-23.952-15.712-1.64-30.72 3.42-41.228 13.908-19.064 19.080-21.752 54.952 9.9 86.58l99.696 99.56c7.092 7.064 18.532 7.064 25.592 0 7.064-7.080 7.064-18.516 0-25.592l-99.72-99.548c-14.844-14.86-16.212-29.048-9.876-35.392 2.764-2.78 6.968-4.048 11.812-3.532 7.452 0.796 15.944 5.592 23.876 13.564l172.596 172.436c16.812 16.812 23.236 36.564 18.108 55.688-5.032 18.796-20.436 34.172-39.204 39.22-19.108 5.124-38.844-1.328-55.656-18.108-73.092-73.128-219.476-219.596-256.012-256.16-47.688-47.736-36.28-102.64-5.484-133.484 30.796-30.78 85.672-42.204 133.368 5.484l256.024 256.204c7.064 7.048 18.516 7.048 25.548 0 7.092-7.124 7.092-18.564 0-25.624l-256-256.172c-30.152-30.204-63.928-42.86-95.764-42.86z" />
<glyph unicode="&#xe672;" glyph-name="ArrowUp" data-tags="ArrowUp" d="M126.76 128.064h258.48c8.152 0 14.76 6.196 14.76 13.836 0 3.156-5.36 10.436-5.36 10.436l-129.76 132.66c-2.5 1.808-5.48 3.068-8.88 3.068-3.396 0-6.38-1.26-8.872-3.064l-129.76-132.66c0 0-5.368-7.292-5.368-10.44 0-7.64 6.608-13.836 14.76-13.836z" />
<glyph unicode="&#xe673;" glyph-name="ArrowDown" data-tags="ArrowDown" d="M385.176 287.936h-258.48c-8.152 0-14.76-6.196-14.76-13.836 0-3.156 5.36-10.436 5.36-10.436l129.76-132.66c2.5-1.808 5.48-3.068 8.88-3.068 3.396 0 6.38 1.26 8.872 3.064l129.76 132.66c0 0 5.368 7.292 5.368 10.44 0 7.64-6.608 13.836-14.76 13.836z" />
<glyph unicode="&#xe674;" glyph-name="AnotherSignatureCenter" data-tags="AnotherSignatureCenter" d="M224 256c0 11.28 2.312 21.936 5.876 32h-165.876v64h64v32h-64v64h192v-64h-64v-32h64v-24.936c9.252 8.344 20.064 14.812 32 19.064v133.872h-256v-224c-17.688 0-32-14.312-32-32v-224c0-17.688 14.312-32 32-32h96v96c0 0 32 32 96 96v96zM352 93.78v11.092c19.064 11.064 32 31.5 32 55.124v64.004c0 35.376-28.624 64-64 64s-64-28.624-64-64v-64c0-23.624 12.936-44.064 32-55.124v-11.092c-48.092-6.036-92.064-32.908-128-61.784v-64h320v64c-35.936 28.876-79.908 55.748-128 61.78z" />
<glyph unicode="&#xe675;" glyph-name="Alert" data-tags="Alert" d="M504.52 32.336l-74.092 140.16c-18.388 34.144-48.432 89.916-66.816 124.044l-74.1 137.632c-18.384 34.148-48.432 34.148-66.816 0l-74.080-138.192c-18.4-34.172-48.448-90.604-66.816-124.696l-74.108-138.948c-18.376-34.172-1.692-64.552 37.032-64.552h140.912c38.764 0 102.176 0 140.944 0h140.912c38.732 0 55.412 30.38 37.028 64.552zM288.092 31.756h-63.972v63.98h63.976v-63.98zM288.092 159.708h-63.972v159.932h63.976v-159.932z" />
<glyph unicode="&#xe676;" glyph-name="Admin" data-tags="Admin" d="M503.388 369.42c0 0-62.796-63.076-69.22-69.512-6.452-6.42-28.048-5.704-28.048-5.704s-57.28 6.436-65.564 14.656c-8.236 8.252-13.936 67.984-13.936 67.984s-1.564 16.688 6.672 24.952c8.264 8.212 69.484 69.312 69.484 69.312s7.908 8.844-3.484 8.876c-36.748 0.14-111.452-0.696-147.608-36.82l-7.436-7.416c-42.752-42.928-45.564-107.56-11.22-153.92l-211.34-190.84c-16.812-16.78-38.968-62.468 0-101.344 38.952-38.892 84.688-16.78 101.5 0 0 0 138.404 151.172 150.248 164.392 11.844 13.236 5.656 27.080 5.656 27.080s-24.372 33.968-37.5 54.28c-7.14 11.092-3.764 12.484 6.376 6 27.968-17.828 60.592-38.296 66.248-40.984l0.092 0.108c46.28-34.656 111.016-31.936 154 11.032l7.408 7.436c35.064 34.952 36.124 108.872 36.28 146.2 0.092 11.904-8.608 4.232-8.608 4.232zM78 11.268c-19.656 0-35.58 15.908-35.58 35.516s15.92 35.516 35.58 35.516 35.592-15.908 35.592-35.516-15.936-35.516-35.592-35.516z" />
<glyph unicode="&#xe677;" glyph-name="Add" data-tags="Add" d="M384 256h-96v96h-64v-96h-96v-64h96v-96h64v96h96z" />
<glyph unicode="&#xe678;" glyph-name="LetterA" data-tags="LetterA" d="M208.96 112.32l-16.96 2.24c-5.994 1.074-11.158 2.406-16.169 4.074-3.467 1.202-7.179 3.157-10.503 5.606-1.876 3.529-3.046 7.829-3.046 12.401s1.169 8.873 3.226 12.616c-0.069 2.744 14.332 39.864 16.572 44.984h119.040s25.28-68.48 25.28-68.8c-0.353-1.94-1.54-3.548-3.168-4.464-2.683-1.796-5.796-3.13-9.142-3.827-5.913-1.849-12.834-3.414-19.932-4.425l-0.719-16.724h133.44v16.32h-8.64c-0.468-0.016-1.019-0.026-1.571-0.026-15.038 0-28.483 6.825-37.406 17.546-1.457 1.921-2.832 4.012-4.072 6.19-1.435 2.551-2.625 5.195-3.57 7.951l-113.38 272.017h-24.64c-7.68-20.16-101.76-277.12-110.4-288-7.96-8.479-19.241-13.76-31.755-13.76-0.086 0-0.172 0-0.258 0.001h-7.026v-18.24h124.8v16.32zM240.96 354.56l48.64-126.4h-97.6zM64 64h384v-64h-384v64z" />
<glyph unicode="&#xe679;" glyph-name="Edo" data-tags="Edo" d="M352 160l-64 192h-64l-64-192h-64v-32h320v32h-64zM190.22 160l65.78 179.22 62.22-179.22h-128zM256 480c-141.376 0-256-114.624-256-256s114.624-256 256-256 256 114.624 256 256-114.624 256-256 256zM256 32c-106.064 0-192 85.936-192 192s85.936 192 192 192 192-85.936 192-192-85.936-192-192-192z" />
<glyph unicode="&#xe67a;" glyph-name="DocumentTerm" data-tags="DocumentTerm" d="M469.332 224c0 117.832-95.5 213.332-213.332 213.332-117.824 0-213.332-95.5-213.332-213.332 0-93.044 59.656-171.936 142.72-201.104 8.98-3.164 18.136-5.956 27.616-7.896 13.896-2.856 28.272-4.332 43-4.332 14.732 0 29.104 1.476 43 4.332 9.48 1.936 18.624 4.732 27.624 7.896 83.040 29.168 142.704 108.060 142.704 201.104zM256 53.332c-17.648 0-34.668 2.688-50.696 7.688-69.428 21.648-119.972 86.524-119.972 162.98 0 94.104 76.564 170.668 170.668 170.668v-162.968l124.292-124.28c-19.936-21.252-45.124-37.524-73.584-46.4-16.040-5-33.064-7.688-50.708-7.688z" />
<glyph unicode="&#xe67b;" glyph-name="Curtail" data-tags="Curtail" d="M448 128l-192 192-192-192h96l96 96 99.376-96h92.624z" />
<glyph unicode="&#xe67c;" glyph-name="PDF" data-tags="PDF" d="M352 336h96l-128 128v-96c0-8.188 3.124-16.384 9.376-22.624 6.248-6.252 14.436-9.376 22.624-9.376zM0 300.040c8.52 1.892 17.856 3.38 28.060 4.436 10.168 1.068 20.344 1.604 30.512 1.604 10.892 0 21.616-1.008 32.164-3.020 10.512-2.008 19.932-5.98 28.2-11.892 8.292-5.92 15.056-14.26 20.252-25.036 5.204-10.78 7.804-24.792 7.804-42.072 0-15.616-2.2-28.884-6.564-39.776-4.392-10.88-10.252-19.764-17.568-26.624-7.344-6.864-15.804-11.836-25.404-14.916-9.588-3.076-19.472-4.604-29.644-4.604-0.952 0-2.484 0-4.62 0s-4.364 0.044-6.736 0.172c-2.372 0.116-4.676 0.288-6.932 0.532-2.252 0.236-3.84 0.464-4.792 0.712v-85.576h-44.732v246.060zM44.736 179.68c1.416-0.48 4.096-0.9 8-1.248 3.904-0.36 6.56-0.536 7.972-0.536 5.204 0 10.176 0.712 14.912 2.124 4.748 1.428 8.932 3.856 12.628 7.28 3.644 3.436 6.56 8.18 8.696 14.204 2.108 6.040 3.184 13.68 3.184 22.9 0 7.816-1.016 14.448-3.008 19.896-2.020 5.432-4.736 9.768-8.176 12.96s-7.404 5.504-11.904 6.92c-4.48 1.416-9.224 2.12-14.196 2.12-7.336 0-13.376-0.592-18.108-1.764v-84.856zM183.572 302.524c4.252 0.708 9.048 1.244 14.392 1.604 5.324 0.348 10.752 0.712 16.324 1.068 5.552 0.348 10.956 0.58 16.156 0.712 5.204 0.112 9.824 0.172 13.844 0.172 19.644 0 36.028-3.020 49.176-9.060s23.668-14.548 31.616-25.56c7.916-11.008 13.552-24.216 16.844-39.588 3.324-15.4 4.968-32.548 4.968-51.492 0-17.276-1.584-33.792-4.764-49.524-3.212-15.752-8.84-29.6-16.88-41.552-8.060-11.952-18.952-21.484-32.68-28.58-13.724-7.104-31.008-10.652-51.84-10.652-3.060 0-7.22 0.116-12.42 0.348-5.208 0.248-10.636 0.532-16.324 0.9-5.696 0.344-11.128 0.704-16.332 1.056-5.228 0.36-9.248 0.776-12.080 1.248v248.9zM248.904 264.888c-3.784 0-7.628-0.060-11.528-0.172-3.924-0.132-6.932-0.42-9.072-0.896v-171.132c0.724-0.248 1.96-0.42 3.728-0.54 1.792-0.124 3.672-0.244 5.696-0.36 1.988-0.116 3.9-0.236 5.664-0.344 1.784-0.128 3.032-0.188 3.752-0.188 10.628 0 19.388 2.5 26.264 7.468 6.844 4.968 12.248 11.584 16.148 19.88 3.904 8.276 6.616 17.796 8.18 28.58 1.536 10.776 2.28 22.080 2.28 33.912 0 10.896-0.636 21.42-1.932 31.592-1.3 10.188-3.78 19.116-7.456 26.82-3.668 7.684-8.868 13.84-15.628 18.464-6.736 4.608-15.428 6.916-26.096 6.916zM387.72 302.524h124.28v-41.188h-79.552v-64.608h73.168v-41.192h-73.168v-101.556h-44.728v248.544zM112 336v80h176v48h-191.408c-8.344 0-16.68-3.18-23.048-9.548s-9.544-14.708-9.544-23.044v-95.408h48zM112 20h-48v-16c0-8.188 3.124-16.392 9.376-22.624 6.248-6.252 14.436-9.376 22.624-9.376h320c8.188 0 16.376 3.124 22.624 9.376 6.252 6.236 9.376 14.436 9.376 22.624v16h-336z" />
<glyph unicode="&#xe67d;" glyph-name="ExpandList" data-tags="ExpandList" d="M160 416h320v-64h-320v64zM32 416h64v-64h-64v64zM160 288h320v-64h-320v64zM32 288h64v-64h-64v64zM153.624 160h204.812c16.564 0 25.564 0 25.564-21.344l-108.312-99c-4.688-4.688-11.752-7.656-19.688-7.656-7.876 0-14.936 2.968-19.624 7.656l-108.376 99c0 21.344 9 21.344 25.624 21.344z" />
<glyph unicode="&#xe67e;" glyph-name="WorkInFocus" data-tags="WorkInFocus" d="M448 480h-128v-32h128v-416h-320v64h-32v-64c0-15.5 16.5-32 32-32h320c15.5 0 32 16.5 32 32v416c0 15.5-16.5 32-32 32zM192 160.908v-32.908h32v32.908c66.72 7.384 119.708 60.376 127.092 127.092h32.908v32h-32.908c-7.384 66.716-60.372 119.708-127.092 127.092v32.908h-32v-32.908c-66.716-7.384-119.708-60.376-127.092-127.092h-32.908v-32h32.908c7.384-66.716 60.376-119.708 127.092-127.092zM192 403.46v-51.46h32v51.46c42.724-6.864 76.596-40.736 83.46-83.46h-51.46v-32h51.46c-6.864-42.724-40.736-76.596-83.46-83.46v51.46h-32v-51.46c-42.724 6.864-76.596 40.736-83.46 83.46h51.46v32h-51.46c6.864 42.724 40.736 76.596 83.46 83.46z" />
<glyph unicode="&#xe67f;" glyph-name="ValidityPeriod" data-tags="ValidityPeriod" d="M289.408 392c40.908 0 77.908-15.408 106.968-40h75.564c-40.252 57.984-106.94 96-182.532 96-51.72 0-99.28-17.764-137.092-47.5l38.28-41.092c27.656 20.468 61.812 32.592 98.812 32.592zM128 224h64l-96 128-96-128h64c2.408-98.376 70.688-186.592 160-214.156v59.72c-58.032 24.936-93.812 87.468-96 154.436zM449.908 284.436l-170.656-284.436h43.28l170.656 284.436zM495.312 97.092c-11.092 11.124-24.468 16.688-40.124 16.688-15.752 0-29.156-5.564-40.22-16.688-11.064-11.092-16.592-24.532-16.592-40.28 0-15.656 5.532-29.032 16.592-40.156 11.064-11.092 24.468-16.656 40.22-16.656 15.656 0 29.032 5.564 40.124 16.656 11.124 11.124 16.688 24.5 16.688 40.156 0 15.752-5.564 29.188-16.688 40.28zM475.22 36.812c-5.532-5.592-12.252-8.376-20.092-8.376-7.968 0-14.752 2.78-20.312 8.376-5.532 5.592-8.312 12.28-8.312 20.092 0 7.78 2.78 14.5 8.312 20.064 5.564 5.564 12.344 8.376 20.312 8.376 7.844 0 14.564-2.812 20.092-8.376 5.564-5.564 8.344-12.28 8.344-20.064 0-7.812-2.784-14.496-8.344-20.092zM352.936 187.344c11.124 11.124 16.688 24.5 16.688 40.124 0 15.764-5.564 29.188-16.688 40.296-11.124 11.124-24.5 16.672-40.124 16.672-15.752 0-29.188-5.548-40.22-16.672-11.060-11.108-16.592-24.528-16.592-40.296 0-15.624 5.532-29 16.592-40.124 11.032-11.124 24.468-16.688 40.22-16.688 15.624 0 29 5.564 40.124 16.688zM292.436 207.468c-5.532 5.564-8.312 12.28-8.312 20.092 0 7.796 2.78 14.5 8.312 20.080 5.564 5.564 12.344 8.36 20.316 8.36 7.812 0 14.532-2.796 20.092-8.36 5.532-5.58 8.344-12.28 8.344-20.080 0-7.812-2.812-14.532-8.344-20.092-5.564-5.564-12.28-8.376-20.092-8.376-7.972 0-14.752 2.816-20.316 8.376z" />
<glyph unicode="&#xe680;" glyph-name="ThresholdConditions" data-tags="ThresholdConditions" d="M256 160v256h-224v-128h192v-256h256v128z" />
<glyph unicode="&#xe681;" glyph-name="WeekForward" data-tags="WeekForward" d="M96 384.032c-32 0-32-11.252-32-32v-256c0-20.72 0-32 32-32l148.5 135.436c7.032 5.844 11.5 14.688 11.5 24.564s-4.468 18.72-11.5 24.564l-148.5 135.436zM436.5 248.592l-148.5 135.44c-32 0-32-11.252-32-32v-256c0-20.72 0-32 32-32l148.5 135.436c7.032 5.844 11.5 14.688 11.5 24.564s-4.468 18.716-11.5 24.56z" />
<glyph unicode="&#xe682;" glyph-name="PermittedRegions" data-tags="PermittedRegions" d="M267.312 94.672l-94.124 75.188 94.124-169.172 244.688 319.532zM197 210.392l67.312-31.5 95.752 88.252-11.688 25.624 3.624 59.42 32 31.952 32 63.908-73-11.252-23 11.252-32 31.952h-32v-31.952l-22.968-20.28h-59.5l-55.2-59.528-22.332-48.020h-64l-11.296-32.328-20.704-59.3 32-36.188 31.252-15.592 0.748-48.312-32-31.952 64-63.904 11.296-23.752 45.328 7.936 33.188 11.032-54.312 126.608c-15.5 41.94 19 79.876 65.5 55.924zM454.252 139.64l-96.376-125.904 27.532-13.736 66.844 0.376 27.748 0.312v63.904l32 46.408-24.22 17.124z" />
<glyph unicode="&#xe683;" glyph-name="PermittedGoods" data-tags="PermittedGoods" d="M432 464l-208-210.080-114.88 59.040 114.88-152.96 208 304zM400 288l-77.76-160.32-194.24 0.32-64 96h-64l109.12-160h242.88l96 192h64v32h-112zM208 16c0-17.673-14.327-32-32-32s-32 14.327-32 32c0 17.673 14.327 32 32 32s32-14.327 32-32zM320 16c0-17.673-14.327-32-32-32s-32 14.327-32 32c0 17.673 14.327 32 32 32s32-14.327 32-32z" />
<glyph unicode="&#xe684;" glyph-name="PermittedBuyers" data-tags="PermittedBuyers" d="M267.312 94.124l-94.124 75.284 94.124-169.408 244.688 320zM197 210l67.312-31.532 67.188 62c-14.5 18.048-32.468 32.608-54.064 35.796-13.156 4.188-23.032 2.312-29.252 8.984-3.312 3.5-4.532 13.532-4.936 23.78 25.876 16.188 43.312 45.204 43.312 78.672 0.004 50.972-40.092 92.3-89.56 92.3-49.436 0-89.532-41.328-89.532-92.296 0-34.516 18.592-64.252 45.844-80.092-0.936-9.908-2.688-19.392-6-22.64-7.312-7.080-18.564-3.344-34.436-9.092-9.456-1.988-18.156-6.24-26.188-11.88-0.28-0.204-0.624-0.484-0.908-0.704-45.188-32.548-67.872-111.452-67.872-111.452l-17.908-89.548 53.736-17.908c5.968 71.64 17.908 89.548 17.908 89.548s23.892 47.764 35.828 53.736l-11.472-187.672c32 0 58.252 0 96 0 1.936 0 4 0 5.936 0l-66.436 154c-15.5 42 19 80 65.5 56z" />
<glyph unicode="&#xe685;" glyph-name="WeekBackward" data-tags="WeekBackward" d="M415.996 383.996l-148.472-135.44c-7.032-5.844-11.532-14.688-11.532-24.564s4.5-18.72 11.532-24.564l148.472-135.44c32.004 0 32.004 11.252 32.004 32v256.008c0 20.72 0 32-32.004 32zM223.992 383.996l-148.476-135.44c-7.028-5.844-11.516-14.688-11.516-24.564s4.484-18.72 11.516-24.564l148.476-135.44c32 0 32 11.252 32 32v256.008c0 20.72 0 32-32 32z" />
<glyph unicode="&#xe686;" glyph-name="Expand" data-tags="Expand" d="M156.624 320l99.376-96 96 96h96l-192-192-192 192h92.624z" />
<glyph unicode="&#xe687;" glyph-name="Eo2" data-tags="Eo2" d="M256 480c-141.376 0-256-114.624-256-256s114.624-256 256-256 256 114.624 256 256-114.624 256-256 256zM392.032 359.5l-0.532 0.5c0.188-0.156 0.344-0.312 0.532-0.5zM64 224c0 106.064 85.936 192 192 192 41.468 0 79.752-13.252 111.124-35.624l-46.5-46.468c-19.032 11.216-40.936 18.092-64.624 18.092-70.688 0-128-57.312-128-128 0-23.688 6.876-45.624 18.124-64.656l-46.5-46.468c-22.344 31.372-35.624 69.656-35.624 111.124zM355.564 224c0-55-44.592-99.564-99.564-99.564-15.78 0-30.5 4-43.752 10.564l132.752 132.748c6.564-13.248 10.564-27.968 10.564-43.748zM156.436 224c0 55 44.592 99.564 99.564 99.564 15.78 0 30.5-4 43.752-10.564l-132.752-132.752c-6.564 13.252-10.564 27.972-10.564 43.752zM119.968 88.5l0.532-0.5c-0.188 0.156-0.344 0.312-0.532 0.5zM256 32c-41.468 0-79.752 13.252-111.124 35.624l46.5 46.468c19.032-11.216 40.936-18.092 64.624-18.092 70.688 0 128 57.312 128 128 0 23.688-6.876 45.624-18.124 64.656l46.5 46.468c22.344-31.376 35.624-69.656 35.624-111.124 0-106.064-85.936-192-192-192z" />
<glyph unicode="&#xe688;" glyph-name="Eo" data-tags="Eo" d="M256 352c-70.688 0-128-57.312-128-128s57.312-128 128-128 128 57.312 128 128-57.312 128-128 128zM256 124.436c-54.968 0-99.564 44.564-99.564 99.564s44.596 99.564 99.564 99.564 99.564-44.564 99.564-99.564-44.596-99.564-99.564-99.564zM256 480c-141.376 0-256-114.624-256-256s114.624-256 256-256 256 114.624 256 256-114.624 256-256 256zM256 32c-106.064 0-192 85.936-192 192s85.936 192 192 192 192-85.936 192-192-85.936-192-192-192z" />
<glyph unicode="&#xe689;" glyph-name="Edo2" data-tags="Edo2" d="M256 480c-141.376 0-256-114.624-256-256s114.624-256 256-256 256 114.624 256 256-114.624 256-256 256zM392.252 359.248l-1 1c0.34-0.34 0.656-0.656 1-1zM64 224c0 106.064 85.936 192 192 192 41.468 0 79.752-13.28 111.124-35.624l-66.436-66.44-12.688 38.064h-64l-57.376-172.124-19.872-19.876h-50.752v-32h18.752l-15.124-15.124c-22.348 31.372-35.628 69.656-35.628 111.124zM318.22 160h-80.968l60.092 60.092 20.876-60.092zM215.436 228.688l40.564 110.532 18.032-51.936-58.596-58.596zM119.752 88.748l1-1c-0.344 0.344-0.66 0.66-1 1zM256 32c-41.468 0-79.752 13.28-111.124 35.624l60.376 60.376h210.748v32h-64l-28.688 86.064 89.064 89.064c22.344-31.38 35.624-69.66 35.624-111.128 0-106.064-85.936-192-192-192z" />
<glyph unicode="&#xe68a;" glyph-name="Signature" data-tags="Signature" d="M448 288c0 11.124-1.156 21.968-2.968 32.592l-37.408 9.376 27.532 26.624c-7.468 19.5-17.844 37.532-30.876 53.376l-36.78-10.5 10.5 36.78c-15.812 13.032-33.876 23.408-53.376 30.908l-26.624-27.564-9.376 37.436c-10.624 1.816-21.468 2.972-32.624 2.972-9.812 0-19.36-0.968-28.764-2.376l-9.516-38.032-27.608 28.564c-19.328-7.064-37.204-17.064-53.048-29.624l11.172-39.064-39.764 11.344c-12.78-15.344-23.124-32.72-30.656-51.564l30.296-29.28-41.296-10.344c-1.708-10.312-2.816-20.844-2.816-31.624 0-9.468 0.908-18.72 2.252-27.844l41.86-10.468-31.28-30.252c7.14-18.656 17.016-35.936 29.296-51.28l42.108 12.032-12.032-42.092c2.484-2 5.108-3.812 7.704-5.688-18.972-35.344-47.908-99.816-47.908-164.408 0 0 32 64 64 64 0 0 32-32 32-64 0 0 0 128 64 128s64-128 64-128c0 32 32 64 32 64 32 0 64-64 64-64 0 64.532-28.876 128.908-47.812 164.28 3.624 2.624 7.188 5.344 10.656 8.188l-11.344 39.72 39.032-11.156c12.532 15.844 22.532 33.752 29.592 53.064l-28.5 27.592 38 9.532c1.408 9.404 2.376 18.968 2.376 28.78zM256 160c-70.688 0-128 57.312-128 128s57.312 128 128 128 128-57.312 128-128-57.312-128-128-128zM320 288c0-35.346-28.654-64-64-64s-64 28.654-64 64c0 35.346 28.654 64 64 64s64-28.654 64-64z" />
<glyph unicode="&#xe68b;" glyph-name="Question2" data-tags="Question2" d="M240 372.16c-40.328-2.363-72.138-35.645-72.138-76.356 0-1.62 0.050-3.227 0.149-4.822l-0.011-2.981h39.040l2.56 3.52v10.56c0.418 16.779 11.814 30.786 27.256 35.137 5.806 1.935 12.189 3.014 18.823 3.014s13.018-1.080 18.982-3.073c6.282-2.155 11.981-5.894 16.517-10.735 4.841-5.956 7.761-13.603 7.761-21.932 0-10.885-4.986-20.605-12.798-27.001l-0.062-0.049-10.24-8.64c-8.965-7.665-17.106-15.399-24.826-23.537-12.101-12.964-19.447-30.232-19.447-49.215 0-2.779 0.157-5.521 0.464-8.217l-0.030-3.83h41.92v5.44c0.055 0.575 0.086 1.244 0.086 1.92s-0.031 1.344-0.092 2.005c0.2 19.166 9.969 36.095 24.771 46.19l16.836 14.526 10.88 9.92c10.899 9.553 17.742 23.501 17.742 39.047 0 1.349-0.051 2.685-0.152 4.008-0.511 19.365-9.714 36.656-23.865 48.048-17.12 11.806-38.153 18.799-60.818 18.799-6.825 0-13.5-0.634-19.973-1.846zM232.32 155.2h43.84v-39.040h-43.84v39.040zM256 456.64c-141.44 0-256-94.4-256-209.6 0.665-48.526 19.788-92.46 50.648-125.214l-27.288-130.466 116.48 69.76c33.595-14.736 72.751-23.327 113.907-23.36h2.252c141.44 0 256 93.12 256 209.6s-114.56 209.28-256 209.28zM256 69.76h-2.24c-0.107 0-0.233-0-0.361-0-36.534 0-71.281 7.653-102.724 21.443l-13.395 4.797-14.080-8.32-53.76-32 12.48 59.2 3.52 16.32-11.52 12.8c-25.496 26.95-41.352 63.25-41.919 103.248-0.001 98.032 100.479 177.392 223.999 177.392s224-79.68 224-177.6-100.48-177.28-224-177.28z" />
<glyph unicode="&#xe68c;" glyph-name="Bids" data-tags="Bids" d="M192 224l128 96-128 96v-64h-160v-64h160zM480 160l-128 96v-64h-320v-64h320v-64z" />
<glyph unicode="&#xe68d;" glyph-name="Time" data-tags="Time" d="M256 480c-141.392 0-256-114.624-256-256s114.608-256 256-256c141.376 0 256 114.624 256 256s-114.624 256-256 256zM256 0c-123.516 0-224 100.5-224 224 0 123.516 100.484 224 224 224 123.5 0 224-100.484 224-224 0-123.5-100.5-224-224-224zM272 232v180c0 9.436-6.564 16-16 16s-16-6.564-16-16v-195.064l106.344-107.408c3.312-3.344 7.688-5 12.064-5 4.344 0 8.72 1.656 12.064 5 6.656 6.656 6.656 17.468 0 24.124l-98.472 98.348z" />
</font>
</defs>
</svg>
